M48
;Layer_Color=9474304
;FILE_FORMAT=4:4
METRIC,LZ
;TYPE=PLATED
T01F00S00C0.7112
T02F00S00C0.7400
T03F00S00C0.8000
T04F00S00C0.9000
T05F00S00C1.0000
T06F00S00C1.0200
;TYPE=NON_PLATED
T07F00S00C2.2500
%
T01
X00268105Y-00164611
X00477401Y-00137955
X00762259Y-00148487
X00901238Y-00128035
X01268865Y-00011266
X00895231Y-00061536
X00872625Y-00109528
X00773336Y00036009
X00783725Y00053201
X00702191Y00032493
X0054179Y00096291
X00509913Y00093199
X00524137Y00181845
X00607703Y-00114065
X00337828Y-00042691
X00335415Y-00002305
X00264295Y00015475
X00254135Y-00040913
X00212231Y-00071647
X00175903Y00029699
X00081481Y00069778
X00080862Y00097778
X00061603Y00095628
X00193192Y00176484
X00348877Y00139427
X00392311Y00613645
X00693047Y00578085
X00904532Y00922835
X01007245Y00964165
X01031629Y00821671
X01098181Y00772128
X01115962Y00777576
X01102749Y0087147
X00766199Y00832085
X00799981Y01013441
X00515293Y01030413
X00470797Y00933168
X00496959Y00743947
X00360053Y00832765
X00251595Y0088479
X00261755Y00920323
X00111133Y00951465
X00054999Y01032745
X00417711Y01042143
X00469019Y01101579
X00542171Y01166857
X00487358Y01274332
X00521851Y01325353
X00896247Y01122661
X00981083Y01116311
T02
X00632434Y-00176595
X00657833Y-00151195
X00607034
X01283032Y00109199
X01308432Y00134599
X01333832Y00109199
X0091267Y00109471
X0086187
X0088727Y00134871
X01168684Y00632469
X01194084Y00657869
X01280749Y00723219
X01306149Y00748619
X01280749Y00774019
X01284559Y00848949
Y00899749
X01309959Y00874349
X01307419Y01005159
X01282019Y01030559
Y00979759
X01089039Y01056194
X00922667Y00986578
Y00935778
X00897267Y00961178
X00885469Y00840861
X00910869Y00815461
X00885469Y00790061
X01168684Y00683269
X00801308Y00946475
X00775908Y00921075
X00750508Y00946475
X00704744Y01046697
X00653944
X00557379Y00983968
X0058278Y00958568
X00557379Y00933168
X00200135Y00981551
X00174735Y01006951
Y00956151
X00679344Y01072097
X01089039Y01106994
X01114439Y01081594
T03
X00635989Y-00032908
Y00002092
X00367573Y00597056
X00347573
X00327573
X00078113Y00671969
X01179678Y00957562
Y00992561
X00811457Y01065196
X00705242Y00863512
Y00838112
Y00812712
Y00787312
Y00761912
Y00736512
Y00711112
Y00685712
X00629042
Y00711112
Y00736512
Y00761912
Y00787312
Y00812712
Y00838112
Y00863512
X00549408Y00788017
Y00753017
X00078113Y00706969
X00811457Y01100196
T04
X00840245Y-00141908
X00916445
Y-00116508
Y-00091108
Y-00065708
Y-00040308
Y-00014908
Y00010492
X00840245
Y-00014908
Y-00040308
Y-00065708
Y-00091108
Y-00116508
X01153477Y-00023017
Y00002383
Y00027783
Y00053183
Y00078583
Y00103983
Y00129383
X01229677
Y00103983
Y00078583
Y00053183
Y00027783
Y00002383
Y-00023017
X00493471Y-00031743
Y-00006343
Y00019057
Y00044457
Y00069857
Y-00057143
Y-00082543
X00417271
Y-00057143
Y-00031743
Y-00006343
Y00019057
Y00044457
Y00069857
X00212231Y00058098
Y00083498
Y00108898
Y00134298
X00136031
Y00108898
Y00083498
Y00058098
Y00032698
Y00007298
Y-00018102
X00212231
Y00007298
Y00032698
X00193109Y0066582
X00995683Y00787559
Y00812959
Y00838359
Y00863759
Y00889159
Y00914559
Y00939959
X01071883
Y00914559
Y00889159
Y00863759
Y00838359
Y00812959
Y00787559
X00375255Y00906824
Y00932224
Y00957624
Y00983024
Y01008424
Y01033824
Y01059224
X00299055
Y01033824
Y01008424
Y00983024
Y00957624
Y00932224
Y00906824
X00193109Y00715821
Y00690821
X00439158Y01257021
Y0128202
Y01307021
X00638298Y01299732
Y01274332
Y01248932
Y01223532
Y01198132
X00714498
Y01223532
Y01248932
Y01274332
Y01299732
Y01325132
Y01350532
X00638298
Y01325132
X00899414Y01318937
Y01293937
Y01268936
T05
X00448106Y00689755
Y00714756
X00802793Y00703477
Y00728478
T06
X00517337Y00601959
X00542737
X00568137
X00593537
X00618937
X00644337
X00764681Y00597503
X00790081
X00815481
X00840881
X00866281
X00891681
T07
X00178517Y00311897
Y00487429
X01191153Y00488762
Y0031323
M30
