G04*
G04 #@! TF.GenerationSoftware,Altium Limited,Altium Designer,24.1.2 (44)*
G04*
G04 Layer_Color=65535*
%FSLAX44Y44*%
%MOMM*%
G71*
G04*
G04 #@! TF.SameCoordinates,85EAEC8C-3496-431A-917F-130F63ABBC40*
G04*
G04*
G04 #@! TF.FilePolarity,Positive*
G04*
G01*
G75*
%ADD10C,0.2000*%
%ADD11C,0.2500*%
%ADD12C,0.1500*%
%ADD13C,0.6000*%
%ADD14C,0.2540*%
%ADD15C,0.1270*%
G36*
X742335Y415365D02*
X742595Y415106D01*
X742906Y414586D01*
X743062Y414431D01*
X743788Y414327D01*
X744515Y414431D01*
X745346Y414327D01*
X745605Y414067D01*
X745917Y413548D01*
X746072Y413393D01*
X747993Y413445D01*
X748356Y413289D01*
X748616Y413029D01*
X748719Y412822D01*
X749187Y412355D01*
X749394Y412251D01*
X749654Y411991D01*
X749965Y411472D01*
X751315Y411368D01*
X751522Y411161D01*
X751626Y410953D01*
X751990Y410486D01*
X752197Y410382D01*
X752664Y409915D01*
X752768Y409707D01*
X753028Y409448D01*
X753235Y409344D01*
X753702Y408877D01*
X753806Y408669D01*
X753962Y408513D01*
X754170Y408410D01*
X754741Y407839D01*
X754844Y407631D01*
X755000Y407475D01*
X755208Y407372D01*
X755675Y406904D01*
X755779Y406697D01*
X755934Y406541D01*
X756142Y406437D01*
X756713Y405866D01*
X756817Y405659D01*
X756973Y405503D01*
X757180Y405399D01*
X757543Y405140D01*
X757647Y404724D01*
X757751Y403686D01*
X757907Y403531D01*
X758426Y403219D01*
X758582Y403063D01*
X758633Y402700D01*
X758582Y401921D01*
X758841Y401558D01*
X759568Y401143D01*
X759672Y399793D01*
X759983Y399482D01*
X760502Y399170D01*
X760658Y398703D01*
X760554Y397042D01*
X761021Y396471D01*
X761540Y396160D01*
X761696Y395589D01*
X761592Y394862D01*
X761644Y393149D01*
X761488Y392786D01*
X761229Y392526D01*
X760710Y392215D01*
X760554Y391748D01*
X760658Y391021D01*
X760294Y390554D01*
X759879Y390450D01*
X755934Y390554D01*
X755675Y390813D01*
X755623Y391281D01*
X755675Y391955D01*
X755312Y392423D01*
X754792Y392734D01*
X754533Y393097D01*
X754066Y393564D01*
X753858Y393668D01*
X753702Y393824D01*
X753599Y394239D01*
X753702Y396731D01*
Y396835D01*
X753443Y397302D01*
X753235Y397406D01*
X752664Y397873D01*
X752561Y398080D01*
X752197Y398444D01*
X751990Y398548D01*
X751626Y398911D01*
X751522Y400157D01*
X751263Y400416D01*
X751055Y400520D01*
X750796Y400676D01*
X750692Y400883D01*
X750329Y401351D01*
X750121Y401454D01*
X749654Y401818D01*
X749550Y403167D01*
X749394Y403323D01*
X748875Y403634D01*
X748616Y403894D01*
X748512Y405243D01*
X748356Y405399D01*
X746903Y405503D01*
X746643Y405762D01*
X746747Y407112D01*
X746384Y407475D01*
X745968Y407372D01*
X745813Y407216D01*
X745709Y407008D01*
X745242Y406437D01*
X744723Y406541D01*
X744567Y407008D01*
X744671Y408046D01*
X744515Y408306D01*
X744100Y408410D01*
X742958Y408513D01*
X742802Y408669D01*
X742698Y408877D01*
X742335Y409344D01*
X742127Y409448D01*
X741764Y409707D01*
X741660Y409915D01*
X741297Y410382D01*
X740882Y410486D01*
X740051Y410382D01*
X739895Y410226D01*
X739636Y409552D01*
X739428Y409344D01*
X738805Y409448D01*
X738650Y409604D01*
X738754Y410330D01*
X739532Y410694D01*
X739688Y410849D01*
X739740Y411524D01*
X739636Y412043D01*
X739324Y412355D01*
X739117Y412458D01*
X738754Y412718D01*
X738650Y413133D01*
X738546Y413445D01*
X738650Y413756D01*
X738909Y414223D01*
X739117Y414327D01*
X739584Y414690D01*
X739895Y415209D01*
X740051Y415365D01*
X740466Y415469D01*
X741401Y415365D01*
X741712Y415469D01*
X742335Y415365D01*
D02*
G37*
G36*
X739688Y405036D02*
X739999Y404517D01*
X741245Y404413D01*
X741556Y404205D01*
X741920Y403531D01*
X742335Y403427D01*
X743373Y403323D01*
X743633Y403063D01*
X743736Y402856D01*
X744204Y402389D01*
X744411Y402285D01*
X744567Y402129D01*
X744671Y401921D01*
X745242Y401351D01*
X745449Y401247D01*
X745605Y401091D01*
X745709Y400883D01*
X746176Y400416D01*
X746384Y400312D01*
X746643Y400053D01*
X746747Y398807D01*
X747110Y398444D01*
X747318Y398340D01*
X747681Y397976D01*
X747785Y397769D01*
X748045Y397509D01*
X748252Y397406D01*
X748616Y397146D01*
X748719Y396627D01*
X748616Y396316D01*
X748719Y395797D01*
X748979Y395537D01*
X749498Y395225D01*
X749654Y395070D01*
X749602Y392319D01*
X749706Y391904D01*
X750017Y391488D01*
X750536Y391177D01*
X750692Y390710D01*
X750588Y389775D01*
X750432Y389620D01*
X749602Y389412D01*
X749290Y389516D01*
X744930Y389412D01*
X744775Y389256D01*
X744671Y388841D01*
Y355829D01*
Y355725D01*
X744567Y339946D01*
X744307Y339686D01*
X743581Y339582D01*
X743269Y339686D01*
X731383Y339634D01*
X730864Y339842D01*
X730656Y340361D01*
X730760Y342645D01*
X730708Y384948D01*
X730760Y385934D01*
X730293Y386505D01*
X729826Y386765D01*
X729514Y387284D01*
X729359Y387440D01*
X728943Y387543D01*
X727542Y387492D01*
X695308Y387543D01*
X694997Y387440D01*
X694166Y387543D01*
X693907Y387803D01*
X693803Y388218D01*
X693855Y389516D01*
X693803Y399430D01*
X693907Y399741D01*
X693803Y400053D01*
X693907Y401195D01*
X694062Y401351D01*
X694478Y401454D01*
X735483Y401558D01*
X735639Y401714D01*
X735743Y402129D01*
X735639Y402856D01*
X736106Y403427D01*
X736625Y403738D01*
X736729Y405088D01*
X737041Y405399D01*
X737767Y405503D01*
X738079Y405399D01*
X739117Y405503D01*
X739688Y405036D01*
D02*
G37*
G36*
X576028Y404361D02*
X576184Y404205D01*
X576288Y403790D01*
X576184Y390813D01*
X575924Y390554D01*
X575509Y390450D01*
X568657D01*
X503100Y390502D01*
X502737Y390346D01*
X502322Y389724D01*
X502114Y389516D01*
X501906Y389412D01*
X501647Y389256D01*
X501439Y388737D01*
X501543Y387388D01*
X501491Y358165D01*
X501751Y357801D01*
X501906Y357646D01*
X502114Y357542D01*
X502581Y357075D01*
X502685Y356867D01*
X502944Y356608D01*
X503516Y356556D01*
X575821Y356608D01*
X576184Y356348D01*
X576288Y355933D01*
X576236Y345188D01*
X576495Y344825D01*
X576651Y344669D01*
X576859Y344565D01*
X577222Y344306D01*
X577326Y343890D01*
X577222Y343060D01*
X577066Y342800D01*
X576340Y342593D01*
X574990Y342697D01*
X500090Y342645D01*
X499726Y342904D01*
X499311Y343631D01*
X498792Y343527D01*
X498532Y343268D01*
X498429Y342956D01*
X498169Y342697D01*
X497650Y342800D01*
X497494Y342956D01*
X497131Y343631D01*
X496716Y343735D01*
X495055Y343631D01*
X494588Y343994D01*
X494276Y344513D01*
X494120Y344669D01*
X492771Y344773D01*
X492356Y345396D01*
X492148Y345603D01*
X491940Y345707D01*
X491577Y346071D01*
X491473Y346278D01*
X491110Y346642D01*
X490902Y346745D01*
X490539Y347109D01*
X490435Y347316D01*
X490176Y347576D01*
X489968Y347680D01*
X489605Y348043D01*
X489501Y348251D01*
X489137Y348614D01*
X488930Y348718D01*
X488670Y348873D01*
X488567Y349289D01*
X488463Y350327D01*
X488203Y350586D01*
X487684Y350898D01*
X487528Y351365D01*
X487580Y352663D01*
X487528Y354168D01*
X487632Y354479D01*
X487528Y355206D01*
X487373Y355466D01*
X486698Y355829D01*
X486490Y356348D01*
X486594Y358009D01*
X486542Y392838D01*
X486698Y393201D01*
X486958Y393461D01*
X487477Y393772D01*
X487632Y394239D01*
X487528Y395900D01*
X487996Y396471D01*
X488515Y396783D01*
X488619Y398132D01*
X488826Y398340D01*
X489034Y398444D01*
X489501Y398807D01*
X489605Y399015D01*
X489760Y399274D01*
X489968Y399378D01*
X490176Y399586D01*
X490383Y399689D01*
X490643Y400053D01*
X491110Y400520D01*
X491318Y400624D01*
X491473Y400779D01*
X491577Y400987D01*
X492148Y401558D01*
X492356Y401662D01*
X492771Y402285D01*
X493290Y402492D01*
X494951Y402389D01*
X495522Y402856D01*
X495833Y403375D01*
X496404Y403531D01*
X497754Y403427D01*
X498273Y403531D01*
X498792Y404361D01*
X499207Y404465D01*
X576028Y404361D01*
D02*
G37*
G36*
X800885Y403427D02*
X874540Y403479D01*
X875059Y403271D01*
X875266Y402752D01*
X875163Y400468D01*
X875214Y390035D01*
X875059Y389672D01*
X874903Y389516D01*
X874176Y389412D01*
X873450Y389516D01*
X802754Y389412D01*
X802598Y389256D01*
X802494Y389049D01*
X802131Y388582D01*
X801923Y388478D01*
X801456Y388011D01*
X801352Y387803D01*
X801093Y387543D01*
X800885Y387440D01*
X800522Y387180D01*
X800418Y386765D01*
X800522Y384792D01*
X800470Y357127D01*
X800729Y356763D01*
X800885Y356608D01*
X801352Y356348D01*
X801456Y356140D01*
X801819Y355673D01*
X802235Y355569D01*
X803896Y355673D01*
X804363Y355310D01*
X804674Y354791D01*
X804830Y354635D01*
X805557Y354531D01*
X805972Y354635D01*
X873605Y354583D01*
X874124Y354998D01*
X874228Y355310D01*
X874488Y355569D01*
X875111Y355466D01*
X875266Y355310D01*
X875214Y352974D01*
X875266Y352611D01*
X875163Y352299D01*
X875214Y347161D01*
X875163Y346174D01*
X875526Y345707D01*
X876045Y345396D01*
X876201Y345240D01*
X876253Y344565D01*
X876149Y341970D01*
X875837Y341659D01*
X797303Y341607D01*
X796888Y341710D01*
X796577Y341918D01*
X796265Y342437D01*
X796006Y342697D01*
X793981Y342645D01*
X793618Y342904D01*
X793255Y343475D01*
X793099Y343631D01*
X791750Y343735D01*
X791230Y344565D01*
X790815Y344669D01*
X789777Y344773D01*
X789621Y344929D01*
X789518Y345136D01*
X789154Y345603D01*
X788635Y345915D01*
X788480Y346382D01*
X788376Y347420D01*
X788220Y347576D01*
X787649Y347835D01*
X787545Y348251D01*
X787441Y349289D01*
X787078Y349652D01*
X786611Y349912D01*
X786507Y350327D01*
X786559Y352974D01*
X786403Y353337D01*
X786144Y353597D01*
X785625Y353908D01*
X785469Y354375D01*
X785573Y356348D01*
Y383235D01*
Y383339D01*
X785521Y392007D01*
X785832Y392423D01*
X786351Y392734D01*
X786507Y392890D01*
X786611Y393616D01*
X786507Y394032D01*
X786611Y395174D01*
X786870Y395433D01*
X787390Y395745D01*
X787545Y395900D01*
X787649Y397250D01*
X788272Y397665D01*
X788480Y397873D01*
X788583Y398080D01*
X788947Y398444D01*
X789154Y398548D01*
X789518Y398911D01*
X789621Y399118D01*
X789985Y399482D01*
X790192Y399586D01*
X790452Y399845D01*
X790556Y400053D01*
X790815Y400416D01*
X791334Y400520D01*
X791646Y400416D01*
X792165Y400520D01*
X792424Y400779D01*
X792736Y401298D01*
X792891Y401454D01*
X794241Y401558D01*
X794397Y401714D01*
X794708Y402233D01*
X794864Y402389D01*
X795279Y402492D01*
X796681Y402440D01*
X797978Y402492D01*
X798290Y402389D01*
X799120Y402492D01*
X799380Y402752D01*
X799484Y402960D01*
X799847Y403427D01*
X800574Y403531D01*
X800885Y403427D01*
D02*
G37*
G36*
X745034Y423359D02*
X746955Y423410D01*
X747474Y423203D01*
X747578Y422995D01*
X748045Y422424D01*
X748252Y422321D01*
X748719Y421853D01*
X748875Y421490D01*
X749290Y421386D01*
X750329Y421282D01*
X750588Y421023D01*
X750900Y420504D01*
X751367Y420348D01*
X752041Y420400D01*
X752405Y420244D01*
X752561Y420089D01*
X752872Y419570D01*
X753028Y419414D01*
X753235Y419310D01*
X753495Y419154D01*
X753599Y418947D01*
X754066Y418376D01*
X755986Y418428D01*
X756350Y418272D01*
X756505Y418116D01*
X756609Y417909D01*
X756973Y417441D01*
X757180Y417337D01*
X757543Y417078D01*
X757647Y416870D01*
X757907Y416507D01*
X758114Y416403D01*
X758322Y416196D01*
X758478Y416144D01*
X758582Y415936D01*
X758789Y415728D01*
X758841Y415573D01*
X759049Y415469D01*
X759256Y415261D01*
X759464Y415157D01*
X759879Y414535D01*
X760087Y414431D01*
X760294Y414223D01*
X760450Y414171D01*
X760554Y413964D01*
X760762Y413756D01*
X760865Y413548D01*
X761488Y413133D01*
X761592Y412925D01*
X761955Y412458D01*
X762475Y412147D01*
X762630Y411991D01*
X762734Y410642D01*
X763357Y410226D01*
X763565Y410019D01*
X763668Y409811D01*
X764032Y409448D01*
X764239Y409344D01*
X764603Y408981D01*
X764706Y408773D01*
X765070Y408410D01*
X765277Y408306D01*
X765537Y408150D01*
X765641Y407735D01*
X765537Y407008D01*
X766004Y406437D01*
X766523Y406126D01*
X766627Y404776D01*
X766835Y404569D01*
X767042Y404465D01*
X767510Y404101D01*
X767613Y403894D01*
X768080Y403427D01*
X768288Y403323D01*
X768548Y403063D01*
X768599Y402596D01*
X768548Y401921D01*
X768807Y401558D01*
X769482Y401195D01*
X769586Y400779D01*
X769534Y398236D01*
X769638Y397821D01*
X769949Y397509D01*
X770468Y397198D01*
X770624Y396731D01*
X770572Y395537D01*
X770624Y394966D01*
X770520Y394655D01*
X770624Y393824D01*
X770883Y393564D01*
X771402Y393253D01*
X771558Y393097D01*
X771662Y392475D01*
X771558Y392163D01*
X771610Y391281D01*
X771506Y390762D01*
X771299Y390554D01*
X770883Y390450D01*
X769274Y390502D01*
X768080Y390450D01*
X767717Y390710D01*
X767406Y391229D01*
X767146Y391488D01*
X766679Y391748D01*
X766575Y392163D01*
X766627Y394810D01*
X766471Y395174D01*
X766212Y395433D01*
X766004Y395537D01*
X765641Y395797D01*
X765537Y396212D01*
X765641Y397146D01*
X765797Y397302D01*
X766004Y397406D01*
X766575Y397873D01*
X766679Y398599D01*
X766575Y399015D01*
X766316Y399378D01*
X765589Y399482D01*
X764759Y399586D01*
X764603Y400053D01*
X764499Y401195D01*
X764343Y401351D01*
X763668Y401714D01*
X763565Y402129D01*
X763461Y403167D01*
X763201Y403427D01*
X762682Y403738D01*
X762526Y404309D01*
X762630Y405659D01*
X762526Y406178D01*
X762267Y406437D01*
X760917Y406333D01*
X760554Y406697D01*
X760658Y407112D01*
X760814Y407268D01*
X761021Y407372D01*
X761592Y407839D01*
X761488Y408358D01*
X761333Y408513D01*
X759931Y408462D01*
X759724Y408565D01*
X759620Y408981D01*
X759516Y410123D01*
X759256Y410382D01*
X758737Y410694D01*
X758426Y411213D01*
X758218Y411316D01*
X758011Y411524D01*
X757803Y411628D01*
X757388Y412251D01*
X757180Y412355D01*
X756713Y412718D01*
X756609Y412925D01*
X756246Y413393D01*
X754896Y413497D01*
X754741Y413652D01*
X754429Y414171D01*
X754170Y414431D01*
X753962Y414535D01*
X753599Y414898D01*
X753495Y415106D01*
X753235Y415365D01*
X752820Y415469D01*
X751159Y415365D01*
X750796Y415625D01*
X750692Y415832D01*
X750329Y416299D01*
X750121Y416403D01*
X749550Y416974D01*
X749446Y417182D01*
X749290Y417337D01*
X749083Y417441D01*
X748823Y417597D01*
X748719Y417805D01*
X748252Y418376D01*
X746903Y418479D01*
X746384Y419310D01*
X745968Y419414D01*
X744930Y419518D01*
X744775Y419673D01*
X744671Y419881D01*
X744307Y420348D01*
X743788Y420659D01*
X743633Y421127D01*
Y422891D01*
X743685Y422943D01*
X743944Y423307D01*
X744359Y423410D01*
X744723Y423462D01*
X745034Y423359D01*
D02*
G37*
G36*
X668317Y403427D02*
X680204Y403479D01*
X680619Y403375D01*
X680826Y403167D01*
X680930Y402752D01*
X680826Y341918D01*
X680671Y341762D01*
X680256Y341659D01*
X658818Y341607D01*
X658299Y341710D01*
X658092Y341918D01*
X657988Y342126D01*
X657624Y342593D01*
X657209Y342697D01*
X655548Y342593D01*
X655081Y342956D01*
X654770Y343475D01*
X654614Y343631D01*
X653264Y343735D01*
X653109Y343890D01*
X652797Y344409D01*
X652642Y344565D01*
X652434Y344669D01*
X651967Y345136D01*
X651863Y345344D01*
X651603Y345603D01*
X651396Y345707D01*
X650929Y346174D01*
X650825Y346382D01*
X650565Y346642D01*
X650358Y346745D01*
X649994Y347109D01*
X649890Y347316D01*
X649527Y347680D01*
X648541Y347628D01*
X648177Y347887D01*
X648022Y348043D01*
X647918Y348251D01*
X647451Y348718D01*
X647243Y348822D01*
X647087Y348977D01*
X646984Y349185D01*
X646517Y349652D01*
X646309Y349756D01*
X646049Y350015D01*
X645946Y350223D01*
X645478Y350690D01*
X645271Y350794D01*
X645011Y351054D01*
X644908Y352299D01*
X644648Y352559D01*
X644440Y352663D01*
X643973Y353130D01*
X643869Y353337D01*
X643610Y353597D01*
X643402Y353701D01*
X642935Y354168D01*
X642831Y354375D01*
X642675Y354531D01*
X642468Y354635D01*
X642001Y355102D01*
X641897Y355310D01*
X641637Y355569D01*
X641430Y355673D01*
X640963Y356140D01*
X640859Y356348D01*
X640599Y356608D01*
X640392Y356711D01*
X640028Y357075D01*
X639925Y357282D01*
X639665Y357542D01*
X639457Y357646D01*
X639094Y357905D01*
X638990Y358320D01*
X639094Y359047D01*
X638731Y359514D01*
X638212Y359826D01*
X637952Y360189D01*
X637796Y360448D01*
X637589Y360552D01*
X637122Y360916D01*
X637018Y361123D01*
X636862Y361383D01*
X636654Y361487D01*
X636447Y361694D01*
X636239Y361798D01*
X635980Y362161D01*
X635824Y362421D01*
X635616Y362525D01*
X635409Y362732D01*
X635201Y362836D01*
X634786Y363459D01*
X634578Y363563D01*
X634111Y363926D01*
X634007Y364342D01*
X634059Y365016D01*
X633903Y365380D01*
X633748Y365535D01*
X632398Y365639D01*
X632139Y365899D01*
X632035Y366106D01*
X631775Y366470D01*
X631568Y366573D01*
X631204Y366833D01*
X631101Y367041D01*
X630841Y367404D01*
X630633Y367508D01*
X630062Y367975D01*
X629958Y369324D01*
X629336Y369740D01*
X629024Y370051D01*
X628920Y370259D01*
X628661Y370518D01*
X628453Y370622D01*
X628090Y370985D01*
X627986Y371193D01*
X627623Y371556D01*
X627156Y371816D01*
X627052Y372231D01*
X626948Y373269D01*
X626688Y373529D01*
X626221Y373788D01*
X626118Y373996D01*
X625754Y374463D01*
X625546Y374567D01*
X624976Y375138D01*
X624872Y375345D01*
X624508Y375605D01*
X624041Y376072D01*
X623937Y376280D01*
X623782Y376436D01*
X623574Y376539D01*
X623003Y377110D01*
X622899Y377318D01*
X622744Y377474D01*
X622225Y377785D01*
X622069Y378252D01*
X621965Y379290D01*
X621809Y379446D01*
X621290Y379758D01*
X621134Y379913D01*
X621031Y380121D01*
X620564Y380588D01*
X620356Y380692D01*
X620096Y380951D01*
X619837Y381418D01*
X619422Y381522D01*
X618383Y381626D01*
X618228Y381782D01*
X618124Y381990D01*
X617761Y382457D01*
X617553Y382561D01*
X617086Y383028D01*
X616982Y383235D01*
X616722Y383495D01*
X616203Y383806D01*
X616048Y384273D01*
X616152Y384585D01*
X616048Y385208D01*
X615892Y385363D01*
X615684Y385467D01*
X615217Y385830D01*
X615113Y386038D01*
X614646Y386505D01*
X614439Y386609D01*
X614179Y386869D01*
X614075Y387076D01*
X613608Y387543D01*
X613400Y387647D01*
X613141Y387907D01*
X612830Y388426D01*
X611480Y388530D01*
X611169Y388841D01*
X610857Y389360D01*
X610701Y389516D01*
X607743Y389464D01*
X607379Y389724D01*
X607016Y390294D01*
X606860Y390450D01*
X606237Y390346D01*
X606082Y389879D01*
X606186Y387595D01*
X606134Y345188D01*
X606341Y344877D01*
X607068Y344462D01*
X607120Y343890D01*
X606860Y343631D01*
X606186Y343268D01*
X606082Y342852D01*
X606186Y341814D01*
X606289Y341503D01*
X606186Y340984D01*
X606030Y340724D01*
X605563Y340672D01*
X605199Y340932D01*
X604836Y341503D01*
X604680Y341659D01*
X604265Y341762D01*
X603538Y341659D01*
X592430Y341762D01*
X592275Y341918D01*
X592171Y342333D01*
X592223Y370933D01*
X592067Y371297D01*
X591808Y371556D01*
X582464Y371453D01*
X582309Y371297D01*
X582205Y370882D01*
X582257Y360137D01*
X582049Y359722D01*
X581323Y359514D01*
X580907Y359618D01*
X579921Y359566D01*
X579506Y359670D01*
X579298Y359878D01*
X579194Y360604D01*
X579298Y361954D01*
X579246Y369065D01*
X579298Y370259D01*
X579039Y370518D01*
X578416Y370415D01*
X578260Y370259D01*
X577949Y369740D01*
X577793Y369584D01*
X577378Y369480D01*
X576028Y369584D01*
X574575Y369480D01*
X574315Y369221D01*
X574004Y368702D01*
X573848Y368546D01*
X572499Y368442D01*
X572343Y368286D01*
X571979Y367612D01*
X571357Y367508D01*
X571045Y367612D01*
X570630Y367508D01*
X570370Y367248D01*
X570267Y367041D01*
X570007Y366677D01*
X569799Y366573D01*
X569332Y366210D01*
X569021Y365691D01*
X568554Y365535D01*
X566841Y365587D01*
X566478Y365328D01*
X566322Y365172D01*
X566218Y364964D01*
X565855Y364601D01*
X565647Y364497D01*
X565284Y364134D01*
X565024Y363667D01*
X564609Y363563D01*
X562896Y363615D01*
X562481Y363407D01*
X562377Y363200D01*
X562014Y362629D01*
X561494Y362525D01*
X561183Y362629D01*
X560664Y362525D01*
X560508Y362369D01*
X560093Y361642D01*
X559626Y361590D01*
X559263Y361954D01*
X559003Y362525D01*
X558588Y362629D01*
X558172Y362525D01*
X557446Y362629D01*
X557290Y363096D01*
X557394Y363303D01*
X557757Y363667D01*
X558276Y363978D01*
X558432Y364549D01*
X558328Y364860D01*
X558224Y366314D01*
X558069Y366470D01*
X557550Y366781D01*
X557290Y367041D01*
X557342Y370933D01*
X557186Y371297D01*
X556927Y371556D01*
X546649Y371453D01*
X546390Y371193D01*
X546286Y370778D01*
X546390Y370051D01*
X546753Y369688D01*
X547272Y369376D01*
X547324Y368805D01*
X547065Y368546D01*
X546649Y368442D01*
X545611Y368546D01*
X507720Y368650D01*
X507460Y369221D01*
X507564Y378252D01*
X507824Y378512D01*
X508654Y378616D01*
X508966Y378512D01*
X547013Y378564D01*
X547324Y378356D01*
X547220Y377733D01*
X546961Y377474D01*
X546442Y377162D01*
X546286Y376695D01*
X546390Y375657D01*
X546286Y375345D01*
X546546Y374671D01*
X547272Y374463D01*
X547999Y374567D01*
X555629Y374515D01*
X556044Y374619D01*
X556252Y374827D01*
X556356Y375242D01*
X556304Y381938D01*
X556511Y382353D01*
X556719Y382457D01*
X557290Y382924D01*
X557394Y383131D01*
X557550Y383391D01*
X558069Y383599D01*
X559418Y383495D01*
X560612Y383547D01*
X561131Y383339D01*
X561494Y382664D01*
X562014Y382457D01*
X562429Y382561D01*
X562948Y382457D01*
X563311Y382093D01*
X563415Y381886D01*
X563882Y381418D01*
X564090Y381315D01*
X564245Y381159D01*
X564349Y380951D01*
X564817Y380484D01*
X565024Y380380D01*
X565284Y380121D01*
X565595Y379602D01*
X566166Y379446D01*
X567204Y379550D01*
X568969Y379446D01*
X569229Y379187D01*
X569332Y378979D01*
X569592Y378616D01*
X569799Y378512D01*
X570163Y378252D01*
X570267Y378045D01*
X570630Y377578D01*
X571045Y377474D01*
X571460Y377578D01*
X571979Y377474D01*
X572135Y377318D01*
X572499Y376643D01*
X572914Y376539D01*
X573952Y376436D01*
X574212Y376176D01*
X574523Y375657D01*
X574990Y375501D01*
X576651Y375605D01*
X577118Y375345D01*
X577222Y375138D01*
X577689Y374567D01*
X578104Y374463D01*
X578831Y374567D01*
X579194Y374930D01*
X579298Y375345D01*
X579194Y376799D01*
X579298Y377110D01*
X579246Y385986D01*
X579402Y386350D01*
X579869Y386505D01*
X581945Y386401D01*
X582205Y386142D01*
X582309Y385415D01*
X582205Y384689D01*
X582309Y374827D01*
X582568Y374567D01*
X583399Y374463D01*
X583710Y374567D01*
X591548Y374515D01*
X592067Y374723D01*
X592275Y375449D01*
X592171Y376488D01*
Y397354D01*
Y397458D01*
X592275Y403167D01*
X592534Y403427D01*
X593261Y403531D01*
X593572Y403427D01*
X610546Y403479D01*
X610909Y403219D01*
X611324Y402492D01*
X611947Y402596D01*
X612466Y403427D01*
X612985Y403323D01*
X613141Y403167D01*
X613504Y402492D01*
X613920Y402389D01*
X615217Y402440D01*
X615477Y402389D01*
X615788Y402492D01*
X616826Y402389D01*
X616982Y402233D01*
X617345Y401558D01*
X617761Y401454D01*
X618799Y401351D01*
X619058Y401091D01*
X619370Y400572D01*
X619837Y400416D01*
X620512Y400468D01*
X620875Y400312D01*
X621031Y400157D01*
X621342Y399638D01*
X621498Y399482D01*
X621706Y399378D01*
X622173Y398911D01*
X622276Y398703D01*
X622432Y398548D01*
X622640Y398444D01*
X623211Y397873D01*
X623315Y397665D01*
X623470Y397509D01*
X623678Y397406D01*
X624145Y396938D01*
X624249Y396731D01*
X624508Y396471D01*
X624716Y396367D01*
X625183Y395900D01*
X625287Y395693D01*
X625443Y395537D01*
X625650Y395433D01*
X626118Y394966D01*
X626221Y394758D01*
X626481Y394499D01*
X626688Y394395D01*
X627156Y393928D01*
X627259Y393720D01*
X627415Y393564D01*
X627623Y393461D01*
X628090Y392994D01*
X628194Y392786D01*
X628453Y392526D01*
X628661Y392423D01*
X629128Y391955D01*
X629232Y391748D01*
X629491Y391488D01*
X629699Y391385D01*
X630062Y391021D01*
X630166Y390813D01*
X630426Y390554D01*
X630633Y390450D01*
X631101Y389983D01*
X631204Y389775D01*
X631464Y389516D01*
X631983Y389204D01*
X632087Y387959D01*
X632346Y387595D01*
X632917Y387232D01*
X633436Y386609D01*
X633644Y386401D01*
X633852Y386298D01*
X634007Y386142D01*
X634111Y385934D01*
X634682Y385363D01*
X634890Y385260D01*
X635149Y384896D01*
X635616Y384429D01*
X635824Y384325D01*
X635980Y384170D01*
X636083Y383962D01*
X636654Y383391D01*
X636862Y383287D01*
X637018Y383131D01*
X637122Y382924D01*
X637277Y382664D01*
X637485Y382561D01*
X638056Y382093D01*
X638160Y380744D01*
X638783Y380328D01*
X639094Y380017D01*
X639198Y379809D01*
X639457Y379550D01*
X639665Y379446D01*
X640028Y379083D01*
X640132Y378875D01*
X640496Y378512D01*
X640703Y378408D01*
X641066Y378045D01*
X641170Y377837D01*
X641430Y377578D01*
X641637Y377474D01*
X642001Y377110D01*
X642105Y376903D01*
X642468Y376539D01*
X642675Y376436D01*
X643039Y376072D01*
X643143Y375865D01*
X643506Y375501D01*
X643973Y375242D01*
X644077Y374619D01*
X643973Y374307D01*
X644077Y373892D01*
X644336Y373633D01*
X644544Y373529D01*
X644908Y373269D01*
X645011Y373062D01*
X645271Y372698D01*
X645478Y372594D01*
X645686Y372387D01*
X645842Y372335D01*
X645946Y372127D01*
X646153Y371920D01*
X646257Y371712D01*
X646620Y371453D01*
X646880Y371297D01*
X646984Y371089D01*
X647347Y370622D01*
X647555Y370518D01*
X647814Y370363D01*
X647918Y370155D01*
X648126Y369947D01*
X648230Y369740D01*
X648593Y369480D01*
X648852Y369324D01*
X648956Y369117D01*
X649164Y368909D01*
X649268Y368702D01*
X649787Y368390D01*
X649890Y368182D01*
X650098Y367975D01*
X650202Y367767D01*
X650358Y367612D01*
X650877Y367300D01*
X651032Y366833D01*
X650981Y366158D01*
X651136Y365795D01*
X651759Y365380D01*
X651967Y365172D01*
X652070Y364964D01*
X652538Y364497D01*
X652745Y364393D01*
X653005Y364134D01*
X653109Y363926D01*
X653472Y363563D01*
X653680Y363459D01*
X653939Y363200D01*
X654043Y362992D01*
X654510Y362525D01*
X654718Y362421D01*
X654977Y362161D01*
X655081Y361954D01*
X655444Y361590D01*
X655652Y361487D01*
X655911Y361227D01*
X656015Y361020D01*
X656482Y360552D01*
X656690Y360448D01*
X656950Y360189D01*
X657054Y359981D01*
X657417Y359618D01*
X657624Y359514D01*
X657988Y359151D01*
X658092Y357801D01*
X658247Y357646D01*
X658715Y357594D01*
X659493Y357646D01*
X659856Y357386D01*
X660272Y356659D01*
X661621Y356556D01*
X661933Y356244D01*
X662244Y355725D01*
X662711Y355569D01*
X664372Y355673D01*
X664943Y355206D01*
X665255Y354687D01*
X665826Y354531D01*
X666552Y354635D01*
X666916Y354998D01*
X667019Y403167D01*
X667279Y403427D01*
X668006Y403531D01*
X668317Y403427D01*
D02*
G37*
G36*
X625650Y325775D02*
X625858Y325672D01*
X626014Y325516D01*
X626118Y325101D01*
X625858Y324737D01*
X625443Y324633D01*
X620460Y324530D01*
X620200Y324270D01*
X620096Y323855D01*
X620200Y323128D01*
X620771Y322557D01*
X620927Y322505D01*
X621031Y322298D01*
X621134Y321986D01*
X621186Y321623D01*
X621083Y321208D01*
X620771Y320896D01*
X620564Y320792D01*
X620304Y320637D01*
X620200Y320221D01*
X620304Y319910D01*
X620667Y319547D01*
X620875Y319443D01*
X621134Y319183D01*
X621031Y318145D01*
X620875Y317886D01*
X620356Y317678D01*
X619422Y317782D01*
X619162Y318041D01*
X619058Y318768D01*
X619162Y319183D01*
X619058Y319910D01*
X619162Y322298D01*
X619058Y322609D01*
X618955Y324374D01*
X618695Y324633D01*
X618020Y324685D01*
X613504Y324633D01*
X613141Y324997D01*
X613245Y325620D01*
X613712Y325775D01*
X614127Y325879D01*
X614543Y325775D01*
X614854D01*
X619785Y325723D01*
X624976Y325827D01*
X625339Y325879D01*
X625650Y325775D01*
D02*
G37*
G36*
X747526Y325672D02*
X747681Y325516D01*
X747785Y325204D01*
X747422Y324737D01*
X746903D01*
X746851Y324789D01*
X746643Y324997D01*
X746540Y325308D01*
X746695Y325672D01*
X747110Y325775D01*
X747526Y325672D01*
D02*
G37*
G36*
X719704D02*
X719860Y325204D01*
X719704Y324841D01*
X719289Y324737D01*
X718874Y324841D01*
X718718Y324997D01*
Y325412D01*
Y325516D01*
X718977Y325775D01*
X719704Y325672D01*
D02*
G37*
G36*
X559211D02*
X559366Y325516D01*
X559263Y324893D01*
X559107Y324737D01*
X558380Y324841D01*
X558224Y325204D01*
Y325308D01*
X558484Y325775D01*
X559211Y325672D01*
D02*
G37*
G36*
X854971Y325775D02*
X855231Y325516D01*
X855127Y324893D01*
X854556Y324633D01*
X853518Y324737D01*
X853362Y324893D01*
X853310Y325256D01*
X853362Y325308D01*
X853466Y325620D01*
X853622Y325775D01*
X854348Y325879D01*
X854971Y325775D01*
D02*
G37*
G36*
X789206Y325723D02*
X789518Y325412D01*
X789414Y324893D01*
X789154Y324633D01*
X784171D01*
X779240Y324685D01*
X778877Y324530D01*
X778617Y324270D01*
X778721Y322090D01*
X778981Y321830D01*
X779396Y321727D01*
X780434Y321830D01*
X787961Y321778D01*
X788376Y322090D01*
X788480Y322298D01*
X788739Y322661D01*
X789154Y322765D01*
X789518Y322505D01*
X789621Y322090D01*
X789518Y321156D01*
X789154Y320792D01*
X788324Y320585D01*
X779136Y320637D01*
X778773Y320481D01*
X778514Y320221D01*
X778410Y319806D01*
X778514Y319287D01*
X778669Y319028D01*
X778877Y318924D01*
X779188Y318820D01*
X788895Y318872D01*
X789414Y318664D01*
X789518Y318249D01*
X789414Y317938D01*
X789154Y317678D01*
X788480Y317626D01*
X778098Y317730D01*
X777735Y317989D01*
X777579Y318145D01*
X777475Y318353D01*
X777008Y318820D01*
X776801Y318924D01*
X776645Y319079D01*
X776437Y319806D01*
X776541Y320117D01*
X776801Y320585D01*
X777008Y320689D01*
X777475Y321052D01*
X777579Y321467D01*
X777475Y322817D01*
X777579Y325308D01*
X777735Y325568D01*
X778254Y325775D01*
X788791Y325827D01*
X789206Y325723D01*
D02*
G37*
G36*
X500401Y325620D02*
X500505Y325308D01*
X500401Y324789D01*
X499934Y324633D01*
X490331Y324685D01*
X489916Y324581D01*
X489605Y324374D01*
X489501Y323959D01*
X489605Y323336D01*
X489345Y322972D01*
X489137Y322869D01*
X488670Y322505D01*
X488774Y321882D01*
X489241Y321727D01*
X490902Y321830D01*
X500245Y321727D01*
X500505Y321467D01*
X500401Y320844D01*
X500245Y320689D01*
X499830Y320585D01*
X489553Y320689D01*
X489241Y320792D01*
X488722Y320481D01*
X488670Y320014D01*
X488826Y319754D01*
X489034Y319650D01*
X489605Y319183D01*
X489864Y318924D01*
X490280Y318820D01*
X499882Y318872D01*
X500401Y318664D01*
X500505Y318353D01*
X500401Y317834D01*
X499934Y317678D01*
X499519Y317574D01*
X499207Y317678D01*
X488670Y317730D01*
X488203Y317678D01*
X487684Y317989D01*
X487528Y318456D01*
X487580Y319443D01*
X487528Y323024D01*
X487632Y323336D01*
X487528Y323647D01*
X487632Y324374D01*
X487892Y324633D01*
X488099Y324737D01*
X488670Y325308D01*
X488774Y325516D01*
X488930Y325672D01*
X489345Y325775D01*
X497650D01*
X499882Y325827D01*
X500401Y325620D01*
D02*
G37*
G36*
X694685Y323491D02*
X695101Y322869D01*
X695308Y322765D01*
X695775Y322401D01*
X695879Y321986D01*
X695827Y320689D01*
X695879Y319806D01*
X695775Y319495D01*
X695879Y319183D01*
X695775Y318041D01*
X695516Y317782D01*
X694789Y317678D01*
X694166Y317782D01*
X693907Y318041D01*
X693803Y318768D01*
X693907Y319806D01*
X693855Y321208D01*
X693907Y322194D01*
X693543Y322557D01*
X693128Y322661D01*
X691156Y322557D01*
X690896Y322401D01*
X690792Y321986D01*
X690844Y320481D01*
X690792Y319183D01*
X690896Y318872D01*
X690792Y318041D01*
X690533Y317782D01*
X689806Y317678D01*
X689183Y317782D01*
X688924Y318041D01*
X688820Y318768D01*
X688924Y319806D01*
X688872Y321104D01*
X688924Y322194D01*
X688768Y322453D01*
X688560Y322557D01*
X688249Y322661D01*
X686173Y322557D01*
X685913Y322401D01*
X685809Y321986D01*
X685861Y320585D01*
X685809Y319183D01*
X685913Y318872D01*
X685809Y318041D01*
X685550Y317782D01*
X684823Y317678D01*
X684200Y317782D01*
X683941Y318041D01*
X683837Y318456D01*
X683941Y319391D01*
Y319495D01*
X683837Y320533D01*
X683889Y322142D01*
X683837Y323232D01*
X684200Y323699D01*
X684927Y323803D01*
X685238Y323699D01*
X686899Y323803D01*
X690689Y323751D01*
X694166Y323803D01*
X694685Y323491D01*
D02*
G37*
G36*
X799016Y323699D02*
X799380Y323439D01*
X799484Y323232D01*
X799847Y322765D01*
X800054Y322661D01*
X800418Y322401D01*
X800522Y321986D01*
X800470Y320481D01*
X800522Y319910D01*
X800418Y319599D01*
X800522Y318872D01*
X800418Y318041D01*
X800158Y317782D01*
X799432Y317678D01*
X798809Y317782D01*
X798653Y317938D01*
X798601Y317989D01*
X798445Y318456D01*
X798549Y320014D01*
X798445Y320325D01*
X798549Y322194D01*
X798186Y322557D01*
X797771Y322661D01*
X793722Y322557D01*
X793463Y322298D01*
X793411Y321830D01*
X793514Y318716D01*
X793566Y318560D01*
X793463Y318249D01*
X793307Y317886D01*
X792788Y317678D01*
X791853Y317782D01*
X791490Y318145D01*
X791542Y319650D01*
X791490Y323336D01*
X791853Y323699D01*
X792476Y323803D01*
X792788Y323699D01*
X794760Y323803D01*
X799016Y323699D01*
D02*
G37*
G36*
X715448D02*
X715707Y323439D01*
X715915Y322920D01*
X716071Y322765D01*
X716486Y322661D01*
X716745Y322505D01*
X716953Y321778D01*
X716849Y321363D01*
X716797Y318820D01*
X716849Y318456D01*
X716590Y317886D01*
X716071Y317678D01*
X715136Y317782D01*
X714877Y318041D01*
X714669Y318768D01*
X714825Y319339D01*
X715136Y319650D01*
X715344Y319754D01*
X715603Y320014D01*
X715707Y320429D01*
X715603Y322505D01*
X715136Y322661D01*
X710050Y322557D01*
X709790Y322298D01*
X709686Y321882D01*
X709790Y320844D01*
X709686Y318041D01*
X709427Y317782D01*
X709011Y317678D01*
X708181Y317782D01*
X707921Y317938D01*
X707714Y318664D01*
X707818Y319702D01*
X707766Y323180D01*
X707921Y323543D01*
X708596Y323803D01*
X709323Y323699D01*
X710361Y323803D01*
X711295D01*
X715448Y323699D01*
D02*
G37*
G36*
X680463D02*
X680930Y323232D01*
X681034Y323024D01*
X681294Y322765D01*
X681501Y322661D01*
X681864Y322298D01*
X681968Y321882D01*
X682020Y318405D01*
X681917Y317989D01*
X681709Y317782D01*
X680982Y317886D01*
X680826Y318041D01*
X680775Y318820D01*
X680878Y320792D01*
X680930Y320844D01*
X680826Y321156D01*
X680723Y321363D01*
X680463Y321727D01*
X680256Y321830D01*
X679996Y322090D01*
X679892Y322298D01*
X679736Y322453D01*
X679529Y322557D01*
X679217Y322661D01*
X677141Y322557D01*
X676882Y322298D01*
X676985Y320014D01*
X676882Y317938D01*
X676726Y317782D01*
X675999Y317886D01*
X675844Y318041D01*
X675792Y318820D01*
X675844Y321259D01*
X675480Y321727D01*
X675273Y321830D01*
X674909Y322194D01*
X674805Y322401D01*
X674650Y322557D01*
X674234Y322661D01*
X672262Y322557D01*
X672002Y322298D01*
X671951Y321727D01*
X672002Y318456D01*
X671691Y317938D01*
X671535Y317782D01*
X671120Y317678D01*
X670653Y317626D01*
X670238Y317730D01*
X670030Y317834D01*
X669926Y318249D01*
X670030Y318456D01*
X670497Y318924D01*
X670705Y319028D01*
X670861Y319495D01*
Y319599D01*
X670809Y321104D01*
X670861Y322194D01*
X670601Y322557D01*
X670393Y322661D01*
X670030Y322920D01*
X669926Y323336D01*
X670030Y323647D01*
X670497Y323803D01*
X672002Y323751D01*
X674961Y323803D01*
X675273Y323699D01*
X679425Y323803D01*
X680463Y323699D01*
D02*
G37*
G36*
X657728D02*
X657884Y323543D01*
X657988Y323128D01*
X657884Y322920D01*
X657624Y322661D01*
X656950Y322609D01*
X653472Y322661D01*
X652901Y322194D01*
X652797Y321986D01*
X652642Y321830D01*
X652434Y321727D01*
X652174Y321467D01*
X652070Y321052D01*
X652019Y319443D01*
X652174Y319079D01*
X652434Y318820D01*
X653057Y318716D01*
X653368Y318820D01*
X657624D01*
X657988Y318456D01*
X657884Y317938D01*
X657624Y317678D01*
X656950Y317626D01*
X651552Y317730D01*
X651188Y317886D01*
X651032Y318041D01*
X650929Y318456D01*
X650981Y322453D01*
X650929Y323128D01*
X651240Y323647D01*
X651655Y323751D01*
X651811Y323803D01*
X652122Y323699D01*
X654718Y323803D01*
X657728Y323699D01*
D02*
G37*
G36*
X593780D02*
X594143Y323336D01*
X594247Y323128D01*
X594714Y322661D01*
X594922Y322557D01*
X595182Y322298D01*
X595285Y321571D01*
X595182Y321259D01*
X595233Y318508D01*
X595130Y318093D01*
X594818Y317782D01*
X594403Y317678D01*
X593572Y317782D01*
X593209Y318145D01*
X593261Y322142D01*
X593002Y322505D01*
X592534Y322661D01*
X588486Y322557D01*
X588226Y322298D01*
X588122Y321882D01*
X588226Y320533D01*
X588122Y318041D01*
X587863Y317782D01*
X587448Y317678D01*
X586617Y317782D01*
X586254Y318041D01*
X586150Y318768D01*
X586254Y319495D01*
Y319910D01*
Y320014D01*
X586202Y323284D01*
X586409Y323595D01*
X587136Y323803D01*
X587551Y323699D01*
X589212Y323803D01*
X593780Y323699D01*
D02*
G37*
G36*
X554954D02*
X555214Y323543D01*
X555318Y323128D01*
X555421Y322194D01*
X555785Y321830D01*
X555993Y321727D01*
X556252Y321571D01*
X556356Y321156D01*
X555993Y320792D01*
X555525Y320533D01*
X555421Y320117D01*
X555577Y319754D01*
X555785Y319650D01*
X556252Y319391D01*
X556460Y318872D01*
X556356Y318249D01*
X556096Y317886D01*
X555577Y317678D01*
X554643Y317782D01*
X554383Y318041D01*
X554280Y318768D01*
X554383Y319079D01*
X554280Y320429D01*
X554383Y321986D01*
X554020Y322557D01*
X553605Y322661D01*
X549660Y322557D01*
X549037Y321934D01*
X548829Y321830D01*
X548466Y321467D01*
X548570Y320948D01*
X548726Y320792D01*
X549245Y320481D01*
X549297Y320014D01*
X549141Y319858D01*
X548622Y319547D01*
X548466Y319391D01*
X548570Y318976D01*
X548829Y318716D01*
X549037Y318612D01*
X549297Y318353D01*
X549193Y317834D01*
X549037Y317678D01*
X548362Y317626D01*
X547843Y317730D01*
X547687Y317886D01*
X547480Y317989D01*
X547324Y318456D01*
X547220Y318872D01*
X547324Y320533D01*
X547220Y321467D01*
X547324Y321778D01*
Y322401D01*
Y322505D01*
X547428Y323439D01*
X547687Y323699D01*
X548259Y323751D01*
X549348Y323699D01*
X549660Y323803D01*
X554954Y323699D01*
D02*
G37*
G36*
X742958Y325775D02*
X743477Y325464D01*
X743633Y325308D01*
X743736Y324893D01*
X743840Y323959D01*
X743996Y323803D01*
X744515Y323699D01*
X744775Y323439D01*
X744671Y322817D01*
X744204Y322661D01*
X743736Y322713D01*
X743581Y323595D01*
X743373Y323803D01*
X742854Y323907D01*
X742595Y324166D01*
X742491Y324374D01*
X741660Y325204D01*
X741764Y325620D01*
X742231Y325775D01*
X742283Y325827D01*
X742646Y325879D01*
X742958Y325775D01*
D02*
G37*
G36*
X729462Y323699D02*
X729722Y323439D01*
X729618Y322817D01*
X729151Y322661D01*
X728684Y322609D01*
X724272Y322661D01*
X723908Y322401D01*
X723701Y321882D01*
X723805Y319287D01*
X723908Y319079D01*
X724168Y318820D01*
X724791Y318716D01*
X725102Y318820D01*
X729462Y318716D01*
X729722Y318456D01*
X729618Y317834D01*
X729151Y317678D01*
X728684Y317626D01*
X723286Y317730D01*
X722766Y318041D01*
X722663Y318768D01*
X722715Y320066D01*
X722663Y320117D01*
X722559Y320429D01*
X722403Y320585D01*
X721884Y320896D01*
X721728Y321363D01*
X722196Y321830D01*
X722403Y321934D01*
X722663Y322194D01*
X722766Y322920D01*
X722870Y323543D01*
X723545Y323803D01*
X729462Y323699D01*
D02*
G37*
G36*
X569073D02*
X569229Y323543D01*
X569280Y323180D01*
X569125Y322817D01*
X568969Y322661D01*
X568294Y322609D01*
X563778Y322661D01*
X563311Y322298D01*
X563207Y321882D01*
X563311Y320533D01*
X563207Y319391D01*
X563571Y318924D01*
X564297Y318716D01*
X564609Y318820D01*
X569073Y318716D01*
X569229Y318560D01*
X569280Y318197D01*
X569125Y317834D01*
X568969Y317678D01*
X568294Y317626D01*
X566374Y317678D01*
X566270D01*
X562740Y317782D01*
X562481Y317938D01*
X562377Y318145D01*
X561910Y318716D01*
X561702Y318820D01*
X561339Y319079D01*
X561235Y319806D01*
X561339Y320533D01*
X561287Y322142D01*
X561494Y322557D01*
X561702Y322661D01*
X562273Y323128D01*
X562377Y323336D01*
X562533Y323595D01*
X563052Y323803D01*
X569073Y323699D01*
D02*
G37*
G36*
X852064D02*
X852324Y323439D01*
X852220Y322920D01*
X851961Y322661D01*
X851234Y322557D01*
X850922Y322661D01*
X848535Y322557D01*
X848379Y322401D01*
X848275Y318145D01*
X847912Y317782D01*
X847081Y317574D01*
X846562Y317782D01*
X846407Y318145D01*
Y318249D01*
X846718Y318768D01*
X847081Y319028D01*
X847237Y319183D01*
X847341Y319806D01*
X847237Y320117D01*
X847185Y322142D01*
X847341Y322505D01*
X847912Y322765D01*
X848120Y322869D01*
X848275Y323024D01*
X848379Y323439D01*
X848535Y323699D01*
X848950Y323803D01*
X852064Y323699D01*
D02*
G37*
G36*
X535230D02*
X535386Y323543D01*
X535282Y322920D01*
X535023Y322661D01*
X534296Y322557D01*
X533984Y322661D01*
X531701Y322557D01*
X531441Y322090D01*
X531545Y320014D01*
X531441Y319702D01*
X531545Y318664D01*
X531441Y318041D01*
X531181Y317782D01*
X530559Y317886D01*
X530403Y318041D01*
Y318145D01*
X530351Y318197D01*
X530299Y322920D01*
X530403Y323232D01*
X530507Y323439D01*
X530766Y323699D01*
X531493Y323803D01*
X535230Y323699D01*
D02*
G37*
G36*
X523188D02*
X523344Y323232D01*
X523240Y322817D01*
X523084Y322661D01*
X522357Y322557D01*
X522046Y322661D01*
X517790Y322557D01*
X517530Y322401D01*
X517323Y321882D01*
X517426Y321467D01*
X517530Y319079D01*
X517686Y318924D01*
X518101Y318820D01*
X523188Y318716D01*
X523396Y318508D01*
X523447Y318456D01*
X523344Y317938D01*
X523084Y317678D01*
X522409Y317626D01*
X517219Y317730D01*
X516855Y317782D01*
X516544Y317678D01*
X515817Y317782D01*
X515558Y317938D01*
X515454Y318353D01*
X515506Y319858D01*
X515454Y322298D01*
X515817Y322661D01*
X516025Y322765D01*
X516492Y323232D01*
X516596Y323439D01*
X516855Y323699D01*
X517271Y323803D01*
X523188Y323699D01*
D02*
G37*
G36*
X843863D02*
X844227Y323439D01*
X844538Y322920D01*
X844694Y322765D01*
X844901Y322661D01*
X845368Y322194D01*
X845265Y321052D01*
X845005Y320792D01*
X844590Y320689D01*
X843552Y320792D01*
X843292Y321363D01*
X843396Y321778D01*
X843292Y322298D01*
X843033Y322557D01*
X842617Y322661D01*
X839970Y322609D01*
X838880Y322661D01*
X838517Y322401D01*
X838413Y322194D01*
X838309Y321882D01*
X838205Y321467D01*
X838465Y321000D01*
X838984Y320792D01*
X840749Y320896D01*
X841268Y320585D01*
X841320Y320117D01*
X840956Y319754D01*
X840282Y319702D01*
X838776Y319754D01*
X838309Y319391D01*
X838413Y318976D01*
X838569Y318820D01*
X838984Y318716D01*
X844123Y318872D01*
X844694Y318924D01*
X845161Y318560D01*
X845265Y318145D01*
X845161Y317938D01*
X845109Y317886D01*
X844901Y317678D01*
X844278Y317574D01*
X843967Y317678D01*
X837738Y317782D01*
X837375Y318145D01*
X837271Y318353D01*
X837115Y318508D01*
X836908Y318612D01*
X836337Y319079D01*
X836441Y319495D01*
X837271Y320014D01*
X837375Y320325D01*
X837012Y320689D01*
X836441Y320948D01*
X836337Y321363D01*
X836804Y321830D01*
X837012Y321934D01*
X837271Y322194D01*
X837375Y323336D01*
X837531Y323595D01*
X838257Y323803D01*
X843863Y323699D01*
D02*
G37*
G36*
X833897D02*
X834157Y323543D01*
X834261Y323336D01*
X834728Y322869D01*
X834935Y322765D01*
X835299Y322505D01*
X835351Y322246D01*
X835143Y321830D01*
X834935Y321727D01*
X834364Y321156D01*
X834261Y320948D01*
X834105Y320792D01*
X833690Y320689D01*
X833482Y320792D01*
X833326Y320948D01*
X833274Y321311D01*
X833378Y321830D01*
X833430Y322194D01*
X833067Y322557D01*
X832652Y322661D01*
X828707Y322557D01*
X828447Y322401D01*
X828240Y321882D01*
X828395Y321104D01*
X828447Y319910D01*
X828343Y319599D01*
X828447Y319079D01*
X828603Y318924D01*
X829018Y318820D01*
X831458Y318768D01*
X833430Y318872D01*
X833586Y318924D01*
X833897Y318820D01*
X834261Y318664D01*
X834364Y318249D01*
X834261Y317938D01*
X834001Y317678D01*
X833326Y317626D01*
X827928Y317730D01*
X827565Y317989D01*
X827305Y318249D01*
X827253Y318405D01*
X827046Y318508D01*
X826838Y318716D01*
X826630Y318820D01*
X826371Y319079D01*
X826475Y319495D01*
X826630Y319650D01*
X827150Y319962D01*
X827305Y320117D01*
X827201Y320637D01*
X826579Y321052D01*
X826371Y321259D01*
X826267Y321675D01*
X826371Y322298D01*
X826734Y322661D01*
X826942Y322765D01*
X827409Y323232D01*
X827513Y323439D01*
X827772Y323699D01*
X828188Y323803D01*
X828395D01*
X833897Y323699D01*
D02*
G37*
G36*
X647555D02*
X647918Y323439D01*
X648230Y322920D01*
X648385Y322765D01*
X648593Y322661D01*
X649060Y322194D01*
X648956Y321052D01*
X648697Y320792D01*
X648281Y320689D01*
X647243Y320792D01*
X647087Y320948D01*
X646984Y321467D01*
X647087Y321778D01*
X646984Y322298D01*
X646724Y322557D01*
X646309Y322661D01*
X643662Y322609D01*
X642468Y322661D01*
X642105Y322298D01*
X642001Y321778D01*
X642105Y321467D01*
X642001Y319391D01*
X642468Y318820D01*
X642883Y318716D01*
X647814Y318872D01*
X648281Y318924D01*
X648593Y318820D01*
X648800Y318716D01*
X648956Y318560D01*
X649060Y318145D01*
X648697Y317678D01*
X648022Y317626D01*
X644233Y317678D01*
X644129D01*
X641326Y317782D01*
X641066Y318041D01*
X640963Y318456D01*
X641066Y323439D01*
X641222Y323595D01*
X641741Y323803D01*
X647555Y323699D01*
D02*
G37*
G36*
X513118D02*
X513481Y323336D01*
X513585Y322298D01*
X513481Y320948D01*
X513326Y320792D01*
X512910Y320689D01*
X512443Y320948D01*
X512391Y321415D01*
X512443Y322194D01*
X512184Y322557D01*
X511768Y322661D01*
X507824Y322557D01*
X507460Y322194D01*
X507356Y321778D01*
X507460Y321259D01*
X507824Y320896D01*
X508343Y320585D01*
X508395Y320117D01*
X508031Y319754D01*
X507512Y319443D01*
X507460Y319183D01*
X507720Y318820D01*
X508135Y318716D01*
X509485Y318820D01*
X509796Y318716D01*
X512080Y318820D01*
X512755Y318872D01*
X513170Y318768D01*
X513378Y318664D01*
X513481Y318249D01*
X513378Y317834D01*
X512910Y317678D01*
X512443Y317626D01*
X511250Y317678D01*
X511146D01*
X506889Y317782D01*
X506526Y318145D01*
X506422Y318353D01*
X506059Y318716D01*
X505851Y318820D01*
X505488Y319183D01*
X505592Y322401D01*
X505851Y322661D01*
X506059Y322765D01*
X506526Y323232D01*
X506630Y323439D01*
X506889Y323699D01*
X507305Y323803D01*
X513118Y323699D01*
D02*
G37*
G36*
X634682D02*
X635045Y323336D01*
X635149Y322920D01*
X635045Y321156D01*
X634578Y320689D01*
X633852Y320585D01*
X633332Y320689D01*
X633073Y320948D01*
X633177Y321467D01*
X633800Y321882D01*
X634007Y322298D01*
X633748Y322661D01*
X633332Y322765D01*
X631983Y322661D01*
X629388Y322557D01*
X628868Y322038D01*
X628661Y321934D01*
X628194Y321467D01*
X628298Y320844D01*
X628765Y320689D01*
X629076Y320792D01*
X629647Y320844D01*
X630010Y320585D01*
X630062Y320117D01*
X629699Y319754D01*
X628349Y319650D01*
X628194Y319495D01*
X628298Y318872D01*
X628972Y318612D01*
X629388Y318716D01*
X631049Y318820D01*
X634422Y318872D01*
X634941Y318664D01*
X635045Y318353D01*
X634941Y317834D01*
X634474Y317678D01*
X634059Y317574D01*
X633748Y317678D01*
X627415Y317782D01*
X627156Y318041D01*
X627052Y318456D01*
X626948Y318664D01*
Y318768D01*
X627052Y320429D01*
X627000Y321830D01*
X627104Y322246D01*
X627259Y322401D01*
X627311Y322557D01*
X627519Y322661D01*
X628194Y323336D01*
X628298Y323543D01*
X628868Y323803D01*
X634682Y323699D01*
D02*
G37*
G36*
X831302Y320689D02*
X831458Y320533D01*
X831354Y320014D01*
X831094Y319754D01*
X830627Y319806D01*
X830575Y319858D01*
X830368Y319962D01*
X830212Y320429D01*
X830471Y320792D01*
X830939Y320844D01*
X831302Y320689D01*
D02*
G37*
G36*
X736625D02*
X736781Y320533D01*
X736677Y320014D01*
X736418Y319754D01*
X735795Y319858D01*
X735639Y320014D01*
X735587Y320377D01*
X735639Y320533D01*
Y320637D01*
X735795Y320792D01*
X736262Y320844D01*
X736625Y320689D01*
D02*
G37*
G36*
X510523Y320585D02*
X510575Y320117D01*
X510419Y319858D01*
X510004Y319754D01*
X509692Y319858D01*
X509537Y320014D01*
X509485Y320273D01*
X509433Y320325D01*
X509692Y320792D01*
X510159Y320844D01*
X510523Y320585D01*
D02*
G37*
G36*
X644752Y320792D02*
X644959Y320585D01*
X645011Y320533D01*
X644908Y320014D01*
X644752Y319858D01*
X644025Y319650D01*
X643506Y319754D01*
X643143Y320117D01*
X643247Y320637D01*
X643402Y320792D01*
X643818Y320896D01*
X644752Y320792D01*
D02*
G37*
G36*
X705845Y323439D02*
X705949Y323024D01*
X705897Y321727D01*
X705949Y318664D01*
X705845Y318353D01*
X705534Y317834D01*
X704963Y317678D01*
X698215Y317782D01*
X697955Y317938D01*
X697748Y318456D01*
X697852Y323439D01*
X698111Y323699D01*
X698734Y323595D01*
X698994Y322920D01*
X698890Y321882D01*
X698994Y319079D01*
X699253Y318820D01*
X699876Y318716D01*
X700187Y318820D01*
X704184Y318768D01*
X704703Y319183D01*
X704807Y319599D01*
X704703Y320637D01*
X704807Y323439D01*
X705067Y323699D01*
X705586D01*
X705845Y323439D01*
D02*
G37*
G36*
X583814Y323699D02*
X584177Y323439D01*
X584281Y323024D01*
X584385Y321986D01*
X584281Y319702D01*
X584385Y318664D01*
X584281Y318353D01*
X584177Y318145D01*
Y318041D01*
X583918Y317782D01*
X583191Y317678D01*
X577430Y317730D01*
X576963Y317678D01*
X576391Y317938D01*
X576184Y318456D01*
X576288Y319287D01*
X576755Y319754D01*
X576963Y319858D01*
X577222Y320117D01*
X577326Y320325D01*
X577585Y320689D01*
X578312Y320896D01*
X578935Y320792D01*
X579194Y320637D01*
X579091Y320014D01*
X578831Y319754D01*
X578312Y319443D01*
X578260Y318976D01*
X578416Y318820D01*
X578831Y318716D01*
X580804Y318820D01*
X582828Y318768D01*
X583139Y319079D01*
X583036Y319495D01*
X582776Y319754D01*
X582568Y319858D01*
X582309Y320117D01*
X582257Y320377D01*
X582568Y320792D01*
X583087Y321104D01*
X583243Y321571D01*
X583139Y322298D01*
X582880Y322557D01*
X582464Y322661D01*
X577014Y322609D01*
X576599Y322713D01*
X576288Y322920D01*
X576391Y323647D01*
X576859Y323803D01*
X583814Y323699D01*
D02*
G37*
G36*
X737975Y323803D02*
X738079D01*
X738494Y323699D01*
X738754Y323128D01*
X738805Y322869D01*
X739324Y322661D01*
X739532Y322557D01*
X739792Y322298D01*
X739688Y320637D01*
X739792Y320325D01*
X739688Y318976D01*
X739584Y317938D01*
X739013Y317678D01*
X737767Y317782D01*
X737456Y317678D01*
X732058Y317782D01*
X731694Y318145D01*
X731590Y318872D01*
X731694Y320221D01*
X732058Y320689D01*
X732784Y320896D01*
X733407Y320792D01*
X733667Y320637D01*
X733771Y320325D01*
X733407Y319858D01*
X733200Y319754D01*
X732836Y319391D01*
X732940Y318872D01*
X733407Y318716D01*
X735068Y318820D01*
X737041Y318716D01*
X737612Y319183D01*
X737767Y319339D01*
X737975Y319443D01*
X738183Y319650D01*
X738390Y319754D01*
X738546Y319910D01*
X738442Y320533D01*
X738286Y320689D01*
X737767Y321000D01*
X737715Y321363D01*
X737975Y321623D01*
X738183Y321727D01*
X738442Y321882D01*
X738650Y322401D01*
X738598Y322661D01*
X738183Y322765D01*
X736833Y322661D01*
X732317Y322609D01*
X731798Y322817D01*
X731694Y323232D01*
X731798Y323543D01*
X732058Y323803D01*
X737923Y323855D01*
X737975Y323803D01*
D02*
G37*
G36*
X747526Y323491D02*
X747785Y323232D01*
X747681Y318041D01*
X747422Y317782D01*
X746799Y317886D01*
X746643Y318041D01*
X746540Y318456D01*
Y319599D01*
Y319702D01*
X746591Y322038D01*
X746540Y323232D01*
X746799Y323595D01*
X747526Y323491D01*
D02*
G37*
G36*
X559211D02*
X559366Y323336D01*
X559470Y322920D01*
X559418Y321623D01*
X559470Y319910D01*
X559366Y319599D01*
X559470Y318872D01*
X559366Y318041D01*
X559107Y317782D01*
X558380Y317886D01*
X558328Y317938D01*
X558224Y318353D01*
X558328Y323439D01*
X558484Y323595D01*
X559211Y323491D01*
D02*
G37*
G36*
X503464Y325568D02*
X503619Y325101D01*
Y323647D01*
Y323543D01*
X503516Y318041D01*
X503256Y317782D01*
X502633Y317886D01*
X502477Y318041D01*
X502374Y318456D01*
X502477Y320429D01*
X502374Y320740D01*
X502477Y324270D01*
X502374Y324581D01*
X502477Y325412D01*
X502737Y325672D01*
X503464Y325568D01*
D02*
G37*
G36*
X855283Y323491D02*
X855438Y322920D01*
X855283Y322246D01*
X855231Y321259D01*
X855283Y321208D01*
X855334Y318249D01*
X854971Y317782D01*
X854244Y317678D01*
X853725Y317782D01*
X853362Y318041D01*
X853258Y318456D01*
X853362Y319287D01*
X853725Y319650D01*
X853933Y319754D01*
X854193Y320014D01*
X854089Y320533D01*
X853725Y320896D01*
X853518Y321000D01*
X853258Y321259D01*
X853154Y321882D01*
X853466Y322401D01*
X853985Y322920D01*
X854089Y323128D01*
X854556Y323595D01*
X855283Y323491D01*
D02*
G37*
G36*
X814069Y323699D02*
X814433Y323336D01*
X814329Y318041D01*
X814225Y317938D01*
X814173Y317886D01*
X813654Y317678D01*
X812823Y317782D01*
X812460Y318041D01*
X812356Y318768D01*
X812460Y319495D01*
X812408Y322972D01*
X812512Y323388D01*
X812823Y323699D01*
X813239Y323803D01*
X814069Y323699D01*
D02*
G37*
G36*
X768184D02*
X768548Y323336D01*
X768651Y323128D01*
X769119Y322661D01*
X769326Y322557D01*
X769586Y322298D01*
Y318249D01*
X769534Y318197D01*
X769222Y317782D01*
X768807Y317678D01*
X767977Y317782D01*
X767717Y317938D01*
X767613Y318353D01*
X767510Y318664D01*
X767613Y318976D01*
X767665Y322038D01*
X767510Y322401D01*
X767042Y322661D01*
X762007Y322713D01*
X761696Y322401D01*
X761800Y321986D01*
X762059Y321727D01*
X762267Y321623D01*
X762526Y321467D01*
X762630Y321156D01*
X762475Y320896D01*
X761800Y320533D01*
X761696Y320117D01*
X761852Y319754D01*
X762059Y319650D01*
X762630Y319183D01*
X762682Y318716D01*
X762578Y318197D01*
X762371Y317886D01*
X761852Y317678D01*
X760917Y317782D01*
X760658Y318041D01*
X760554Y318768D01*
X760606Y319339D01*
X760554Y321052D01*
X760658Y321259D01*
X760554Y321571D01*
X760502Y322557D01*
X760606Y323180D01*
X760814Y323595D01*
X761333Y323803D01*
X768184Y323699D01*
D02*
G37*
G36*
X757180D02*
X757647Y323232D01*
X757751Y323024D01*
X758011Y322765D01*
X758218Y322661D01*
X758582Y322298D01*
X758686Y321882D01*
X758582Y318041D01*
X758426Y317886D01*
X757907Y317678D01*
X751055Y317782D01*
X750692Y318145D01*
X750588Y318353D01*
X750121Y318820D01*
X749913Y318924D01*
X749654Y319183D01*
X749550Y319599D01*
X749654Y320221D01*
X749913Y320481D01*
X749965Y320533D01*
X750484Y320844D01*
X750588Y321259D01*
X750225Y321727D01*
X749706Y322038D01*
X749654Y322401D01*
X749809Y322661D01*
X750536Y323076D01*
X750692Y323232D01*
X750796Y323439D01*
X751055Y323699D01*
X751470Y323803D01*
X757180Y323699D01*
D02*
G37*
G36*
X667487D02*
X667850Y323439D01*
X667954Y323232D01*
X668317Y322765D01*
X668525Y322661D01*
X668992Y322194D01*
X668888Y320221D01*
X668992Y319910D01*
X668888Y319183D01*
X668732Y318924D01*
X668525Y318820D01*
X668110Y318405D01*
X668058Y318353D01*
X667850Y318145D01*
X667746Y317938D01*
X667590Y317782D01*
X667175Y317678D01*
X661206Y317730D01*
X660531Y317678D01*
X660064Y317938D01*
X659960Y318353D01*
X660064Y322401D01*
X660324Y322661D01*
X660531Y322765D01*
X660998Y323232D01*
X661102Y323439D01*
X661362Y323699D01*
X661777Y323803D01*
X667487Y323699D01*
D02*
G37*
G36*
X605822Y325672D02*
X606082Y325412D01*
X606186Y324997D01*
X606134Y323803D01*
X606186Y323751D01*
X606134Y321519D01*
X606186Y321052D01*
X606082Y320740D01*
X606186Y319391D01*
X605874Y318872D01*
X605511Y318612D01*
X605148Y318249D01*
X605044Y318041D01*
X604784Y317782D01*
X604369Y317678D01*
X597517Y317782D01*
X597154Y318145D01*
X597050Y319183D01*
X597154Y322194D01*
X597413Y322557D01*
X597621Y322661D01*
X598296Y323336D01*
X598400Y323543D01*
X598971Y323803D01*
X603954Y323907D01*
X604213Y324166D01*
X604317Y325516D01*
X604473Y325672D01*
X605199Y325775D01*
X605822Y325672D01*
D02*
G37*
G36*
X543950Y323699D02*
X544417Y323232D01*
X544521Y323024D01*
X544885Y322661D01*
X545092Y322557D01*
X545352Y322298D01*
X545456Y321675D01*
X545352Y321363D01*
X545456Y319702D01*
X545352Y318145D01*
X545196Y317886D01*
X544677Y317678D01*
X538552D01*
X537825Y317782D01*
X537566Y317938D01*
X537462Y318145D01*
X536995Y318716D01*
X536787Y318820D01*
X536528Y318976D01*
X536320Y319702D01*
X536424Y320117D01*
X536372Y322142D01*
X536632Y322505D01*
X536891Y322765D01*
X537099Y322869D01*
X537358Y323128D01*
X537462Y323336D01*
X537618Y323595D01*
X538137Y323803D01*
X543950Y323699D01*
D02*
G37*
G36*
X527133Y325672D02*
X527392Y325412D01*
X527496Y324062D01*
X527652Y323907D01*
X528378Y323491D01*
X528430Y323024D01*
X528067Y322661D01*
X527756Y322557D01*
X527392Y322298D01*
Y321052D01*
Y320948D01*
X527444Y318508D01*
X527340Y318093D01*
X527237Y317886D01*
X526717Y317678D01*
X525783Y317782D01*
X525420Y318145D01*
X525472Y322142D01*
X525212Y322505D01*
X524641Y322869D01*
X524486Y323336D01*
X524849Y323803D01*
X525368Y324114D01*
X525524Y324581D01*
X525420Y324997D01*
X525524Y325412D01*
X525783Y325672D01*
X526198Y325775D01*
X527133Y325672D01*
D02*
G37*
G36*
X864003Y323699D02*
X864158Y323543D01*
X864418Y322869D01*
X865300Y322401D01*
X865404Y321675D01*
X865300Y321259D01*
X865248Y319547D01*
X865456Y319028D01*
X866131Y318560D01*
X866235Y318145D01*
X866131Y317938D01*
X865871Y317678D01*
X865300Y317626D01*
X864781Y317730D01*
X864418Y317989D01*
X864262Y318145D01*
X864158Y319183D01*
X864055Y322505D01*
X863899Y322661D01*
X858605Y322557D01*
X858345Y322298D01*
X858241Y321778D01*
X858345Y321467D01*
X858241Y317938D01*
X858085Y317782D01*
X857359Y317886D01*
X857203Y318041D01*
X857099Y318768D01*
X857203Y319495D01*
X857307Y323439D01*
X857463Y323595D01*
X857982Y323803D01*
X859746D01*
X864003Y323699D01*
D02*
G37*
G36*
X822997D02*
X823360Y323336D01*
X823464Y323128D01*
X823931Y322661D01*
X824139Y322557D01*
X824398Y322298D01*
X824502Y321571D01*
X824450Y319339D01*
X824710Y318976D01*
X824969Y318716D01*
X825177Y318612D01*
X825333Y318456D01*
X825437Y318145D01*
X825073Y317678D01*
X824502Y317626D01*
X823879Y317730D01*
X823516Y317989D01*
X823464Y318145D01*
X823412Y318197D01*
X823308Y319339D01*
X823257Y320221D01*
X823360Y320533D01*
X823257Y321363D01*
X821959Y322661D01*
X817703Y322557D01*
X817443Y322090D01*
X817495Y320377D01*
X817443Y319287D01*
X817547Y318976D01*
X817443Y318041D01*
X817184Y317782D01*
X816457Y317886D01*
X816301Y318353D01*
X816405Y323336D01*
X816768Y323699D01*
X817495Y323803D01*
X822997Y323699D01*
D02*
G37*
G36*
X742024D02*
X742595Y323232D01*
X742698Y323024D01*
X743062Y322661D01*
X743477Y322557D01*
X743633Y322401D01*
X743736Y320740D01*
X743633Y318145D01*
X743269Y317782D01*
X742854Y317678D01*
X742387Y317626D01*
X741972Y317730D01*
X741660Y318041D01*
X741764Y318456D01*
X742127Y318820D01*
X742335Y318924D01*
X742595Y319183D01*
X742698Y319702D01*
X742595Y320014D01*
X742646Y321000D01*
X742439Y321519D01*
X741816Y322142D01*
X741608Y322246D01*
X741193Y322661D01*
X740985Y322765D01*
X740726Y323024D01*
Y323232D01*
X740674Y323284D01*
X740622Y323336D01*
X740985Y323803D01*
X742024Y323699D01*
D02*
G37*
G36*
X719704Y323491D02*
X719860Y323024D01*
X719756Y319599D01*
Y319495D01*
X720067Y318976D01*
X720223Y318820D01*
X720431Y318716D01*
X720690Y318456D01*
X720794Y318145D01*
X720431Y317678D01*
X719756Y317626D01*
X719237Y317730D01*
X719081Y317886D01*
X718874Y317989D01*
X718718Y318456D01*
X718614Y319183D01*
X718718Y323336D01*
X718977Y323595D01*
X719704Y323491D01*
D02*
G37*
G36*
X638731Y325672D02*
X638886Y325516D01*
X639094Y324997D01*
X638990Y323336D01*
X639094Y322609D01*
X638990Y322298D01*
Y322194D01*
Y322090D01*
X639094Y320325D01*
X638834Y319962D01*
X638315Y319650D01*
X638160Y319495D01*
X638264Y318976D01*
X638523Y318716D01*
X638731Y318612D01*
X638990Y318353D01*
X639042Y318093D01*
X638783Y317730D01*
X638367Y317626D01*
X638108Y317574D01*
X637796Y317678D01*
X637381Y317782D01*
X637122Y318041D01*
X636914Y318872D01*
X637122Y320740D01*
X637018Y321052D01*
X637070Y324114D01*
X637018Y325204D01*
X637381Y325672D01*
X637796Y325775D01*
X638731Y325672D01*
D02*
G37*
G36*
X875837Y323699D02*
X876201Y323336D01*
X876304Y322298D01*
X876253Y318612D01*
X876304Y316484D01*
X875941Y315809D01*
X875526Y315706D01*
X874488Y315602D01*
X874228Y315342D01*
X874124Y315135D01*
X873761Y314771D01*
X873346Y314667D01*
X872723Y314771D01*
X872360Y315135D01*
X872256Y315342D01*
X871996Y315602D01*
X871685Y315706D01*
X871114Y315238D01*
X871010Y315031D01*
X870751Y314771D01*
X870231Y314667D01*
X869920Y314771D01*
X868467Y314875D01*
X868311Y315031D01*
X868207Y315446D01*
X868311Y316484D01*
X868467Y316640D01*
X868882Y316744D01*
X869193Y316847D01*
X869505Y316744D01*
X872360Y316796D01*
X874488Y316744D01*
X874903Y316951D01*
X874955Y317003D01*
X875266Y317730D01*
X875111Y318301D01*
X874799Y318612D01*
X874384Y318716D01*
X873346Y318612D01*
X868674Y318716D01*
X868311Y318976D01*
X868207Y319391D01*
X868103Y320429D01*
X868207Y323232D01*
X868570Y323699D01*
X869297Y323803D01*
X875837Y323699D01*
D02*
G37*
G36*
X809190D02*
X809346Y323543D01*
X809605Y322869D01*
X810124Y322661D01*
X810332Y322557D01*
X810488Y322401D01*
X810592Y321986D01*
X810540Y320792D01*
X810592Y320221D01*
X810488Y319910D01*
X810540Y317678D01*
X810436Y316225D01*
X810124Y315809D01*
X809709Y315706D01*
X808775Y315602D01*
X808411Y315238D01*
X808308Y315031D01*
X808048Y314771D01*
X807477Y314719D01*
X802806Y314823D01*
X802494Y315135D01*
X802390Y315550D01*
X802494Y316380D01*
X802858Y316744D01*
X807840D01*
X808982Y316847D01*
X809346Y317211D01*
X809449Y317626D01*
X809346Y318353D01*
X809086Y318612D01*
X808360Y318716D01*
X807944Y318612D01*
X802858Y318716D01*
X802494Y319079D01*
X802390Y319495D01*
X802494Y323336D01*
X802858Y323699D01*
X803273Y323803D01*
X809190Y323699D01*
D02*
G37*
G36*
X779240Y139381D02*
X779448Y139173D01*
X779500Y139017D01*
X779552Y138966D01*
X779448Y138550D01*
X779292Y138395D01*
X778565Y138187D01*
X777891Y138343D01*
X777579Y138654D01*
X777683Y139173D01*
X777943Y139433D01*
X778669Y139537D01*
X779240Y139381D01*
D02*
G37*
%LPC*%
G36*
X755934Y322661D02*
X751886Y322557D01*
X751626Y322298D01*
X751730Y320533D01*
X751626Y320221D01*
X751522Y319495D01*
X751834Y318976D01*
X752509Y318716D01*
X752924Y318820D01*
X756921Y318768D01*
X757284Y318924D01*
X757543Y319183D01*
X757595Y319650D01*
X757543Y320637D01*
X757647Y320948D01*
X757232Y321675D01*
X757180Y321727D01*
X756817Y321986D01*
X756713Y322194D01*
X756350Y322557D01*
X755934Y322661D01*
D02*
G37*
G36*
X666241D02*
X662192Y322557D01*
X661933Y322298D01*
X661829Y321882D01*
X661933Y321156D01*
X661881Y319443D01*
X662036Y319079D01*
X662192Y318924D01*
X662607Y318820D01*
X666189Y318768D01*
X666604Y318872D01*
X667019Y319287D01*
Y319702D01*
Y319806D01*
X666916Y320844D01*
X667019Y322194D01*
X666656Y322557D01*
X666241Y322661D01*
D02*
G37*
G36*
X603538D02*
X599490Y322557D01*
X598296Y321363D01*
X598192Y320948D01*
X598296Y320014D01*
X598192Y319702D01*
X598296Y319183D01*
X598452Y318924D01*
X598971Y318716D01*
X599697Y318820D01*
X603383Y318768D01*
X603435Y318820D01*
X603850Y318924D01*
X604109Y319079D01*
X604213Y319495D01*
X604161Y320896D01*
X604213Y322194D01*
X603954Y322557D01*
X603538Y322661D01*
D02*
G37*
G36*
X542705D02*
X538656Y322557D01*
X538396Y322298D01*
X538293Y321882D01*
Y321571D01*
Y321467D01*
X538396Y321156D01*
X538344Y319339D01*
X538604Y318976D01*
X539279Y318716D01*
X539694Y318820D01*
X543587Y318768D01*
X544106Y318976D01*
X544417Y319702D01*
X544262Y320273D01*
X544002Y320637D01*
X543639Y320896D01*
X543379Y321156D01*
X543431Y322142D01*
X543172Y322505D01*
X542705Y322661D01*
D02*
G37*
G36*
X874488D02*
X869609Y322557D01*
X869349Y322298D01*
X869245Y321882D01*
X869349Y321052D01*
X869245Y320740D01*
X869349Y320117D01*
X869609Y319858D01*
X870024Y319754D01*
X871685Y319858D01*
X874643Y319806D01*
X875163Y320221D01*
X875059Y322401D01*
X874903Y322557D01*
X874799D01*
X874488Y322661D01*
D02*
G37*
G36*
X809086D02*
X803792Y322557D01*
X803532Y322298D01*
X803480Y321830D01*
X803532Y320740D01*
X803428Y320533D01*
X803688Y319962D01*
X803896Y319858D01*
X804207Y319754D01*
X806179Y319858D01*
X808152Y319754D01*
X808256D01*
X809086Y319858D01*
X809346Y320117D01*
X809449Y320844D01*
X809346Y321156D01*
X809242Y322505D01*
X809086Y322661D01*
D02*
G37*
%LPD*%
D10*
X1281749Y801120D02*
G03*
X1281749Y801120I-1000J0D01*
G01*
X558380Y1011068D02*
G03*
X558380Y1011068I-1000J0D01*
G01*
X175735Y1034051D02*
G03*
X175735Y1034051I-1000J0D01*
G01*
X330805Y1081524D02*
G03*
X343505Y1081524I6350J0D01*
G01*
X167780Y156598D02*
G03*
X180480Y156598I6350J0D01*
G01*
X685934Y-151195D02*
G03*
X685934Y-151195I-1000J0D01*
G01*
X627844Y1046697D02*
G03*
X627844Y1046697I-1000J0D01*
G01*
X682748Y1175832D02*
G03*
X670048Y1175832I-6350J0D01*
G01*
X835769Y109471D02*
G03*
X835769Y109471I-1000J0D01*
G01*
X871994Y32792D02*
G03*
X884695Y32792I6350J0D01*
G01*
X1090039Y1134094D02*
G03*
X1090039Y1134094I-1000J0D01*
G01*
X1283019Y1057660D02*
G03*
X1283019Y1057660I-1000J0D01*
G01*
X923667Y908678D02*
G03*
X923667Y908678I-1000J0D01*
G01*
X886470Y867960D02*
G03*
X886470Y867960I-1000J0D01*
G01*
X1027433Y962259D02*
G03*
X1040133Y962259I6350J0D01*
G01*
X449021Y92157D02*
G03*
X461721Y92157I6350J0D01*
G01*
X673493Y674611D02*
G03*
X660792Y674611I-6350J0D01*
G01*
X1256932Y109199D02*
G03*
X1256932Y109199I-1000J0D01*
G01*
X1185227Y151683D02*
G03*
X1197927Y151683I6350J0D01*
G01*
X829409Y946475D02*
G03*
X829409Y946475I-1000J0D01*
G01*
X1285559Y926850D02*
G03*
X1285559Y926850I-1000J0D01*
G01*
X1169684Y710369D02*
G03*
X1169684Y710369I-1000J0D01*
G01*
X723668Y2679D02*
Y12679D01*
X738169Y2679D02*
Y12679D01*
X502087Y560709D02*
Y587410D01*
Y560709D02*
X659588D01*
Y587410D01*
X502087D02*
X659588D01*
X749431Y556253D02*
Y582953D01*
Y556253D02*
X906931D01*
Y582953D01*
X749431D02*
X906931D01*
X380073Y586055D02*
Y608055D01*
X315073D02*
X380073D01*
X315073Y586055D02*
Y608055D01*
Y586055D02*
X380073D01*
X522540Y123976D02*
X532540D01*
X522540Y138476D02*
X532540D01*
X425907Y1051568D02*
Y1061568D01*
X440407Y1051568D02*
Y1061568D01*
X528157Y736517D02*
X570658D01*
X310655Y884524D02*
Y1081524D01*
X363655Y884524D02*
Y1081524D01*
X310655D02*
X330805D01*
X343505D02*
X363655D01*
X310655Y884524D02*
X363655D01*
X169609Y641321D02*
Y740321D01*
X227109D01*
Y641321D02*
Y740321D01*
X169609Y641321D02*
X227109D01*
X254398Y815143D02*
Y825143D01*
X268898Y815143D02*
Y825143D01*
X186933Y820484D02*
Y830484D01*
X201434Y820484D02*
Y830484D01*
X324952Y800619D02*
Y810619D01*
X339452Y800619D02*
Y810619D01*
X532540Y1076031D02*
Y1086031D01*
X546540Y1076031D02*
Y1086031D01*
X436863Y813576D02*
Y824576D01*
X418863Y813576D02*
Y824576D01*
X428202Y938118D02*
Y948118D01*
X442703Y938118D02*
Y948118D01*
X40926Y1001359D02*
Y1012360D01*
X58926Y1001359D02*
Y1012360D01*
X319576Y732468D02*
X351576D01*
Y667469D02*
Y732468D01*
X319576Y667469D02*
X351576D01*
X319576D02*
Y732468D01*
X119445Y831451D02*
Y841451D01*
X133945Y831451D02*
Y841451D01*
X113197Y911593D02*
Y921593D01*
X99698Y911593D02*
Y921593D01*
X49425Y835760D02*
Y845760D01*
X63926Y835760D02*
Y845760D01*
X59770Y916496D02*
Y927496D01*
X41770Y916496D02*
Y927496D01*
X376705Y1148582D02*
Y1158582D01*
X391206Y1148582D02*
Y1158582D01*
X93492Y1021037D02*
Y1031037D01*
X107992Y1021037D02*
Y1031037D01*
X500099Y871065D02*
Y881065D01*
X514099Y871065D02*
Y881065D01*
X147630Y-40402D02*
Y156598D01*
X200630Y-40402D02*
Y156598D01*
X147630D02*
X167781D01*
X180481D02*
X200630D01*
X147630Y-40402D02*
X200630D01*
X341758Y59595D02*
Y69595D01*
X355758Y59595D02*
Y69595D01*
X65107Y146755D02*
X75107D01*
X65107Y160755D02*
X75107D01*
X58554Y-4874D02*
Y6127D01*
X76553Y-4874D02*
Y6127D01*
X43418Y78278D02*
Y89279D01*
X25418Y78278D02*
Y89279D01*
X268408Y-144396D02*
Y-134396D01*
X282408Y-144396D02*
Y-134396D01*
X190793Y-122221D02*
Y-112221D01*
X204793Y-122221D02*
Y-112221D01*
X273025Y64565D02*
Y74565D01*
X259025Y64565D02*
Y74565D01*
X270114Y-31813D02*
Y-21813D01*
X284114Y-31813D02*
Y-21813D01*
X922915Y1244436D02*
Y1343437D01*
X865414Y1244436D02*
X922915D01*
X865414D02*
Y1343437D01*
X922915D01*
X702898Y1175832D02*
Y1372832D01*
X649899Y1175832D02*
Y1372832D01*
X682748Y1175832D02*
X702898D01*
X649899D02*
X670048D01*
X649899Y1372832D02*
X702898D01*
X415658Y1232520D02*
Y1331520D01*
X473158D01*
Y1232520D02*
Y1331520D01*
X415658Y1232520D02*
X473158D01*
X383126Y1441185D02*
X394126D01*
X383126Y1423185D02*
X394126D01*
X652956Y1443158D02*
X662417D01*
X652956Y1427157D02*
X662417D01*
X467858Y1423185D02*
X478857D01*
X467858Y1441185D02*
X478857D01*
X562008Y1425186D02*
X572008D01*
X562008Y1439185D02*
X572008D01*
X765931Y1444644D02*
X775392D01*
X765931Y1428644D02*
X775392D01*
X782604Y1321728D02*
X792065D01*
X782604Y1305728D02*
X792065D01*
X884853Y1438699D02*
X894314D01*
X884853Y1422698D02*
X894314D01*
X543215Y1287581D02*
X552676D01*
X543215Y1271580D02*
X552676D01*
X477172Y1140124D02*
X486633D01*
X477172Y1124123D02*
X486633D01*
X542817Y1206675D02*
X552278D01*
X542817Y1190674D02*
X552278D01*
X536168Y1350375D02*
X546168D01*
X536168Y1365376D02*
X546168D01*
X764574Y1229936D02*
Y1239936D01*
X779574Y1229936D02*
Y1239936D01*
X851845Y-164208D02*
Y32792D01*
X904845Y-164208D02*
Y32792D01*
X851845D02*
X871995D01*
X884695D02*
X904845D01*
X851845Y-164208D02*
X904845D01*
X1158428Y1009062D02*
X1200929D01*
X790207Y1116696D02*
X832707D01*
X1007283Y765258D02*
Y962259D01*
X1060283Y765258D02*
Y962259D01*
X1007283D02*
X1027433D01*
X1040133D02*
X1060283D01*
X1007283Y765258D02*
X1060283D01*
X428870Y-104844D02*
Y92157D01*
X481870Y-104844D02*
Y92157D01*
X428870D02*
X449021D01*
X461721D02*
X481870D01*
X428870Y-104844D02*
X481870D01*
X694142Y674612D02*
Y874612D01*
X640142Y674612D02*
Y874612D01*
X673492Y674612D02*
X694142D01*
X640142D02*
X660792D01*
X640142Y874612D02*
X694142D01*
X56862Y655468D02*
X99363D01*
X1165078Y-45317D02*
Y151683D01*
X1218077Y-45317D02*
Y151683D01*
X1165078D02*
X1185227D01*
X1197927D02*
X1218077D01*
X1165078Y-45317D02*
X1218077D01*
X614739Y-49408D02*
X657239D01*
X424606Y665256D02*
Y739255D01*
X482106D01*
Y665256D02*
Y739255D01*
X424606Y665256D02*
X482106D01*
X826293Y678978D02*
Y752978D01*
X768793Y678978D02*
X826293D01*
X768793D02*
Y752978D01*
X826293D01*
X1192345Y855404D02*
Y865404D01*
X1206845Y855404D02*
Y865404D01*
X1129005Y880720D02*
Y890720D01*
X1143505Y880720D02*
Y890720D01*
X1077057Y672465D02*
Y682465D01*
X1092058Y672465D02*
Y682465D01*
X950622Y680747D02*
Y691747D01*
X932622Y680747D02*
Y691747D01*
X1014416Y675001D02*
Y685001D01*
X1028916Y675001D02*
Y685001D01*
X1300977Y1122427D02*
X1311977D01*
X1300977Y1104427D02*
X1311977D01*
X995682Y1032227D02*
Y1042227D01*
X1010182Y1032227D02*
Y1042227D01*
X905660Y1115994D02*
X916660D01*
X905660Y1097994D02*
X916660D01*
X858074Y1190771D02*
X869075D01*
X858074Y1172771D02*
X869075D01*
X974544Y1171739D02*
Y1182739D01*
X956543Y1171739D02*
Y1182739D01*
X1131472Y785136D02*
Y795136D01*
X1146473Y785136D02*
Y795136D01*
X1203084Y759836D02*
Y770836D01*
X1185084Y759836D02*
Y770836D01*
X983908Y87663D02*
Y97663D01*
X969408Y87663D02*
Y97663D01*
X987945Y-2617D02*
Y8383D01*
X969945Y-2617D02*
Y8383D01*
X617271Y122276D02*
X627271D01*
X617271Y137276D02*
X627271D01*
X752739Y73976D02*
Y84976D01*
X770740Y73976D02*
Y84976D01*
X674466Y72190D02*
Y82190D01*
X688966Y72190D02*
Y82190D01*
X1054250Y3098D02*
Y14099D01*
X1036250Y3098D02*
Y14099D01*
X1031677Y112844D02*
Y123844D01*
X1049677Y112844D02*
Y123844D01*
X1109464Y125809D02*
Y135809D01*
X1095464Y125809D02*
Y135809D01*
X1116071Y42094D02*
Y52094D01*
X1102071Y42094D02*
Y52094D01*
X718297Y-86443D02*
Y-76982D01*
X702296Y-86443D02*
Y-76982D01*
X790174Y-191243D02*
Y-180243D01*
X772174Y-191243D02*
Y-180243D01*
X767457Y-85300D02*
Y-75839D01*
X783458Y-85300D02*
Y-75839D01*
X715621Y-194172D02*
Y-184172D01*
X730121Y-194172D02*
Y-184172D01*
X1309671Y-2767D02*
Y8234D01*
X1291671Y-2767D02*
Y8234D01*
X1184578Y-121009D02*
Y-111009D01*
X1198578Y-121009D02*
Y-111009D01*
X990768Y-180454D02*
Y-170454D01*
X976267Y-180454D02*
Y-170454D01*
X1031033Y-105238D02*
Y-95238D01*
X1045534Y-105238D02*
Y-95238D01*
X964021Y-80605D02*
Y-70605D01*
X978521Y-80605D02*
Y-70605D01*
X569825Y56403D02*
Y66403D01*
X555825Y56403D02*
Y66403D01*
X467988Y-173395D02*
Y-163395D01*
X481988Y-173395D02*
Y-163395D01*
X540522Y-139041D02*
Y-129041D01*
X554523Y-139041D02*
Y-129041D01*
X548966Y-23619D02*
Y-13619D01*
X562966Y-23619D02*
Y-13619D01*
X1101125Y-172452D02*
Y-162452D01*
X1115125Y-172452D02*
Y-162452D01*
X1045048Y-177353D02*
Y-167353D01*
X1059048Y-177353D02*
Y-167353D01*
X1089693Y-64774D02*
Y-54774D01*
X1103693Y-64774D02*
Y-54774D01*
X398608Y-168777D02*
Y-157777D01*
X416608Y-168777D02*
Y-157777D01*
X351787Y-155984D02*
Y-144984D01*
X333787Y-155984D02*
Y-144984D01*
X344066Y-45459D02*
Y-35459D01*
X358567Y-45459D02*
Y-35459D01*
D11*
X498487Y574059D02*
G03*
X498487Y574059I-1250J0D01*
G01*
X745831Y569603D02*
G03*
X745831Y569603I-1250J0D01*
G01*
X385573Y597055D02*
G03*
X385573Y597055I-1250J0D01*
G01*
X300305Y1072224D02*
G03*
X300305Y1072224I-1250J0D01*
G01*
X193859Y636071D02*
G03*
X193859Y636071I-1250J0D01*
G01*
X302327Y734969D02*
G03*
X302327Y734969I-1250J0D01*
G01*
X137280Y147298D02*
G03*
X137280Y147298I-1250J0D01*
G01*
X901164Y1348687D02*
G03*
X901164Y1348687I-1250J0D01*
G01*
X715748Y1185132D02*
G03*
X715748Y1185132I-1250J0D01*
G01*
X439908Y1227271D02*
G03*
X439908Y1227271I-1250J0D01*
G01*
X841495Y23491D02*
G03*
X841495Y23491I-1250J0D01*
G01*
X996933Y952959D02*
G03*
X996933Y952959I-1250J0D01*
G01*
X418521Y82857D02*
G03*
X418521Y82857I-1250J0D01*
G01*
X706492Y673211D02*
G03*
X706492Y673211I-1250J0D01*
G01*
X1154727Y142383D02*
G03*
X1154727Y142383I-1250J0D01*
G01*
X449355Y658505D02*
G03*
X449355Y658505I-1250J0D01*
G01*
X804043Y759727D02*
G03*
X804043Y759727I-1250J0D01*
G01*
D12*
X591908Y770517D02*
G03*
X591908Y770517I-42500J0D01*
G01*
X1222178Y975062D02*
G03*
X1222178Y975062I-42500J0D01*
G01*
X853957Y1082696D02*
G03*
X853957Y1082696I-42500J0D01*
G01*
X120612Y689469D02*
G03*
X120612Y689469I-42500J0D01*
G01*
X678489Y-15408D02*
G03*
X678489Y-15408I-42500J0D01*
G01*
D13*
X323655Y1071524D02*
G03*
X323655Y1071524I-3000J0D01*
G01*
X160630Y146598D02*
G03*
X160630Y146598I-3000J0D01*
G01*
X695898Y1185832D02*
G03*
X695898Y1185832I-3000J0D01*
G01*
X864845Y22792D02*
G03*
X864845Y22792I-3000J0D01*
G01*
X1020283Y952259D02*
G03*
X1020283Y952259I-3000J0D01*
G01*
X441871Y82157D02*
G03*
X441871Y82157I-3000J0D01*
G01*
X687142Y684611D02*
G03*
X687142Y684611I-3000J0D01*
G01*
X1178077Y141683D02*
G03*
X1178077Y141683I-3000J0D01*
G01*
D14*
X280819Y1420748D02*
X386885Y1314682D01*
X68687Y1208616D02*
X174753Y1102550D01*
X68687Y1208616D02*
X280819Y1420748D01*
X174753Y1102550D02*
X386885Y1314682D01*
X1208298Y1102550D02*
X1314364Y1208616D01*
X996166Y1314682D02*
X1102232Y1420748D01*
X1314364Y1208616D01*
X996166Y1314682D02*
X1208298Y1102550D01*
X108283Y546890D02*
X248750D01*
Y253086D02*
Y546890D01*
X108283Y253086D02*
X248750D01*
X108283D02*
Y546890D01*
X1120854Y548327D02*
X1261321D01*
X1120854Y254523D02*
X1261321D01*
Y548327D01*
X1120854Y254523D02*
Y548387D01*
X753140Y-367D02*
Y9789D01*
X758218Y14868D01*
X763297Y9789D01*
Y-367D01*
Y7250D01*
X753140D01*
X768375Y-367D02*
X773453D01*
X770914D01*
Y14868D01*
X768375Y12328D01*
X791228Y14868D02*
X786149Y12328D01*
X781071Y7250D01*
Y2172D01*
X783610Y-367D01*
X788688D01*
X791228Y2172D01*
Y4711D01*
X788688Y7250D01*
X781071D01*
X1238612Y821447D02*
Y811290D01*
X1243690Y806212D01*
X1248769Y811290D01*
Y821447D01*
X1253847Y806212D02*
Y821447D01*
X1261464D01*
X1264004Y818908D01*
Y813829D01*
X1261464Y811290D01*
X1253847D01*
X1258925D02*
X1264004Y806212D01*
X1279239Y821447D02*
X1274160Y818908D01*
X1269082Y813829D01*
Y808751D01*
X1271621Y806212D01*
X1276700D01*
X1279239Y808751D01*
Y811290D01*
X1276700Y813829D01*
X1269082D01*
X233213Y663636D02*
X238545D01*
X241210Y659637D02*
X243876D01*
X242543D01*
Y667635D01*
X241210Y666302D01*
X253206Y659637D02*
X247875D01*
X253206Y664969D01*
Y666302D01*
X251873Y667635D01*
X249208D01*
X247875Y666302D01*
X255872Y667635D02*
Y662303D01*
X258538Y659637D01*
X261204Y662303D01*
Y667635D01*
X239276Y694441D02*
X237943Y695774D01*
X235277D01*
X233944Y694441D01*
Y689109D01*
X235277Y687777D01*
X237943D01*
X239276Y689109D01*
Y691775D01*
X236610D01*
X241942Y687777D02*
Y695774D01*
X247273Y687777D01*
Y695774D01*
X249939D02*
Y687777D01*
X253938D01*
X255271Y689109D01*
Y694441D01*
X253938Y695774D01*
X249939D01*
X233213Y718125D02*
X238544D01*
X235879Y720791D02*
Y715459D01*
X241210Y714126D02*
X243876D01*
X242543D01*
Y722124D01*
X241210Y720791D01*
X253206Y714126D02*
X247875D01*
X253206Y719458D01*
Y720791D01*
X251873Y722124D01*
X249208D01*
X247875Y720791D01*
X255872Y722124D02*
Y716792D01*
X258538Y714126D01*
X261204Y716792D01*
Y722124D01*
X478343Y1312779D02*
X480676D01*
X479509D01*
Y1305781D01*
X478343D01*
X480676D01*
X484174D02*
Y1312779D01*
X487673D01*
X488840Y1311612D01*
Y1309280D01*
X487673Y1308114D01*
X484174D01*
X486507D02*
X488840Y1305781D01*
X483424Y1279815D02*
X482258Y1280982D01*
X479925D01*
X478759Y1279815D01*
Y1275150D01*
X479925Y1273984D01*
X482258D01*
X483424Y1275150D01*
Y1277483D01*
X481092D01*
X485757Y1273984D02*
Y1280982D01*
X490422Y1273984D01*
Y1280982D01*
X492755D02*
Y1273984D01*
X496253D01*
X497420Y1275150D01*
Y1279815D01*
X496253Y1280982D01*
X492755D01*
X484121Y1261449D02*
X478789D01*
Y1257450D01*
X481455Y1258783D01*
X482788D01*
X484121Y1257450D01*
Y1254784D01*
X482788Y1253451D01*
X480122D01*
X478789Y1254784D01*
X486787Y1261449D02*
Y1256117D01*
X489453Y1253451D01*
X492118Y1256117D01*
Y1261449D01*
X929674Y1269657D02*
X932339D01*
X931007D01*
Y1261660D01*
X929674D01*
X932339D01*
X936338D02*
Y1269657D01*
X940337D01*
X941670Y1268325D01*
Y1265659D01*
X940337Y1264326D01*
X936338D01*
X939004D02*
X941670Y1261660D01*
X935005Y1293255D02*
X933672Y1294588D01*
X931007D01*
X929674Y1293255D01*
Y1287924D01*
X931007Y1286591D01*
X933672D01*
X935005Y1287924D01*
Y1290589D01*
X932339D01*
X937671Y1286591D02*
Y1294588D01*
X943003Y1286591D01*
Y1294588D01*
X945668D02*
Y1286591D01*
X949667D01*
X951000Y1287924D01*
Y1293255D01*
X949667Y1294588D01*
X945668D01*
X934283Y1319158D02*
X928951D01*
Y1315159D01*
X931617Y1316492D01*
X932950D01*
X934283Y1315159D01*
Y1312493D01*
X932950Y1311160D01*
X930284D01*
X928951Y1312493D01*
X936948Y1319158D02*
Y1313826D01*
X939614Y1311160D01*
X942280Y1313826D01*
Y1319158D01*
X323496Y563019D02*
X322163Y561686D01*
Y559020D01*
X323496Y557687D01*
X328827D01*
X330160Y559020D01*
Y561686D01*
X328827Y563019D01*
X326161D01*
Y560353D01*
X330160Y565685D02*
X322163D01*
X330160Y571016D01*
X322163D01*
Y573682D02*
X330160D01*
Y577681D01*
X328827Y579013D01*
X323496D01*
X322163Y577681D01*
Y573682D01*
X355395Y531276D02*
X347397D01*
X350063Y533942D01*
X347397Y536608D01*
X355395D01*
X347397Y543272D02*
Y540607D01*
X348730Y539274D01*
X354062D01*
X355395Y540607D01*
Y543272D01*
X354062Y544605D01*
X348730D01*
X347397Y543272D01*
Y547271D02*
Y552603D01*
Y549937D01*
X355395D01*
X347397Y559267D02*
Y556601D01*
X348730Y555269D01*
X354062D01*
X355395Y556601D01*
Y559267D01*
X354062Y560600D01*
X348730D01*
X347397Y559267D01*
X355395Y563266D02*
X347397D01*
Y567265D01*
X348730Y568597D01*
X351396D01*
X352729Y567265D01*
Y563266D01*
Y565932D02*
X355395Y568597D01*
Y576595D02*
Y571263D01*
X350063Y576595D01*
X348730D01*
X347397Y575262D01*
Y572596D01*
X348730Y571263D01*
X376492Y534679D02*
X368494D01*
X371160Y537345D01*
X368494Y540011D01*
X376492D01*
X368494Y546675D02*
Y544009D01*
X369827Y542677D01*
X375159D01*
X376492Y544009D01*
Y546675D01*
X375159Y548008D01*
X369827D01*
X368494Y546675D01*
Y550674D02*
Y556006D01*
Y553340D01*
X376492D01*
X368494Y562670D02*
Y560004D01*
X369827Y558671D01*
X375159D01*
X376492Y560004D01*
Y562670D01*
X375159Y564003D01*
X369827D01*
X368494Y562670D01*
X376492Y566669D02*
X368494D01*
Y570667D01*
X369827Y572000D01*
X372493D01*
X373826Y570667D01*
Y566669D01*
Y569334D02*
X376492Y572000D01*
Y574666D02*
Y577332D01*
Y575999D01*
X368494D01*
X369827Y574666D01*
X516251Y616344D02*
X524249D01*
Y620343D01*
X522916Y621676D01*
X521583D01*
X520250Y620343D01*
Y616344D01*
Y620343D01*
X518917Y621676D01*
X517584D01*
X516251Y620343D01*
Y616344D01*
X524249Y624342D02*
X518917D01*
X516251Y627008D01*
X518917Y629674D01*
X524249D01*
X520250D01*
Y624342D01*
X517584Y637671D02*
X516251Y636338D01*
Y633672D01*
X517584Y632339D01*
X518917D01*
X520250Y633672D01*
Y636338D01*
X521583Y637671D01*
X522916D01*
X524249Y636338D01*
Y633672D01*
X522916Y632339D01*
X516251Y645668D02*
Y640337D01*
X524249D01*
Y645668D01*
X520250Y640337D02*
Y643003D01*
Y648334D02*
Y653666D01*
X517584Y651000D02*
X522916D01*
X524249Y656332D02*
X516251D01*
Y660330D01*
X517584Y661663D01*
X520250D01*
X521583Y660330D01*
Y656332D01*
X516251Y664329D02*
Y666995D01*
Y665662D01*
X524249D01*
Y664329D01*
Y666995D01*
X516251Y670994D02*
X524249D01*
Y674992D01*
X522916Y676325D01*
X517584D01*
X516251Y674992D01*
Y670994D01*
X470183Y637608D02*
Y622373D01*
Y629991D01*
X480340D01*
Y637608D01*
Y622373D01*
X495575D02*
X485418D01*
X495575Y632530D01*
Y635069D01*
X493036Y637608D01*
X487958D01*
X485418Y635069D01*
X542556Y618466D02*
X550554D01*
Y622464D01*
X549221Y623797D01*
X547888D01*
X546555Y622464D01*
Y618466D01*
Y622464D01*
X545222Y623797D01*
X543889D01*
X542556Y622464D01*
Y618466D01*
X550554Y626463D02*
X545222D01*
X542556Y629129D01*
X545222Y631795D01*
X550554D01*
X546555D01*
Y626463D01*
X543889Y639792D02*
X542556Y638459D01*
Y635794D01*
X543889Y634461D01*
X545222D01*
X546555Y635794D01*
Y638459D01*
X547888Y639792D01*
X549221D01*
X550554Y638459D01*
Y635794D01*
X549221Y634461D01*
X542556Y647790D02*
Y642458D01*
X550554D01*
Y647790D01*
X546555Y642458D02*
Y645124D01*
Y650455D02*
Y655787D01*
X550554Y658453D02*
X542556D01*
Y662452D01*
X543889Y663784D01*
X546555D01*
X547888Y662452D01*
Y658453D01*
X542556Y666450D02*
Y669116D01*
Y667783D01*
X550554D01*
Y666450D01*
Y669116D01*
X542556Y673115D02*
X550554D01*
Y677114D01*
X549221Y678447D01*
X543889D01*
X542556Y677114D01*
Y673115D01*
X567589Y617617D02*
Y622949D01*
Y620283D01*
X575586D01*
Y625615D02*
X567589D01*
Y629613D01*
X568922Y630946D01*
X571588D01*
X572921Y629613D01*
Y625615D01*
Y628280D02*
X575586Y630946D01*
X567589Y633612D02*
Y636278D01*
Y634945D01*
X575586D01*
Y633612D01*
Y636278D01*
X589167Y615920D02*
X597165D01*
Y619919D01*
X595832Y621252D01*
X594499D01*
X593166Y619919D01*
Y615920D01*
Y619919D01*
X591833Y621252D01*
X590500D01*
X589167Y619919D01*
Y615920D01*
X593166Y623918D02*
Y629249D01*
X590500Y626584D02*
X595832D01*
X597165Y631915D02*
X589167D01*
Y635914D01*
X590500Y637247D01*
X593166D01*
X594499Y635914D01*
Y631915D01*
X598498Y639912D02*
Y645244D01*
X590500Y653242D02*
X589167Y651909D01*
Y649243D01*
X590500Y647910D01*
X595832D01*
X597165Y649243D01*
Y651909D01*
X595832Y653242D01*
X589167Y659906D02*
Y657240D01*
X590500Y655907D01*
X595832D01*
X597165Y657240D01*
Y659906D01*
X595832Y661239D01*
X590500D01*
X589167Y659906D01*
X597165Y663905D02*
X589167D01*
X591833Y666571D01*
X589167Y669236D01*
X597165D01*
Y671902D02*
X589167D01*
Y675901D01*
X590500Y677234D01*
X593166D01*
X594499Y675901D01*
Y671902D01*
X615897Y615072D02*
X623894D01*
Y619070D01*
X622561Y620403D01*
X621228D01*
X619896Y619070D01*
Y615072D01*
Y619070D01*
X618563Y620403D01*
X617230D01*
X615897Y619070D01*
Y615072D01*
X619896Y623069D02*
Y628401D01*
X623894Y631067D02*
X615897D01*
Y635065D01*
X617230Y636398D01*
X619896D01*
X621228Y635065D01*
Y631067D01*
X625227Y639064D02*
Y644396D01*
X617230Y652393D02*
X615897Y651060D01*
Y648394D01*
X617230Y647061D01*
X622561D01*
X623894Y648394D01*
Y651060D01*
X622561Y652393D01*
X615897Y659057D02*
Y656392D01*
X617230Y655059D01*
X622561D01*
X623894Y656392D01*
Y659057D01*
X622561Y660390D01*
X617230D01*
X615897Y659057D01*
X623894Y663056D02*
X615897D01*
X618563Y665722D01*
X615897Y668388D01*
X623894D01*
Y671054D02*
X615897D01*
Y675052D01*
X617230Y676385D01*
X619896D01*
X621228Y675052D01*
Y671054D01*
X644019Y619979D02*
X642686Y618646D01*
Y615980D01*
X644019Y614647D01*
X649351D01*
X650684Y615980D01*
Y618646D01*
X649351Y619979D01*
X646685D01*
Y617313D01*
X650684Y622645D02*
X642686D01*
X650684Y627976D01*
X642686D01*
Y630642D02*
X650684D01*
Y634641D01*
X649351Y635974D01*
X644019D01*
X642686Y634641D01*
Y630642D01*
X731392Y630892D02*
Y615657D01*
Y623275D01*
X741548D01*
Y630892D01*
Y615657D01*
X746627D02*
X751705D01*
X749166D01*
Y630892D01*
X746627Y628353D01*
X762761Y611859D02*
Y614525D01*
Y613192D01*
X770758D01*
Y611859D01*
Y614525D01*
Y618523D02*
X762761D01*
Y622522D01*
X764093Y623855D01*
X766759D01*
X768092Y622522D01*
Y618523D01*
Y621189D02*
X770758Y623855D01*
X762761Y630520D02*
Y627854D01*
X764093Y626521D01*
X769425D01*
X770758Y627854D01*
Y630520D01*
X769425Y631853D01*
X764093D01*
X762761Y630520D01*
Y634518D02*
X769425D01*
X770758Y635851D01*
Y638517D01*
X769425Y639850D01*
X762761D01*
Y642516D02*
Y647847D01*
Y645182D01*
X770758D01*
X788288Y612874D02*
X796285D01*
Y616873D01*
X794952Y618206D01*
X789620D01*
X788288Y616873D01*
Y612874D01*
Y620872D02*
Y623538D01*
Y622205D01*
X796285D01*
Y620872D01*
Y623538D01*
X788288Y632868D02*
Y627536D01*
X792286D01*
Y630202D01*
Y627536D01*
X796285D01*
X788288Y640865D02*
Y635534D01*
X792286D01*
Y638200D01*
Y635534D01*
X796285D01*
X814992Y612213D02*
Y614879D01*
Y613546D01*
X822989D01*
Y612213D01*
Y614879D01*
Y618877D02*
X814992D01*
X822989Y624209D01*
X814992D01*
Y626875D02*
Y632206D01*
Y629540D01*
X822989D01*
X814992Y640204D02*
Y634872D01*
X822989D01*
Y640204D01*
X818990Y634872D02*
Y637538D01*
X847412Y613608D02*
X839414D01*
Y617607D01*
X840747Y618940D01*
X843413D01*
X844746Y617607D01*
Y613608D01*
X847412Y621606D02*
X839414D01*
Y625605D01*
X840747Y626937D01*
X843413D01*
X844746Y625605D01*
Y621606D01*
Y624272D02*
X847412Y626937D01*
X839414Y633602D02*
Y630936D01*
X840747Y629603D01*
X846079D01*
X847412Y630936D01*
Y633602D01*
X846079Y634935D01*
X840747D01*
X839414Y633602D01*
X847412Y637601D02*
X839414D01*
Y641599D01*
X840747Y642932D01*
X843413D01*
X844746Y641599D01*
Y637601D01*
X873292Y612213D02*
X865295D01*
Y616212D01*
X866628Y617544D01*
X869294D01*
X870627Y616212D01*
Y612213D01*
X865295Y620210D02*
Y622876D01*
Y621543D01*
X873292D01*
Y620210D01*
Y622876D01*
X865295Y626875D02*
X873292D01*
Y630873D01*
X871960Y632206D01*
X866628D01*
X865295Y630873D01*
Y626875D01*
X874625Y634872D02*
Y640204D01*
X865295Y646868D02*
Y644202D01*
X866628Y642869D01*
X871960D01*
X873292Y644202D01*
Y646868D01*
X871960Y648201D01*
X866628D01*
X865295Y646868D01*
Y650867D02*
X871960D01*
X873292Y652200D01*
Y654866D01*
X871960Y656199D01*
X865295D01*
Y658864D02*
Y664196D01*
Y661530D01*
X873292D01*
X893082Y620336D02*
X891749Y619003D01*
Y616337D01*
X893082Y615004D01*
X898413D01*
X899746Y616337D01*
Y619003D01*
X898413Y620336D01*
X895747D01*
Y617670D01*
X899746Y623001D02*
X891749D01*
X899746Y628333D01*
X891749D01*
Y630999D02*
X899746D01*
Y634997D01*
X898413Y636330D01*
X893082D01*
X891749Y634997D01*
Y630999D01*
X315603Y632944D02*
Y617709D01*
Y625327D01*
X325760D01*
Y632944D01*
Y617709D01*
X330838Y630405D02*
X333377Y632944D01*
X338456D01*
X340995Y630405D01*
Y627866D01*
X338456Y625327D01*
X335916D01*
X338456D01*
X340995Y622788D01*
Y620248D01*
X338456Y617709D01*
X333377D01*
X330838Y620248D01*
X507373Y150095D02*
Y160252D01*
X512451Y165330D01*
X517530Y160252D01*
Y150095D01*
Y157713D01*
X507373D01*
X522608Y162791D02*
X525147Y165330D01*
X530226D01*
X532765Y162791D01*
Y160252D01*
X530226Y157713D01*
X527686D01*
X530226D01*
X532765Y155174D01*
Y152634D01*
X530226Y150095D01*
X525147D01*
X522608Y152634D01*
X537843Y162791D02*
X540382Y165330D01*
X545461D01*
X548000Y162791D01*
Y160252D01*
X545461Y157713D01*
X542921D01*
X545461D01*
X548000Y155174D01*
Y152634D01*
X545461Y150095D01*
X540382D01*
X537843Y152634D01*
X252865Y850627D02*
Y860784D01*
X257943Y865862D01*
X263022Y860784D01*
Y850627D01*
Y858245D01*
X252865D01*
X268100Y850627D02*
X273178D01*
X270639D01*
Y865862D01*
X268100Y863323D01*
X47887Y871201D02*
Y881358D01*
X52965Y886436D01*
X58044Y881358D01*
Y871201D01*
Y878819D01*
X47887D01*
X73279Y871201D02*
X63122D01*
X73279Y881358D01*
Y883897D01*
X70740Y886436D01*
X65661D01*
X63122Y883897D01*
X92083Y1056367D02*
Y1066524D01*
X97161Y1071602D01*
X102240Y1066524D01*
Y1056367D01*
Y1063985D01*
X92083D01*
X107318Y1069063D02*
X109857Y1071602D01*
X114936D01*
X117475Y1069063D01*
Y1066524D01*
X114936Y1063985D01*
X112396D01*
X114936D01*
X117475Y1061446D01*
Y1058906D01*
X114936Y1056367D01*
X109857D01*
X107318Y1058906D01*
X117991Y866883D02*
Y877040D01*
X123069Y882118D01*
X128148Y877040D01*
Y866883D01*
Y874501D01*
X117991D01*
X140844Y866883D02*
Y882118D01*
X133226Y874501D01*
X143383D01*
X185555Y855961D02*
Y866118D01*
X190633Y871196D01*
X195712Y866118D01*
Y855961D01*
Y863579D01*
X185555D01*
X210947Y871196D02*
X200790D01*
Y863579D01*
X205868Y866118D01*
X208408D01*
X210947Y863579D01*
Y858501D01*
X208408Y855961D01*
X203329D01*
X200790Y858501D01*
X375293Y1183875D02*
Y1194032D01*
X380371Y1199110D01*
X385450Y1194032D01*
Y1183875D01*
Y1191493D01*
X375293D01*
X400685Y1199110D02*
X395606Y1196571D01*
X390528Y1191493D01*
Y1186414D01*
X393067Y1183875D01*
X398146D01*
X400685Y1186414D01*
Y1188954D01*
X398146Y1191493D01*
X390528D01*
X323477Y835895D02*
Y846052D01*
X328555Y851130D01*
X333634Y846052D01*
Y835895D01*
Y843513D01*
X323477D01*
X338712Y851130D02*
X348869D01*
Y848591D01*
X338712Y838435D01*
Y835895D01*
X418222Y1095969D02*
Y1106125D01*
X423301Y1111204D01*
X428379Y1106125D01*
Y1095969D01*
Y1103586D01*
X418222D01*
X433457Y1108665D02*
X435996Y1111204D01*
X441075D01*
X443614Y1108665D01*
Y1106125D01*
X441075Y1103586D01*
X443614Y1101047D01*
Y1098508D01*
X441075Y1095969D01*
X435996D01*
X433457Y1098508D01*
Y1101047D01*
X435996Y1103586D01*
X433457Y1106125D01*
Y1108665D01*
X435996Y1103586D02*
X441075D01*
X99195Y943337D02*
Y953494D01*
X104273Y958572D01*
X109352Y953494D01*
Y943337D01*
Y950955D01*
X99195D01*
X114430Y945876D02*
X116969Y943337D01*
X122048D01*
X124587Y945876D01*
Y956033D01*
X122048Y958572D01*
X116969D01*
X114430Y956033D01*
Y953494D01*
X116969Y950955D01*
X124587D01*
X426855Y973563D02*
Y983720D01*
X431933Y988798D01*
X437012Y983720D01*
Y973563D01*
Y981181D01*
X426855D01*
X442090Y973563D02*
X447168D01*
X444629D01*
Y988798D01*
X442090Y986259D01*
X454786D02*
X457325Y988798D01*
X462403D01*
X464943Y986259D01*
Y976103D01*
X462403Y973563D01*
X457325D01*
X454786Y976103D01*
Y986259D01*
X1127641Y916159D02*
Y926316D01*
X1132719Y931394D01*
X1137798Y926316D01*
Y916159D01*
Y923777D01*
X1127641D01*
X1142876Y916159D02*
X1147954D01*
X1145415D01*
Y931394D01*
X1142876Y928855D01*
X1155572Y916159D02*
X1160650D01*
X1158111D01*
Y931394D01*
X1155572Y928855D01*
X994291Y1067543D02*
Y1077700D01*
X999369Y1082778D01*
X1004448Y1077700D01*
Y1067543D01*
Y1075161D01*
X994291D01*
X1009526Y1067543D02*
X1014604D01*
X1012065D01*
Y1082778D01*
X1009526Y1080239D01*
X1032379Y1067543D02*
X1022222D01*
X1032379Y1077700D01*
Y1080239D01*
X1029839Y1082778D01*
X1024761D01*
X1022222Y1080239D01*
X1012833Y710419D02*
Y720576D01*
X1017911Y725654D01*
X1022990Y720576D01*
Y710419D01*
Y718037D01*
X1012833D01*
X1028068Y710419D02*
X1033146D01*
X1030607D01*
Y725654D01*
X1028068Y723115D01*
X1048382Y710419D02*
Y725654D01*
X1040764Y718037D01*
X1050921D01*
X1190887Y890759D02*
Y900916D01*
X1195965Y905994D01*
X1201044Y900916D01*
Y890759D01*
Y898377D01*
X1190887D01*
X1206122Y890759D02*
X1211200D01*
X1208661D01*
Y905994D01*
X1206122Y903455D01*
X1228975Y905994D02*
X1218818D01*
Y898377D01*
X1223896Y900916D01*
X1226435D01*
X1228975Y898377D01*
Y893298D01*
X1226435Y890759D01*
X1221357D01*
X1218818Y893298D01*
X714129Y-158769D02*
Y-148612D01*
X719207Y-143534D01*
X724286Y-148612D01*
Y-158769D01*
Y-151151D01*
X714129D01*
X729364Y-158769D02*
X734442D01*
X731903D01*
Y-143534D01*
X729364Y-146073D01*
X742060Y-143534D02*
X752217D01*
Y-146073D01*
X742060Y-156229D01*
Y-158769D01*
X974733Y-145053D02*
Y-134896D01*
X979811Y-129818D01*
X984890Y-134896D01*
Y-145053D01*
Y-137435D01*
X974733D01*
X989968Y-145053D02*
X995046D01*
X992507D01*
Y-129818D01*
X989968Y-132357D01*
X1002664D02*
X1005203Y-129818D01*
X1010282D01*
X1012821Y-132357D01*
Y-134896D01*
X1010282Y-137435D01*
X1012821Y-139974D01*
Y-142514D01*
X1010282Y-145053D01*
X1005203D01*
X1002664Y-142514D01*
Y-139974D01*
X1005203Y-137435D01*
X1002664Y-134896D01*
Y-132357D01*
X1005203Y-137435D02*
X1010282D01*
X962541Y-45231D02*
Y-35074D01*
X967619Y-29996D01*
X972698Y-35074D01*
Y-45231D01*
Y-37613D01*
X962541D01*
X977776Y-45231D02*
X982854D01*
X980315D01*
Y-29996D01*
X977776Y-32535D01*
X990472Y-42691D02*
X993011Y-45231D01*
X998090D01*
X1000629Y-42691D01*
Y-32535D01*
X998090Y-29996D01*
X993011D01*
X990472Y-32535D01*
Y-35074D01*
X993011Y-37613D01*
X1000629D01*
X672981Y107677D02*
Y117834D01*
X678059Y122912D01*
X683138Y117834D01*
Y107677D01*
Y115295D01*
X672981D01*
X698373Y107677D02*
X688216D01*
X698373Y117834D01*
Y120373D01*
X695834Y122912D01*
X690755D01*
X688216Y120373D01*
X703451D02*
X705990Y122912D01*
X711069D01*
X713608Y120373D01*
Y110217D01*
X711069Y107677D01*
X705990D01*
X703451Y110217D01*
Y120373D01*
X1007136Y105368D02*
X996979D01*
X991901Y110447D01*
X996979Y115525D01*
X1007136D01*
X999519D01*
Y105368D01*
X1007136Y130760D02*
Y120603D01*
X996979Y130760D01*
X994440D01*
X991901Y128221D01*
Y123142D01*
X994440Y120603D01*
X1007136Y135838D02*
Y140917D01*
Y138378D01*
X991901D01*
X994440Y135838D01*
X1029597Y-69869D02*
Y-59712D01*
X1034675Y-54634D01*
X1039754Y-59712D01*
Y-69869D01*
Y-62251D01*
X1029597D01*
X1054989Y-69869D02*
X1044832D01*
X1054989Y-59712D01*
Y-57173D01*
X1052450Y-54634D01*
X1047371D01*
X1044832Y-57173D01*
X1070224Y-69869D02*
X1060067D01*
X1070224Y-59712D01*
Y-57173D01*
X1067685Y-54634D01*
X1062606D01*
X1060067Y-57173D01*
X342527Y-10179D02*
Y-22D01*
X347605Y5056D01*
X352684Y-22D01*
Y-10179D01*
Y-2561D01*
X342527D01*
X367919Y-10179D02*
X357762D01*
X367919Y-22D01*
Y2517D01*
X365380Y5056D01*
X360301D01*
X357762Y2517D01*
X372997D02*
X375536Y5056D01*
X380615D01*
X383154Y2517D01*
Y-22D01*
X380615Y-2561D01*
X378075D01*
X380615D01*
X383154Y-5100D01*
Y-7639D01*
X380615Y-10179D01*
X375536D01*
X372997Y-7639D01*
X456319Y1170154D02*
Y1154919D01*
X463937D01*
X466476Y1157458D01*
Y1159998D01*
X463937Y1162537D01*
X456319D01*
X463937D01*
X466476Y1165076D01*
Y1167615D01*
X463937Y1170154D01*
X456319D01*
X471554Y1154919D02*
X476632D01*
X474093D01*
Y1170154D01*
X471554Y1167615D01*
X761881Y1351764D02*
Y1336529D01*
X769499D01*
X772038Y1339068D01*
Y1341608D01*
X769499Y1344147D01*
X761881D01*
X769499D01*
X772038Y1346686D01*
Y1349225D01*
X769499Y1351764D01*
X761881D01*
X787273Y1336529D02*
X777116D01*
X787273Y1346686D01*
Y1349225D01*
X784734Y1351764D01*
X779655D01*
X777116Y1349225D01*
X745117Y1474700D02*
Y1459465D01*
X752735D01*
X755274Y1462005D01*
Y1464544D01*
X752735Y1467083D01*
X745117D01*
X752735D01*
X755274Y1469622D01*
Y1472161D01*
X752735Y1474700D01*
X745117D01*
X760352Y1472161D02*
X762891Y1474700D01*
X767970D01*
X770509Y1472161D01*
Y1469622D01*
X767970Y1467083D01*
X765430D01*
X767970D01*
X770509Y1464544D01*
Y1462005D01*
X767970Y1459465D01*
X762891D01*
X760352Y1462005D01*
X632087Y1473430D02*
Y1458195D01*
X639705D01*
X642244Y1460735D01*
Y1463274D01*
X639705Y1465813D01*
X632087D01*
X639705D01*
X642244Y1468352D01*
Y1470891D01*
X639705Y1473430D01*
X632087D01*
X654940Y1458195D02*
Y1473430D01*
X647322Y1465813D01*
X657479D01*
X863989Y1468858D02*
Y1453623D01*
X871607D01*
X874146Y1456163D01*
Y1458702D01*
X871607Y1461241D01*
X863989D01*
X871607D01*
X874146Y1463780D01*
Y1466319D01*
X871607Y1468858D01*
X863989D01*
X889381D02*
X879224D01*
Y1461241D01*
X884302Y1463780D01*
X886842D01*
X889381Y1461241D01*
Y1456163D01*
X886842Y1453623D01*
X881763D01*
X879224Y1456163D01*
X522359Y1317728D02*
Y1302493D01*
X529977D01*
X532516Y1305033D01*
Y1307572D01*
X529977Y1310111D01*
X522359D01*
X529977D01*
X532516Y1312650D01*
Y1315189D01*
X529977Y1317728D01*
X522359D01*
X547751D02*
X542672Y1315189D01*
X537594Y1310111D01*
Y1305033D01*
X540133Y1302493D01*
X545212D01*
X547751Y1305033D01*
Y1307572D01*
X545212Y1310111D01*
X537594D01*
X522105Y1236702D02*
Y1221467D01*
X529723D01*
X532262Y1224007D01*
Y1226546D01*
X529723Y1229085D01*
X522105D01*
X529723D01*
X532262Y1231624D01*
Y1234163D01*
X529723Y1236702D01*
X522105D01*
X537340D02*
X547497D01*
Y1234163D01*
X537340Y1224007D01*
Y1221467D01*
X494070Y922615D02*
Y907380D01*
X501688D01*
X504227Y909919D01*
Y912458D01*
X501688Y914997D01*
X494070D01*
X501688D01*
X504227Y917537D01*
Y920076D01*
X501688Y922615D01*
X494070D01*
X509305Y920076D02*
X511844Y922615D01*
X516923D01*
X519462Y920076D01*
Y917537D01*
X516923Y914997D01*
X519462Y912458D01*
Y909919D01*
X516923Y907380D01*
X511844D01*
X509305Y909919D01*
Y912458D01*
X511844Y914997D01*
X509305Y917537D01*
Y920076D01*
X511844Y914997D02*
X516923D01*
X762643Y-29742D02*
Y-44977D01*
X770260D01*
X772800Y-42438D01*
Y-39898D01*
X770260Y-37359D01*
X762643D01*
X770260D01*
X772800Y-34820D01*
Y-32281D01*
X770260Y-29742D01*
X762643D01*
X777878Y-42438D02*
X780417Y-44977D01*
X785496D01*
X788035Y-42438D01*
Y-32281D01*
X785496Y-29742D01*
X780417D01*
X777878Y-32281D01*
Y-34820D01*
X780417Y-37359D01*
X788035D01*
X697619Y-30758D02*
Y-45993D01*
X705237D01*
X707776Y-43453D01*
Y-40914D01*
X705237Y-38375D01*
X697619D01*
X705237D01*
X707776Y-35836D01*
Y-33297D01*
X705237Y-30758D01*
X697619D01*
X712854Y-45993D02*
X717932D01*
X715393D01*
Y-30758D01*
X712854Y-33297D01*
X725550D02*
X728089Y-30758D01*
X733167D01*
X735707Y-33297D01*
Y-43453D01*
X733167Y-45993D01*
X728089D01*
X725550Y-43453D01*
Y-33297D01*
X560456Y1462255D02*
X557916Y1464794D01*
X552838D01*
X550299Y1462255D01*
Y1452099D01*
X552838Y1449559D01*
X557916D01*
X560456Y1452099D01*
X565534Y1449559D02*
X570612D01*
X568073D01*
Y1464794D01*
X565534Y1462255D01*
X542422Y1120625D02*
X539883Y1123164D01*
X534804D01*
X532265Y1120625D01*
Y1110469D01*
X534804Y1107929D01*
X539883D01*
X542422Y1110469D01*
X557657Y1107929D02*
X547500D01*
X557657Y1118086D01*
Y1120625D01*
X555118Y1123164D01*
X550039D01*
X547500Y1120625D01*
X558932Y21059D02*
X556393Y23598D01*
X551314D01*
X548775Y21059D01*
Y10903D01*
X551314Y8363D01*
X556393D01*
X558932Y10903D01*
X564010Y21059D02*
X566549Y23598D01*
X571628D01*
X574167Y21059D01*
Y18520D01*
X571628Y15981D01*
X569088D01*
X571628D01*
X574167Y13442D01*
Y10903D01*
X571628Y8363D01*
X566549D01*
X564010Y10903D01*
X550550Y-94511D02*
X548010Y-91972D01*
X542932D01*
X540393Y-94511D01*
Y-104668D01*
X542932Y-107207D01*
X548010D01*
X550550Y-104668D01*
X563246Y-107207D02*
Y-91972D01*
X555628Y-99589D01*
X565785D01*
X477906Y-128801D02*
X475367Y-126262D01*
X470288D01*
X467749Y-128801D01*
Y-138958D01*
X470288Y-141497D01*
X475367D01*
X477906Y-138958D01*
X493141Y-126262D02*
X482984D01*
Y-133879D01*
X488062Y-131340D01*
X490602D01*
X493141Y-133879D01*
Y-138958D01*
X490602Y-141497D01*
X485523D01*
X482984Y-138958D01*
X565790Y101069D02*
X563251Y103608D01*
X558172D01*
X555633Y101069D01*
Y90913D01*
X558172Y88373D01*
X563251D01*
X565790Y90913D01*
X581025Y103608D02*
X575946Y101069D01*
X570868Y95991D01*
Y90913D01*
X573407Y88373D01*
X578486D01*
X581025Y90913D01*
Y93452D01*
X578486Y95991D01*
X570868D01*
X1112144Y86591D02*
X1109604Y89130D01*
X1104526D01*
X1101987Y86591D01*
Y76434D01*
X1104526Y73895D01*
X1109604D01*
X1112144Y76434D01*
X1117222Y89130D02*
X1127379D01*
Y86591D01*
X1117222Y76434D01*
Y73895D01*
X1105286Y170411D02*
X1102747Y172950D01*
X1097668D01*
X1095129Y170411D01*
Y160254D01*
X1097668Y157715D01*
X1102747D01*
X1105286Y160254D01*
X1110364Y170411D02*
X1112903Y172950D01*
X1117982D01*
X1120521Y170411D01*
Y167872D01*
X1117982Y165333D01*
X1120521Y162794D01*
Y160254D01*
X1117982Y157715D01*
X1112903D01*
X1110364Y160254D01*
Y162794D01*
X1112903Y165333D01*
X1110364Y167872D01*
Y170411D01*
X1112903Y165333D02*
X1117982D01*
X224462Y-109602D02*
X227001Y-107063D01*
Y-101984D01*
X224462Y-99445D01*
X214305D01*
X211766Y-101984D01*
Y-107063D01*
X214305Y-109602D01*
Y-114680D02*
X211766Y-117219D01*
Y-122297D01*
X214305Y-124837D01*
X224462D01*
X227001Y-122297D01*
Y-117219D01*
X224462Y-114680D01*
X221923D01*
X219384Y-117219D01*
Y-124837D01*
X63632Y183873D02*
X61093Y186412D01*
X56014D01*
X53475Y183873D01*
Y173717D01*
X56014Y171177D01*
X61093D01*
X63632Y173717D01*
X68710Y171177D02*
X73788D01*
X71249D01*
Y186412D01*
X68710Y183873D01*
X81406D02*
X83945Y186412D01*
X89024D01*
X91563Y183873D01*
Y173717D01*
X89024Y171177D01*
X83945D01*
X81406Y173717D01*
Y183873D01*
X1099698Y-20089D02*
X1097159Y-17550D01*
X1092080D01*
X1089541Y-20089D01*
Y-30245D01*
X1092080Y-32785D01*
X1097159D01*
X1099698Y-30245D01*
X1104776Y-32785D02*
X1109854D01*
X1107315D01*
Y-17550D01*
X1104776Y-20089D01*
X1117472Y-32785D02*
X1122550D01*
X1120011D01*
Y-17550D01*
X1117472Y-20089D01*
X1054994Y-132865D02*
X1052455Y-130326D01*
X1047376D01*
X1044837Y-132865D01*
Y-143021D01*
X1047376Y-145561D01*
X1052455D01*
X1054994Y-143021D01*
X1060072Y-145561D02*
X1065150D01*
X1062611D01*
Y-130326D01*
X1060072Y-132865D01*
X1082925Y-145561D02*
X1072768D01*
X1082925Y-135404D01*
Y-132865D01*
X1080386Y-130326D01*
X1075307D01*
X1072768Y-132865D01*
X351668Y104117D02*
X349128Y106656D01*
X344050D01*
X341511Y104117D01*
Y93961D01*
X344050Y91421D01*
X349128D01*
X351668Y93961D01*
X356746Y91421D02*
X361824D01*
X359285D01*
Y106656D01*
X356746Y104117D01*
X369442D02*
X371981Y106656D01*
X377060D01*
X379599Y104117D01*
Y101578D01*
X377060Y99039D01*
X374520D01*
X377060D01*
X379599Y96500D01*
Y93961D01*
X377060Y91421D01*
X371981D01*
X369442Y93961D01*
X316482Y-26816D02*
X319021Y-24277D01*
Y-19198D01*
X316482Y-16659D01*
X306325D01*
X303786Y-19198D01*
Y-24277D01*
X306325Y-26816D01*
X303786Y-31894D02*
Y-36973D01*
Y-34433D01*
X319021D01*
X316482Y-31894D01*
X303786Y-52208D02*
X319021D01*
X311404Y-44590D01*
Y-54747D01*
X268864Y109197D02*
X266325Y111736D01*
X261246D01*
X258707Y109197D01*
Y99040D01*
X261246Y96501D01*
X266325D01*
X268864Y99040D01*
X273942Y96501D02*
X279020D01*
X276481D01*
Y111736D01*
X273942Y109197D01*
X296795Y111736D02*
X286638D01*
Y104119D01*
X291716Y106658D01*
X294256D01*
X296795Y104119D01*
Y99040D01*
X294256Y96501D01*
X289177D01*
X286638Y99040D01*
X1111128Y-127785D02*
X1108588Y-125246D01*
X1103510D01*
X1100971Y-127785D01*
Y-137942D01*
X1103510Y-140481D01*
X1108588D01*
X1111128Y-137942D01*
X1116206Y-140481D02*
X1121284D01*
X1118745D01*
Y-125246D01*
X1116206Y-127785D01*
X1139059Y-125246D02*
X1133980Y-127785D01*
X1128902Y-132863D01*
Y-137942D01*
X1131441Y-140481D01*
X1136519D01*
X1139059Y-137942D01*
Y-135402D01*
X1136519Y-132863D01*
X1128902D01*
X278262Y-99845D02*
X275723Y-97306D01*
X270644D01*
X268105Y-99845D01*
Y-110001D01*
X270644Y-112541D01*
X275723D01*
X278262Y-110001D01*
X283340Y-112541D02*
X288418D01*
X285879D01*
Y-97306D01*
X283340Y-99845D01*
X296036Y-97306D02*
X306193D01*
Y-99845D01*
X296036Y-110001D01*
Y-112541D01*
X1172526Y-113472D02*
X1175065Y-110932D01*
Y-105854D01*
X1172526Y-103315D01*
X1162369D01*
X1159830Y-105854D01*
Y-110932D01*
X1162369Y-113472D01*
X1159830Y-118550D02*
Y-123628D01*
Y-121089D01*
X1175065D01*
X1172526Y-118550D01*
Y-131246D02*
X1175065Y-133785D01*
Y-138863D01*
X1172526Y-141403D01*
X1169987D01*
X1167447Y-138863D01*
X1164908Y-141403D01*
X1162369D01*
X1159830Y-138863D01*
Y-133785D01*
X1162369Y-131246D01*
X1164908D01*
X1167447Y-133785D01*
X1169987Y-131246D01*
X1172526D01*
X1167447Y-133785D02*
Y-138863D01*
X40622Y1051588D02*
X38082Y1054127D01*
X33004D01*
X30465Y1051588D01*
Y1041431D01*
X33004Y1038892D01*
X38082D01*
X40622Y1041431D01*
X55857Y1051588D02*
X53317Y1054127D01*
X48239D01*
X45700Y1051588D01*
Y1041431D01*
X48239Y1038892D01*
X53317D01*
X55857Y1041431D01*
X60935Y1038892D02*
X66013D01*
X63474D01*
Y1054127D01*
X60935Y1051588D01*
X52456Y963399D02*
X49917Y965938D01*
X44838D01*
X42299Y963399D01*
Y953242D01*
X44838Y950703D01*
X49917D01*
X52456Y953242D01*
X67691Y963399D02*
X65152Y965938D01*
X60073D01*
X57534Y963399D01*
Y953242D01*
X60073Y950703D01*
X65152D01*
X67691Y953242D01*
X82926Y950703D02*
X72769D01*
X82926Y960860D01*
Y963399D01*
X80387Y965938D01*
X75308D01*
X72769Y963399D01*
X429646Y860275D02*
X427107Y862814D01*
X422028D01*
X419489Y860275D01*
Y850118D01*
X422028Y847579D01*
X427107D01*
X429646Y850118D01*
X444881Y860275D02*
X442342Y862814D01*
X437263D01*
X434724Y860275D01*
Y850118D01*
X437263Y847579D01*
X442342D01*
X444881Y850118D01*
X449959Y860275D02*
X452498Y862814D01*
X457577D01*
X460116Y860275D01*
Y857736D01*
X457577Y855197D01*
X455037D01*
X457577D01*
X460116Y852658D01*
Y850118D01*
X457577Y847579D01*
X452498D01*
X449959Y850118D01*
X1195710Y806681D02*
X1193170Y809220D01*
X1188092D01*
X1185553Y806681D01*
Y796525D01*
X1188092Y793985D01*
X1193170D01*
X1195710Y796525D01*
X1210945Y806681D02*
X1208406Y809220D01*
X1203327D01*
X1200788Y806681D01*
Y796525D01*
X1203327Y793985D01*
X1208406D01*
X1210945Y796525D01*
X1223641Y793985D02*
Y809220D01*
X1216023Y801603D01*
X1226180D01*
X967364Y1218669D02*
X964825Y1221208D01*
X959746D01*
X957207Y1218669D01*
Y1208512D01*
X959746Y1205973D01*
X964825D01*
X967364Y1208512D01*
X982599Y1218669D02*
X980060Y1221208D01*
X974981D01*
X972442Y1218669D01*
Y1208512D01*
X974981Y1205973D01*
X980060D01*
X982599Y1208512D01*
X997834Y1221208D02*
X987677D01*
Y1213591D01*
X992756Y1216130D01*
X995295D01*
X997834Y1213591D01*
Y1208512D01*
X995295Y1205973D01*
X990216D01*
X987677Y1208512D01*
X943234Y727687D02*
X940695Y730226D01*
X935616D01*
X933077Y727687D01*
Y717531D01*
X935616Y714991D01*
X940695D01*
X943234Y717531D01*
X958469Y727687D02*
X955930Y730226D01*
X950851D01*
X948312Y727687D01*
Y717531D01*
X950851Y714991D01*
X955930D01*
X958469Y717531D01*
X973704Y730226D02*
X968625Y727687D01*
X963547Y722609D01*
Y717531D01*
X966086Y714991D01*
X971165D01*
X973704Y717531D01*
Y720070D01*
X971165Y722609D01*
X963547D01*
X980572Y44173D02*
X978033Y46712D01*
X972954D01*
X970415Y44173D01*
Y34016D01*
X972954Y31477D01*
X978033D01*
X980572Y34016D01*
X995807Y44173D02*
X993268Y46712D01*
X988189D01*
X985650Y44173D01*
Y34016D01*
X988189Y31477D01*
X993268D01*
X995807Y34016D01*
X1000885Y46712D02*
X1011042D01*
Y44173D01*
X1000885Y34016D01*
Y31477D01*
X464952Y1463525D02*
X462412Y1466064D01*
X457334D01*
X454795Y1463525D01*
Y1453369D01*
X457334Y1450829D01*
X462412D01*
X464952Y1453369D01*
X480187Y1463525D02*
X477648Y1466064D01*
X472569D01*
X470030Y1463525D01*
Y1453369D01*
X472569Y1450829D01*
X477648D01*
X480187Y1453369D01*
X485265Y1463525D02*
X487804Y1466064D01*
X492883D01*
X495422Y1463525D01*
Y1460986D01*
X492883Y1458447D01*
X495422Y1455908D01*
Y1453369D01*
X492883Y1450829D01*
X487804D01*
X485265Y1453369D01*
Y1455908D01*
X487804Y1458447D01*
X485265Y1460986D01*
Y1463525D01*
X487804Y1458447D02*
X492883D01*
X377681Y1465720D02*
X375142Y1468259D01*
X370063D01*
X367524Y1465720D01*
Y1455564D01*
X370063Y1453024D01*
X375142D01*
X377681Y1455564D01*
X392916Y1465720D02*
X390377Y1468259D01*
X385298D01*
X382759Y1465720D01*
Y1455564D01*
X385298Y1453024D01*
X390377D01*
X392916Y1455564D01*
X397994D02*
X400533Y1453024D01*
X405612D01*
X408151Y1455564D01*
Y1465720D01*
X405612Y1468259D01*
X400533D01*
X397994Y1465720D01*
Y1463181D01*
X400533Y1460642D01*
X408151D01*
X855350Y1213081D02*
X852811Y1215620D01*
X847732D01*
X845193Y1213081D01*
Y1202924D01*
X847732Y1200385D01*
X852811D01*
X855350Y1202924D01*
X870585Y1213081D02*
X868046Y1215620D01*
X862967D01*
X860428Y1213081D01*
Y1202924D01*
X862967Y1200385D01*
X868046D01*
X870585Y1202924D01*
X875663Y1200385D02*
X880742D01*
X878202D01*
Y1215620D01*
X875663Y1213081D01*
X888359D02*
X890898Y1215620D01*
X895977D01*
X898516Y1213081D01*
Y1202924D01*
X895977Y1200385D01*
X890898D01*
X888359Y1202924D01*
Y1213081D01*
X902848Y1138405D02*
X900309Y1140944D01*
X895230D01*
X892691Y1138405D01*
Y1128249D01*
X895230Y1125709D01*
X900309D01*
X902848Y1128249D01*
X918083Y1138405D02*
X915544Y1140944D01*
X910465D01*
X907926Y1138405D01*
Y1128249D01*
X910465Y1125709D01*
X915544D01*
X918083Y1128249D01*
X923161Y1125709D02*
X928240D01*
X925700D01*
Y1140944D01*
X923161Y1138405D01*
X935857Y1125709D02*
X940935D01*
X938396D01*
Y1140944D01*
X935857Y1138405D01*
X1042294Y159743D02*
X1039754Y162282D01*
X1034676D01*
X1032137Y159743D01*
Y149586D01*
X1034676Y147047D01*
X1039754D01*
X1042294Y149586D01*
X1057529Y159743D02*
X1054990Y162282D01*
X1049911D01*
X1047372Y159743D01*
Y149586D01*
X1049911Y147047D01*
X1054990D01*
X1057529Y149586D01*
X1062607Y147047D02*
X1067685D01*
X1065146D01*
Y162282D01*
X1062607Y159743D01*
X1085460Y147047D02*
X1075303D01*
X1085460Y157204D01*
Y159743D01*
X1082921Y162282D01*
X1077842D01*
X1075303Y159743D01*
X1298072Y1144755D02*
X1295533Y1147294D01*
X1290454D01*
X1287915Y1144755D01*
Y1134598D01*
X1290454Y1132059D01*
X1295533D01*
X1298072Y1134598D01*
X1313307Y1144755D02*
X1310768Y1147294D01*
X1305689D01*
X1303150Y1144755D01*
Y1134598D01*
X1305689Y1132059D01*
X1310768D01*
X1313307Y1134598D01*
X1318385Y1132059D02*
X1323463D01*
X1320924D01*
Y1147294D01*
X1318385Y1144755D01*
X1331081D02*
X1333620Y1147294D01*
X1338699D01*
X1341238Y1144755D01*
Y1142216D01*
X1338699Y1139677D01*
X1336159D01*
X1338699D01*
X1341238Y1137138D01*
Y1134598D01*
X1338699Y1132059D01*
X1333620D01*
X1331081Y1134598D01*
X763402Y120881D02*
X760863Y123420D01*
X755784D01*
X753245Y120881D01*
Y110724D01*
X755784Y108185D01*
X760863D01*
X763402Y110724D01*
X778637Y120881D02*
X776098Y123420D01*
X771019D01*
X768480Y120881D01*
Y110724D01*
X771019Y108185D01*
X776098D01*
X778637Y110724D01*
X783715Y108185D02*
X788793D01*
X786254D01*
Y123420D01*
X783715Y120881D01*
X804029Y108185D02*
Y123420D01*
X796411Y115803D01*
X806568D01*
X782960Y-144549D02*
X780421Y-142010D01*
X775342D01*
X772803Y-144549D01*
Y-154705D01*
X775342Y-157245D01*
X780421D01*
X782960Y-154705D01*
X798195Y-144549D02*
X795656Y-142010D01*
X790577D01*
X788038Y-144549D01*
Y-154705D01*
X790577Y-157245D01*
X795656D01*
X798195Y-154705D01*
X803273Y-157245D02*
X808352D01*
X805812D01*
Y-142010D01*
X803273Y-144549D01*
X826126Y-142010D02*
X815969D01*
Y-149627D01*
X821047Y-147088D01*
X823587D01*
X826126Y-149627D01*
Y-154705D01*
X823587Y-157245D01*
X818508D01*
X815969Y-154705D01*
X409326Y-121943D02*
X406786Y-119404D01*
X401708D01*
X399169Y-121943D01*
Y-132100D01*
X401708Y-134639D01*
X406786D01*
X409326Y-132100D01*
X424561Y-121943D02*
X422022Y-119404D01*
X416943D01*
X414404Y-121943D01*
Y-132100D01*
X416943Y-134639D01*
X422022D01*
X424561Y-132100D01*
X429639Y-134639D02*
X434717D01*
X432178D01*
Y-119404D01*
X429639Y-121943D01*
X452492Y-119404D02*
X447413Y-121943D01*
X442335Y-127021D01*
Y-132100D01*
X444874Y-134639D01*
X449953D01*
X452492Y-132100D01*
Y-129560D01*
X449953Y-127021D01*
X442335D01*
X344556Y-109243D02*
X342016Y-106704D01*
X336938D01*
X334399Y-109243D01*
Y-119399D01*
X336938Y-121939D01*
X342016D01*
X344556Y-119399D01*
X359791Y-109243D02*
X357252Y-106704D01*
X352173D01*
X349634Y-109243D01*
Y-119399D01*
X352173Y-121939D01*
X357252D01*
X359791Y-119399D01*
X364869Y-121939D02*
X369948D01*
X367408D01*
Y-106704D01*
X364869Y-109243D01*
X377565Y-106704D02*
X387722D01*
Y-109243D01*
X377565Y-119399D01*
Y-121939D01*
X69220Y41887D02*
X66680Y44426D01*
X61602D01*
X59063Y41887D01*
Y31730D01*
X61602Y29191D01*
X66680D01*
X69220Y31730D01*
X84455Y41887D02*
X81916Y44426D01*
X76837D01*
X74298Y41887D01*
Y31730D01*
X76837Y29191D01*
X81916D01*
X84455Y31730D01*
X89533Y29191D02*
X94612D01*
X92072D01*
Y44426D01*
X89533Y41887D01*
X102229D02*
X104768Y44426D01*
X109847D01*
X112386Y41887D01*
Y39348D01*
X109847Y36809D01*
X112386Y34270D01*
Y31730D01*
X109847Y29191D01*
X104768D01*
X102229Y31730D01*
Y34270D01*
X104768Y36809D01*
X102229Y39348D01*
Y41887D01*
X104768Y36809D02*
X109847D01*
X36200Y125199D02*
X33661Y127738D01*
X28582D01*
X26043Y125199D01*
Y115042D01*
X28582Y112503D01*
X33661D01*
X36200Y115042D01*
X51435Y125199D02*
X48896Y127738D01*
X43817D01*
X41278Y125199D01*
Y115042D01*
X43817Y112503D01*
X48896D01*
X51435Y115042D01*
X56513Y112503D02*
X61592D01*
X59052D01*
Y127738D01*
X56513Y125199D01*
X69209Y115042D02*
X71748Y112503D01*
X76827D01*
X79366Y115042D01*
Y125199D01*
X76827Y127738D01*
X71748D01*
X69209Y125199D01*
Y122660D01*
X71748Y120121D01*
X79366D01*
X1046866Y50015D02*
X1044326Y52554D01*
X1039248D01*
X1036709Y50015D01*
Y39859D01*
X1039248Y37319D01*
X1044326D01*
X1046866Y39859D01*
X1062101Y50015D02*
X1059562Y52554D01*
X1054483D01*
X1051944Y50015D01*
Y39859D01*
X1054483Y37319D01*
X1059562D01*
X1062101Y39859D01*
X1077336Y37319D02*
X1067179D01*
X1077336Y47476D01*
Y50015D01*
X1074797Y52554D01*
X1069718D01*
X1067179Y50015D01*
X1082414D02*
X1084953Y52554D01*
X1090032D01*
X1092571Y50015D01*
Y39859D01*
X1090032Y37319D01*
X1084953D01*
X1082414Y39859D01*
Y50015D01*
X1302390Y44173D02*
X1299850Y46712D01*
X1294772D01*
X1292233Y44173D01*
Y34016D01*
X1294772Y31477D01*
X1299850D01*
X1302390Y34016D01*
X1317625Y44173D02*
X1315086Y46712D01*
X1310007D01*
X1307468Y44173D01*
Y34016D01*
X1310007Y31477D01*
X1315086D01*
X1317625Y34016D01*
X1332860Y31477D02*
X1322703D01*
X1332860Y41634D01*
Y44173D01*
X1330321Y46712D01*
X1325242D01*
X1322703Y44173D01*
X1337938Y31477D02*
X1343017D01*
X1340477D01*
Y46712D01*
X1337938Y44173D01*
X779658Y1147549D02*
X777119Y1150088D01*
X772040D01*
X769501Y1147549D01*
Y1137393D01*
X772040Y1134853D01*
X777119D01*
X779658Y1137393D01*
X784736Y1134853D02*
Y1150088D01*
X792354D01*
X794893Y1147549D01*
Y1142471D01*
X792354Y1139932D01*
X784736D01*
X799971Y1134853D02*
X805050D01*
X802510D01*
Y1150088D01*
X799971Y1147549D01*
X1147958Y1039853D02*
X1145418Y1042392D01*
X1140340D01*
X1137801Y1039853D01*
Y1029697D01*
X1140340Y1027157D01*
X1145418D01*
X1147958Y1029697D01*
X1153036Y1027157D02*
Y1042392D01*
X1160654D01*
X1163193Y1039853D01*
Y1034775D01*
X1160654Y1032236D01*
X1153036D01*
X1178428Y1027157D02*
X1168271D01*
X1178428Y1037314D01*
Y1039853D01*
X1175889Y1042392D01*
X1170810D01*
X1168271Y1039853D01*
X604144Y49507D02*
X601604Y52046D01*
X596526D01*
X593987Y49507D01*
Y39351D01*
X596526Y36811D01*
X601604D01*
X604144Y39351D01*
X609222Y36811D02*
Y52046D01*
X616840D01*
X619379Y49507D01*
Y44429D01*
X616840Y41890D01*
X609222D01*
X624457Y49507D02*
X626996Y52046D01*
X632075D01*
X634614Y49507D01*
Y46968D01*
X632075Y44429D01*
X629535D01*
X632075D01*
X634614Y41890D01*
Y39351D01*
X632075Y36811D01*
X626996D01*
X624457Y39351D01*
X46360Y754357D02*
X43821Y756896D01*
X38742D01*
X36203Y754357D01*
Y744201D01*
X38742Y741661D01*
X43821D01*
X46360Y744201D01*
X51438Y741661D02*
Y756896D01*
X59056D01*
X61595Y754357D01*
Y749279D01*
X59056Y746740D01*
X51438D01*
X66673Y756896D02*
X76830D01*
Y754357D01*
X66673Y744201D01*
Y741661D01*
X517530Y835383D02*
X514991Y837922D01*
X509912D01*
X507373Y835383D01*
Y825227D01*
X509912Y822687D01*
X514991D01*
X517530Y825227D01*
X522608Y822687D02*
Y837922D01*
X530226D01*
X532765Y835383D01*
Y830305D01*
X530226Y827766D01*
X522608D01*
X537843Y835383D02*
X540382Y837922D01*
X545461D01*
X548000Y835383D01*
Y832844D01*
X545461Y830305D01*
X548000Y827766D01*
Y825227D01*
X545461Y822687D01*
X540382D01*
X537843Y825227D01*
Y827766D01*
X540382Y830305D01*
X537843Y832844D01*
Y835383D01*
X540382Y830305D02*
X545461D01*
X520835Y1391896D02*
Y1376661D01*
X528452D01*
X530992Y1379200D01*
Y1389357D01*
X528452Y1391896D01*
X520835D01*
X536070Y1376661D02*
X541148D01*
X538609D01*
Y1391896D01*
X536070Y1389357D01*
X763405Y1280644D02*
Y1265409D01*
X771022D01*
X773562Y1267949D01*
Y1278105D01*
X771022Y1280644D01*
X763405D01*
X788797Y1265409D02*
X778640D01*
X788797Y1275566D01*
Y1278105D01*
X786258Y1280644D01*
X781179D01*
X778640Y1278105D01*
X602115Y163806D02*
Y148571D01*
X609733D01*
X612272Y151110D01*
Y161267D01*
X609733Y163806D01*
X602115D01*
X617350Y161267D02*
X619889Y163806D01*
X624968D01*
X627507Y161267D01*
Y158728D01*
X624968Y156189D01*
X622428D01*
X624968D01*
X627507Y153650D01*
Y151110D01*
X624968Y148571D01*
X619889D01*
X617350Y151110D01*
X1130181Y835636D02*
Y820401D01*
X1137798D01*
X1140338Y822941D01*
Y833097D01*
X1137798Y835636D01*
X1130181D01*
X1145416Y820401D02*
X1150494D01*
X1147955D01*
Y835636D01*
X1145416Y833097D01*
X1168269Y820401D02*
X1158112D01*
X1168269Y830558D01*
Y833097D01*
X1165730Y835636D01*
X1160651D01*
X1158112Y833097D01*
X1075825Y723114D02*
Y707879D01*
X1083443D01*
X1085982Y710418D01*
Y720575D01*
X1083443Y723114D01*
X1075825D01*
X1091060Y707879D02*
X1096138D01*
X1093599D01*
Y723114D01*
X1091060Y720575D01*
X1103756D02*
X1106295Y723114D01*
X1111374D01*
X1113913Y720575D01*
Y718036D01*
X1111374Y715497D01*
X1108834D01*
X1111374D01*
X1113913Y712958D01*
Y710418D01*
X1111374Y707879D01*
X1106295D01*
X1103756Y710418D01*
X416187Y1356336D02*
X421265D01*
X418726D01*
Y1341101D01*
X416187D01*
X421265D01*
X428883D02*
Y1356336D01*
X436500D01*
X439040Y1353797D01*
Y1348719D01*
X436500Y1346180D01*
X428883D01*
X433961D02*
X439040Y1341101D01*
X444118D02*
X449196D01*
X446657D01*
Y1356336D01*
X444118Y1353797D01*
X866021Y1374116D02*
X871099D01*
X868560D01*
Y1358881D01*
X866021D01*
X871099D01*
X878717D02*
Y1374116D01*
X886334D01*
X888874Y1371577D01*
Y1366499D01*
X886334Y1363960D01*
X878717D01*
X883795D02*
X888874Y1358881D01*
X904109D02*
X893952D01*
X904109Y1369038D01*
Y1371577D01*
X901570Y1374116D01*
X896491D01*
X893952Y1371577D01*
X769247Y769855D02*
Y785090D01*
X774325Y780012D01*
X779404Y785090D01*
Y769855D01*
X784482D02*
X789560D01*
X787021D01*
Y785090D01*
X784482Y782551D01*
X425077Y748773D02*
Y764008D01*
X430155Y758930D01*
X435234Y764008D01*
Y748773D01*
X450469D02*
X440312D01*
X450469Y758930D01*
Y761469D01*
X447930Y764008D01*
X442851D01*
X440312Y761469D01*
X170061Y750045D02*
Y765280D01*
X177679D01*
X180218Y762741D01*
Y757663D01*
X177679Y755123D01*
X170061D01*
X187835D02*
X192914D01*
X195453Y757663D01*
Y762741D01*
X192914Y765280D01*
X187835D01*
X185296Y762741D01*
Y757663D01*
X187835Y755123D01*
X200531Y765280D02*
Y757663D01*
X203070Y755123D01*
X205609Y757663D01*
X208149Y755123D01*
X210688Y757663D01*
Y765280D01*
X223384Y755123D02*
X218305D01*
X215766Y757663D01*
Y762741D01*
X218305Y765280D01*
X223384D01*
X225923Y762741D01*
Y760202D01*
X215766D01*
X231001Y765280D02*
Y755123D01*
Y760202D01*
X233540Y762741D01*
X236080Y765280D01*
X238619D01*
X290203Y745979D02*
Y761214D01*
X297820D01*
X300360Y758675D01*
Y753597D01*
X297820Y751058D01*
X290203D01*
X295281D02*
X300360Y745979D01*
X315595Y761214D02*
X305438D01*
Y745979D01*
X315595D01*
X305438Y753597D02*
X310516D01*
X330830Y758675D02*
X328291Y761214D01*
X323212D01*
X320673Y758675D01*
Y748519D01*
X323212Y745979D01*
X328291D01*
X330830Y748519D01*
Y753597D01*
X325751D01*
X346065Y761214D02*
X335908D01*
Y753597D01*
X340987Y756136D01*
X343526D01*
X346065Y753597D01*
Y748519D01*
X343526Y745979D01*
X338447D01*
X335908Y748519D01*
X351143Y761214D02*
Y751058D01*
X356222Y745979D01*
X361300Y751058D01*
Y761214D01*
X630309Y1398500D02*
Y1385804D01*
X632848Y1383265D01*
X637926D01*
X640466Y1385804D01*
Y1398500D01*
X645544Y1383265D02*
X650622D01*
X648083D01*
Y1398500D01*
X645544Y1395961D01*
X987687Y987782D02*
Y975087D01*
X990226Y972547D01*
X995304D01*
X997844Y975087D01*
Y987782D01*
X1013079Y972547D02*
X1002922D01*
X1013079Y982704D01*
Y985243D01*
X1010540Y987782D01*
X1005461D01*
X1002922Y985243D01*
X290965Y1107162D02*
Y1094466D01*
X293504Y1091927D01*
X298582D01*
X301122Y1094466D01*
Y1107162D01*
X306200Y1104623D02*
X308739Y1107162D01*
X313818D01*
X316357Y1104623D01*
Y1102084D01*
X313818Y1099545D01*
X311278D01*
X313818D01*
X316357Y1097006D01*
Y1094466D01*
X313818Y1091927D01*
X308739D01*
X306200Y1094466D01*
X832239Y58396D02*
Y45700D01*
X834778Y43161D01*
X839856D01*
X842396Y45700D01*
Y58396D01*
X855092Y43161D02*
Y58396D01*
X847474Y50779D01*
X857631D01*
X409075Y117832D02*
Y105136D01*
X411614Y102597D01*
X416693D01*
X419232Y105136D01*
Y117832D01*
X434467D02*
X424310D01*
Y110215D01*
X429388Y112754D01*
X431928D01*
X434467Y110215D01*
Y105136D01*
X431928Y102597D01*
X426849D01*
X424310Y105136D01*
X1145421Y177268D02*
Y164573D01*
X1147960Y162033D01*
X1153038D01*
X1155578Y164573D01*
Y177268D01*
X1170813D02*
X1165734Y174729D01*
X1160656Y169651D01*
Y164573D01*
X1163195Y162033D01*
X1168274D01*
X1170813Y164573D01*
Y167112D01*
X1168274Y169651D01*
X1160656D01*
X127897Y182094D02*
Y169398D01*
X130436Y166859D01*
X135514D01*
X138054Y169398D01*
Y182094D01*
X143132D02*
X153289D01*
Y179555D01*
X143132Y169398D01*
Y166859D01*
X621419Y900152D02*
Y884917D01*
X631576D01*
X646811D02*
X636654D01*
X646811Y895074D01*
Y897613D01*
X644272Y900152D01*
X639193D01*
X636654Y897613D01*
X651889Y887457D02*
X654428Y884917D01*
X659507D01*
X662046Y887457D01*
Y897613D01*
X659507Y900152D01*
X654428D01*
X651889Y897613D01*
Y895074D01*
X654428Y892535D01*
X662046D01*
X667124Y897613D02*
X669663Y900152D01*
X674742D01*
X677281Y897613D01*
Y895074D01*
X674742Y892535D01*
X672203D01*
X674742D01*
X677281Y889996D01*
Y887457D01*
X674742Y884917D01*
X669663D01*
X667124Y887457D01*
X682359Y900152D02*
Y884917D01*
X689977D01*
X692516Y887457D01*
Y897613D01*
X689977Y900152D01*
X682359D01*
X864751Y1034518D02*
Y1024362D01*
X869829Y1019283D01*
X874908Y1024362D01*
Y1034518D01*
X879986Y1019283D02*
Y1034518D01*
X887604D01*
X890143Y1031979D01*
Y1026901D01*
X887604Y1024362D01*
X879986D01*
X885064D02*
X890143Y1019283D01*
X895221D02*
X900300D01*
X897760D01*
Y1034518D01*
X895221Y1031979D01*
X627261Y1130022D02*
Y1119866D01*
X632339Y1114787D01*
X637418Y1119866D01*
Y1130022D01*
X642496Y1114787D02*
Y1130022D01*
X650114D01*
X652653Y1127483D01*
Y1122405D01*
X650114Y1119866D01*
X642496D01*
X647574D02*
X652653Y1114787D01*
X667888D02*
X657731D01*
X667888Y1124944D01*
Y1127483D01*
X665349Y1130022D01*
X660270D01*
X657731Y1127483D01*
X853067Y892786D02*
Y882630D01*
X858145Y877551D01*
X863224Y882630D01*
Y892786D01*
X868302Y877551D02*
Y892786D01*
X875920D01*
X878459Y890247D01*
Y885169D01*
X875920Y882630D01*
X868302D01*
X873380D02*
X878459Y877551D01*
X883537Y890247D02*
X886076Y892786D01*
X891155D01*
X893694Y890247D01*
Y887708D01*
X891155Y885169D01*
X888615D01*
X891155D01*
X893694Y882630D01*
Y880090D01*
X891155Y877551D01*
X886076D01*
X883537Y880090D01*
X1252252Y951616D02*
Y941460D01*
X1257330Y936381D01*
X1262408Y941460D01*
Y951616D01*
X1267487Y936381D02*
Y951616D01*
X1275104D01*
X1277643Y949077D01*
Y943999D01*
X1275104Y941460D01*
X1267487D01*
X1272565D02*
X1277643Y936381D01*
X1290339D02*
Y951616D01*
X1282722Y943999D01*
X1292878D01*
X1136277Y735306D02*
Y725150D01*
X1141355Y720071D01*
X1146434Y725150D01*
Y735306D01*
X1151512Y720071D02*
Y735306D01*
X1159130D01*
X1161669Y732767D01*
Y727689D01*
X1159130Y725150D01*
X1151512D01*
X1156590D02*
X1161669Y720071D01*
X1176904Y735306D02*
X1166747D01*
Y727689D01*
X1171825Y730228D01*
X1174365D01*
X1176904Y727689D01*
Y722610D01*
X1174365Y720071D01*
X1169286D01*
X1166747Y722610D01*
X1249712Y1082426D02*
Y1072270D01*
X1254790Y1067191D01*
X1259868Y1072270D01*
Y1082426D01*
X1264947Y1067191D02*
Y1082426D01*
X1272564D01*
X1275103Y1079887D01*
Y1074809D01*
X1272564Y1072270D01*
X1264947D01*
X1270025D02*
X1275103Y1067191D01*
X1280182Y1082426D02*
X1290338D01*
Y1079887D01*
X1280182Y1069731D01*
Y1067191D01*
X524899Y1036042D02*
Y1025886D01*
X529977Y1020807D01*
X535056Y1025886D01*
Y1036042D01*
X540134Y1020807D02*
Y1036042D01*
X547752D01*
X550291Y1033503D01*
Y1028425D01*
X547752Y1025886D01*
X540134D01*
X545212D02*
X550291Y1020807D01*
X555369Y1033503D02*
X557908Y1036042D01*
X562987D01*
X565526Y1033503D01*
Y1030964D01*
X562987Y1028425D01*
X565526Y1025886D01*
Y1023346D01*
X562987Y1020807D01*
X557908D01*
X555369Y1023346D01*
Y1025886D01*
X557908Y1028425D01*
X555369Y1030964D01*
Y1033503D01*
X557908Y1028425D02*
X562987D01*
X1056521Y1158978D02*
Y1148822D01*
X1061599Y1143743D01*
X1066678Y1148822D01*
Y1158978D01*
X1071756Y1143743D02*
Y1158978D01*
X1079374D01*
X1081913Y1156439D01*
Y1151361D01*
X1079374Y1148822D01*
X1071756D01*
X1076834D02*
X1081913Y1143743D01*
X1086991Y1146283D02*
X1089530Y1143743D01*
X1094609D01*
X1097148Y1146283D01*
Y1156439D01*
X1094609Y1158978D01*
X1089530D01*
X1086991Y1156439D01*
Y1153900D01*
X1089530Y1151361D01*
X1097148D01*
X835287Y192762D02*
Y182606D01*
X840365Y177527D01*
X845444Y182606D01*
Y192762D01*
X850522Y177527D02*
Y192762D01*
X858140D01*
X860679Y190223D01*
Y185145D01*
X858140Y182606D01*
X850522D01*
X855600D02*
X860679Y177527D01*
X865757D02*
X870835D01*
X868296D01*
Y192762D01*
X865757Y190223D01*
X878453D02*
X880992Y192762D01*
X886071D01*
X888610Y190223D01*
Y180067D01*
X886071Y177527D01*
X880992D01*
X878453Y180067D01*
Y190223D01*
X1256419Y192508D02*
Y182352D01*
X1261497Y177273D01*
X1266576Y182352D01*
Y192508D01*
X1271654Y177273D02*
Y192508D01*
X1279272D01*
X1281811Y189969D01*
Y184891D01*
X1279272Y182352D01*
X1271654D01*
X1276732D02*
X1281811Y177273D01*
X1286889D02*
X1291967D01*
X1289428D01*
Y192508D01*
X1286889Y189969D01*
X1299585Y177273D02*
X1304663D01*
X1302124D01*
Y192508D01*
X1299585Y189969D01*
X584589Y-93496D02*
Y-103652D01*
X589667Y-108731D01*
X594746Y-103652D01*
Y-93496D01*
X599824Y-108731D02*
Y-93496D01*
X607442D01*
X609981Y-96035D01*
Y-101113D01*
X607442Y-103652D01*
X599824D01*
X604902D02*
X609981Y-108731D01*
X615059D02*
X620137D01*
X617598D01*
Y-93496D01*
X615059Y-96035D01*
X637912Y-108731D02*
X627755D01*
X637912Y-98574D01*
Y-96035D01*
X635373Y-93496D01*
X630294D01*
X627755Y-96035D01*
X142375Y1058902D02*
Y1048746D01*
X147453Y1043667D01*
X152532Y1048746D01*
Y1058902D01*
X157610Y1043667D02*
Y1058902D01*
X165228D01*
X167767Y1056363D01*
Y1051285D01*
X165228Y1048746D01*
X157610D01*
X162688D02*
X167767Y1043667D01*
X172845D02*
X177924D01*
X175384D01*
Y1058902D01*
X172845Y1056363D01*
X185541D02*
X188080Y1058902D01*
X193159D01*
X195698Y1056363D01*
Y1053824D01*
X193159Y1051285D01*
X190619D01*
X193159D01*
X195698Y1048746D01*
Y1046207D01*
X193159Y1043667D01*
X188080D01*
X185541Y1046207D01*
X728099Y1004292D02*
Y994136D01*
X733177Y989057D01*
X738256Y994136D01*
Y1004292D01*
X743334Y989057D02*
Y1004292D01*
X750952D01*
X753491Y1001753D01*
Y996675D01*
X750952Y994136D01*
X743334D01*
X748412D02*
X753491Y989057D01*
X758569D02*
X763648D01*
X761108D01*
Y1004292D01*
X758569Y1001753D01*
X781422Y1004292D02*
X771265D01*
Y996675D01*
X776343Y999214D01*
X778883D01*
X781422Y996675D01*
Y991597D01*
X778883Y989057D01*
X773804D01*
X771265Y991597D01*
D15*
X1269349Y710969D02*
X1274349D01*
X1269349Y786270D02*
X1274349D01*
X1269349Y796270D02*
X1317649D01*
X1269349Y786270D02*
Y796270D01*
Y700969D02*
Y710969D01*
Y700969D02*
X1317649D01*
Y796270D01*
X1274349Y710969D02*
Y713780D01*
Y783459D02*
Y786270D01*
Y732660D02*
Y764580D01*
X550980Y942608D02*
Y974529D01*
Y993408D02*
Y996219D01*
Y920918D02*
Y923728D01*
X594280Y910918D02*
Y1006219D01*
X545979Y910918D02*
X594280D01*
X545979D02*
Y920918D01*
Y996219D02*
Y1006219D01*
X594280D01*
X545979Y996219D02*
X550980D01*
X545979Y920918D02*
X550980D01*
X168335Y965591D02*
Y997511D01*
Y1016391D02*
Y1019202D01*
Y943901D02*
Y946711D01*
X211635Y933901D02*
Y1029202D01*
X163335Y933901D02*
X211635D01*
X163335D02*
Y943901D01*
Y1019202D02*
Y1029202D01*
X211635D01*
X163335Y1019202D02*
X168335D01*
X163335Y943901D02*
X168335D01*
X616474Y-144796D02*
X648394D01*
X667274D02*
X670084D01*
X594784D02*
X597594D01*
X584784Y-188095D02*
X680084D01*
X584784D02*
Y-139795D01*
X594784D01*
X670084D02*
X680084D01*
Y-188095D02*
Y-139795D01*
X670084Y-144796D02*
Y-139795D01*
X594784Y-144796D02*
Y-139795D01*
X663384Y1040297D02*
X695304D01*
X641694D02*
X644504D01*
X714184D02*
X716994D01*
X631694Y1083597D02*
X726994D01*
Y1035297D02*
Y1083597D01*
X716994Y1035297D02*
X726994D01*
X631694D02*
X641694D01*
X631694D02*
Y1083597D01*
X641694Y1035297D02*
Y1040297D01*
X716994Y1035297D02*
Y1040297D01*
X871309Y103071D02*
X903230D01*
X849619D02*
X852430D01*
X922109D02*
X924920D01*
X839619Y146371D02*
X934920D01*
Y98071D02*
Y146371D01*
X924920Y98071D02*
X934920D01*
X839619D02*
X849619D01*
X839619D02*
Y146371D01*
X849619Y98071D02*
Y103071D01*
X924920Y98071D02*
Y103071D01*
X1082639Y1065634D02*
Y1097553D01*
Y1116434D02*
Y1119243D01*
Y1043944D02*
Y1046753D01*
X1125939Y1033944D02*
Y1129243D01*
X1077639Y1033944D02*
X1125939D01*
X1077639D02*
Y1043944D01*
Y1119243D02*
Y1129243D01*
X1125939D01*
X1077639Y1119243D02*
X1082639D01*
X1077639Y1043944D02*
X1082639D01*
X1275619Y989200D02*
Y1021120D01*
Y1039999D02*
Y1042810D01*
Y967510D02*
Y970320D01*
X1318919Y957510D02*
Y1052810D01*
X1270619Y957510D02*
X1318919D01*
X1270619D02*
Y967510D01*
Y1042810D02*
Y1052810D01*
X1318919D01*
X1270619Y1042810D02*
X1275619D01*
X1270619Y967510D02*
X1275619D01*
X929066Y945218D02*
Y977138D01*
Y923528D02*
Y926338D01*
Y996018D02*
Y998828D01*
X885767Y913528D02*
Y1008828D01*
X934067D01*
Y998828D02*
Y1008828D01*
Y913528D02*
Y923528D01*
X885767Y913528D02*
X934067D01*
X929066Y923528D02*
X934067D01*
X929066Y998828D02*
X934067D01*
X879070Y799501D02*
Y831420D01*
Y850301D02*
Y853110D01*
Y777811D02*
Y780620D01*
X922369Y767811D02*
Y863110D01*
X874069Y767811D02*
X922369D01*
X874069D02*
Y777811D01*
Y853110D02*
Y863110D01*
X922369D01*
X874069Y853110D02*
X879070D01*
X874069Y777811D02*
X879070D01*
X1292472Y102799D02*
X1324392D01*
X1270782D02*
X1273592D01*
X1343272D02*
X1346082D01*
X1260782Y146099D02*
X1356082D01*
Y97799D02*
Y146099D01*
X1346082Y97799D02*
X1356082D01*
X1260782D02*
X1270782D01*
X1260782D02*
Y146099D01*
X1270782Y97799D02*
Y102799D01*
X1346082Y97799D02*
Y102799D01*
X759949Y952875D02*
X791869D01*
X810749D02*
X813559D01*
X738259D02*
X741069D01*
X728259Y909575D02*
X823559D01*
X728259D02*
Y957875D01*
X738259D01*
X813559D02*
X823559D01*
Y909575D02*
Y957875D01*
X813559Y952875D02*
Y957875D01*
X738259Y952875D02*
Y957875D01*
X1278159Y858390D02*
Y890310D01*
Y909190D02*
Y912000D01*
Y836700D02*
Y839510D01*
X1321459Y826700D02*
Y922000D01*
X1273159Y826700D02*
X1321459D01*
X1273159D02*
Y836700D01*
Y912000D02*
Y922000D01*
X1321459D01*
X1273159Y912000D02*
X1278159D01*
X1273159Y836700D02*
X1278159D01*
X1162284Y641909D02*
Y673829D01*
Y692709D02*
Y695519D01*
Y620219D02*
Y623029D01*
X1205584Y610219D02*
Y705519D01*
X1157284Y610219D02*
X1205584D01*
X1157284D02*
Y620219D01*
Y695519D02*
Y705519D01*
X1205584D01*
X1157284Y695519D02*
X1162284D01*
X1157284Y620219D02*
X1162284D01*
M02*
