G04*
G04 #@! TF.GenerationSoftware,Altium Limited,Altium Designer,24.1.2 (44)*
G04*
G04 Layer_Color=128*
%FSLAX44Y44*%
%MOMM*%
G71*
G04*
G04 #@! TF.SameCoordinates,85EAEC8C-3496-431A-917F-130F63ABBC40*
G04*
G04*
G04 #@! TF.FilePolarity,Positive*
G04*
G01*
G75*
%ADD15C,0.1270*%
D15*
X1277049Y723219D02*
X1284449D01*
X1280749Y719519D02*
Y726919D01*
X1302449Y748619D02*
X1309849D01*
X1306149Y744919D02*
Y752319D01*
X1277049Y774019D02*
X1284449D01*
X1280749Y770319D02*
Y777719D01*
X639237Y601959D02*
X649437D01*
X644337Y596859D02*
Y607059D01*
X613837Y601959D02*
X624037D01*
X618937Y596859D02*
Y607059D01*
X588437Y601959D02*
X598637D01*
X593537Y596859D02*
Y607059D01*
X563037Y601959D02*
X573237D01*
X568137Y596859D02*
Y607059D01*
X537637Y601959D02*
X547837D01*
X542737Y596859D02*
Y607059D01*
X512237Y601959D02*
X522437D01*
X517337Y596859D02*
Y607059D01*
X886581Y597503D02*
X896781D01*
X891681Y592403D02*
Y602603D01*
X861181Y597503D02*
X871381D01*
X866281Y592403D02*
Y602603D01*
X835781Y597503D02*
X845981D01*
X840881Y592403D02*
Y602603D01*
X810381Y597503D02*
X820581D01*
X815481Y592403D02*
Y602603D01*
X784981Y597503D02*
X795181D01*
X790081Y592403D02*
Y602603D01*
X759581Y597503D02*
X769781D01*
X764681Y592403D02*
Y602603D01*
X323573Y597056D02*
X331573D01*
X327573Y593056D02*
Y601055D01*
X343573Y597056D02*
X351573D01*
X347573Y593056D02*
Y601055D01*
X363573Y597056D02*
X371573D01*
X367573Y593056D02*
Y601055D01*
X553680Y983968D02*
X561079D01*
X557379Y980268D02*
Y987668D01*
X579080Y958568D02*
X586479D01*
X582780Y954868D02*
Y962268D01*
X553680Y933168D02*
X561079D01*
X557379Y929468D02*
Y936868D01*
X171035Y1006951D02*
X178435D01*
X174735Y1003251D02*
Y1010651D01*
X196435Y981551D02*
X203835D01*
X200135Y977851D02*
Y985251D01*
X171035Y956151D02*
X178435D01*
X174735Y952451D02*
Y959851D01*
X545407Y753017D02*
X553408D01*
X549408Y749017D02*
Y757017D01*
X545407Y788017D02*
X553408D01*
X549408Y784017D02*
Y792017D01*
X294555Y1059224D02*
X303555D01*
X299055Y1054724D02*
Y1063724D01*
X294555Y1033824D02*
X303555D01*
X299055Y1029324D02*
Y1038324D01*
X294555Y1008424D02*
X303555D01*
X299055Y1003924D02*
Y1012924D01*
X294555Y983024D02*
X303555D01*
X299055Y978524D02*
Y987524D01*
X294555Y957624D02*
X303555D01*
X299055Y953124D02*
Y962124D01*
X294555Y932224D02*
X303555D01*
X299055Y927724D02*
Y936724D01*
X294555Y906824D02*
X303555D01*
X299055Y902324D02*
Y911324D01*
X370755Y1059224D02*
X379755D01*
X375255Y1054724D02*
Y1063724D01*
X370755Y1033824D02*
X379755D01*
X375255Y1029324D02*
Y1038324D01*
X370755Y1008424D02*
X379755D01*
X375255Y1003924D02*
Y1012924D01*
X370755Y983024D02*
X379755D01*
X375255Y978524D02*
Y987524D01*
X370755Y957624D02*
X379755D01*
X375255Y953124D02*
Y962124D01*
X370755Y932224D02*
X379755D01*
X375255Y927724D02*
Y936724D01*
X370755Y906824D02*
X379755D01*
X375255Y902324D02*
Y911324D01*
X188609Y665820D02*
X197609D01*
X193109Y661320D02*
Y670321D01*
X188609Y690821D02*
X197609D01*
X193109Y686321D02*
Y695321D01*
X188609Y715821D02*
X197609D01*
X193109Y711321D02*
Y720321D01*
X131531Y134298D02*
X140531D01*
X136031Y129798D02*
Y138798D01*
X131531Y108898D02*
X140531D01*
X136031Y104398D02*
Y113398D01*
X131531Y83498D02*
X140531D01*
X136031Y78998D02*
Y87998D01*
X131531Y58098D02*
X140531D01*
X136031Y53598D02*
Y62598D01*
X131531Y32698D02*
X140531D01*
X136031Y28198D02*
Y37198D01*
X131531Y7298D02*
X140531D01*
X136031Y2798D02*
Y11798D01*
X131531Y-18102D02*
X140531D01*
X136031Y-22602D02*
Y-13602D01*
X207731Y134298D02*
X216731D01*
X212231Y129798D02*
Y138798D01*
X207731Y108898D02*
X216731D01*
X212231Y104398D02*
Y113398D01*
X207731Y83498D02*
X216731D01*
X212231Y78998D02*
Y87998D01*
X207731Y58098D02*
X216731D01*
X212231Y53598D02*
Y62598D01*
X207731Y32698D02*
X216731D01*
X212231Y28198D02*
Y37198D01*
X207731Y7298D02*
X216731D01*
X212231Y2798D02*
Y11798D01*
X207731Y-18102D02*
X216731D01*
X212231Y-22602D02*
Y-13602D01*
X654134Y-151195D02*
X661533D01*
X657833Y-154895D02*
Y-147495D01*
X628733Y-176595D02*
X636133D01*
X632434Y-180295D02*
Y-172895D01*
X603334Y-151195D02*
X610733D01*
X607034Y-154895D02*
Y-147495D01*
X650244Y1046697D02*
X657644D01*
X653944Y1042997D02*
Y1050397D01*
X675644Y1072097D02*
X683044D01*
X679344Y1068397D02*
Y1075797D01*
X701044Y1046697D02*
X708444D01*
X704744Y1042997D02*
Y1050397D01*
X894914Y1318937D02*
X903914D01*
X899414Y1314437D02*
Y1323437D01*
X894914Y1293937D02*
X903914D01*
X899414Y1289437D02*
Y1298436D01*
X894914Y1268936D02*
X903914D01*
X899414Y1264436D02*
Y1273436D01*
X709998Y1198132D02*
X718998D01*
X714498Y1193632D02*
Y1202632D01*
X709998Y1223532D02*
X718998D01*
X714498Y1219032D02*
Y1228032D01*
X709998Y1248932D02*
X718998D01*
X714498Y1244432D02*
Y1253432D01*
X709998Y1274332D02*
X718998D01*
X714498Y1269832D02*
Y1278832D01*
X709998Y1299732D02*
X718998D01*
X714498Y1295232D02*
Y1304232D01*
X709998Y1325132D02*
X718998D01*
X714498Y1320632D02*
Y1329632D01*
X709998Y1350532D02*
X718998D01*
X714498Y1346032D02*
Y1355032D01*
X633798Y1198132D02*
X642798D01*
X638298Y1193632D02*
Y1202632D01*
X633798Y1223532D02*
X642798D01*
X638298Y1219032D02*
Y1228032D01*
X633798Y1248932D02*
X642798D01*
X638298Y1244432D02*
Y1253432D01*
X633798Y1274332D02*
X642798D01*
X638298Y1269832D02*
Y1278832D01*
X633798Y1299732D02*
X642798D01*
X638298Y1295232D02*
Y1304232D01*
X633798Y1325132D02*
X642798D01*
X638298Y1320632D02*
Y1329632D01*
X633798Y1350532D02*
X642798D01*
X638298Y1346032D02*
Y1355032D01*
X434658Y1257021D02*
X443658D01*
X439158Y1252521D02*
Y1261521D01*
X434658Y1282020D02*
X443658D01*
X439158Y1277520D02*
Y1286520D01*
X434658Y1307021D02*
X443658D01*
X439158Y1302521D02*
Y1311521D01*
X858170Y109471D02*
X865570D01*
X861870Y105771D02*
Y113171D01*
X883570Y134871D02*
X890970D01*
X887270Y131171D02*
Y138571D01*
X908970Y109471D02*
X916370D01*
X912670Y105771D02*
Y113171D01*
X835745Y10492D02*
X844745D01*
X840245Y5992D02*
Y14992D01*
X835745Y-14908D02*
X844745D01*
X840245Y-19408D02*
Y-10408D01*
X835745Y-40308D02*
X844745D01*
X840245Y-44808D02*
Y-35808D01*
X835745Y-65708D02*
X844745D01*
X840245Y-70208D02*
Y-61208D01*
X835745Y-91108D02*
X844745D01*
X840245Y-95608D02*
Y-86608D01*
X835745Y-116508D02*
X844745D01*
X840245Y-121008D02*
Y-112008D01*
X835745Y-141908D02*
X844745D01*
X840245Y-146408D02*
Y-137408D01*
X911945Y10492D02*
X920945D01*
X916445Y5992D02*
Y14992D01*
X911945Y-14908D02*
X920945D01*
X916445Y-19408D02*
Y-10408D01*
X911945Y-40308D02*
X920945D01*
X916445Y-44808D02*
Y-35808D01*
X911945Y-65708D02*
X920945D01*
X916445Y-70208D02*
Y-61208D01*
X911945Y-91108D02*
X920945D01*
X916445Y-95608D02*
Y-86608D01*
X911945Y-116508D02*
X920945D01*
X916445Y-121008D02*
Y-112008D01*
X911945Y-141908D02*
X920945D01*
X916445Y-146408D02*
Y-137408D01*
X1085339Y1106994D02*
X1092739D01*
X1089039Y1103294D02*
Y1110694D01*
X1110739Y1081594D02*
X1118139D01*
X1114439Y1077894D02*
Y1085294D01*
X1085339Y1056194D02*
X1092739D01*
X1089039Y1052494D02*
Y1059894D01*
X1278319Y1030559D02*
X1285719D01*
X1282019Y1026859D02*
Y1034259D01*
X1303719Y1005159D02*
X1311119D01*
X1307419Y1001459D02*
Y1008859D01*
X1278319Y979759D02*
X1285719D01*
X1282019Y976059D02*
Y983459D01*
X1175678Y992561D02*
X1183679D01*
X1179678Y988561D02*
Y996562D01*
X1175678Y957562D02*
X1183679D01*
X1179678Y953562D02*
Y961562D01*
X807457Y1100196D02*
X815457D01*
X811457Y1096196D02*
Y1104196D01*
X807457Y1065196D02*
X815457D01*
X811457Y1061196D02*
Y1069196D01*
X918967Y935778D02*
X926367D01*
X922667Y932078D02*
Y939478D01*
X893567Y961178D02*
X900966D01*
X897267Y957478D02*
Y964878D01*
X918967Y986578D02*
X926367D01*
X922667Y982878D02*
Y990278D01*
X881769Y840861D02*
X889169D01*
X885469Y837160D02*
Y844560D01*
X907169Y815461D02*
X914569D01*
X910869Y811760D02*
Y819161D01*
X881769Y790061D02*
X889169D01*
X885469Y786360D02*
Y793761D01*
X991183Y939959D02*
X1000183D01*
X995683Y935459D02*
Y944459D01*
X991183Y914559D02*
X1000183D01*
X995683Y910059D02*
Y919059D01*
X991183Y889159D02*
X1000183D01*
X995683Y884659D02*
Y893659D01*
X991183Y863759D02*
X1000183D01*
X995683Y859259D02*
Y868259D01*
X991183Y838359D02*
X1000183D01*
X995683Y833859D02*
Y842859D01*
X991183Y812959D02*
X1000183D01*
X995683Y808459D02*
Y817459D01*
X991183Y787559D02*
X1000183D01*
X995683Y783059D02*
Y792059D01*
X1067383Y939959D02*
X1076383D01*
X1071883Y935459D02*
Y944459D01*
X1067383Y914559D02*
X1076383D01*
X1071883Y910059D02*
Y919059D01*
X1067383Y889159D02*
X1076383D01*
X1071883Y884659D02*
Y893659D01*
X1067383Y863759D02*
X1076383D01*
X1071883Y859259D02*
Y868259D01*
X1067383Y838359D02*
X1076383D01*
X1071883Y833859D02*
Y842859D01*
X1067383Y812959D02*
X1076383D01*
X1071883Y808459D02*
Y817459D01*
X1067383Y787559D02*
X1076383D01*
X1071883Y783059D02*
Y792059D01*
X412771Y69857D02*
X421771D01*
X417271Y65357D02*
Y74357D01*
X412771Y44457D02*
X421771D01*
X417271Y39957D02*
Y48957D01*
X412771Y19057D02*
X421771D01*
X417271Y14557D02*
Y23557D01*
X412771Y-6343D02*
X421771D01*
X417271Y-10843D02*
Y-1843D01*
X412771Y-31743D02*
X421771D01*
X417271Y-36243D02*
Y-27243D01*
X412771Y-57143D02*
X421771D01*
X417271Y-61643D02*
Y-52643D01*
X412771Y-82543D02*
X421771D01*
X417271Y-87043D02*
Y-78043D01*
X488971Y69857D02*
X497971D01*
X493471Y65357D02*
Y74357D01*
X488971Y44457D02*
X497971D01*
X493471Y39957D02*
Y48957D01*
X488971Y19057D02*
X497971D01*
X493471Y14557D02*
Y23557D01*
X488971Y-6343D02*
X497971D01*
X493471Y-10843D02*
Y-1843D01*
X488971Y-31743D02*
X497971D01*
X493471Y-36243D02*
Y-27243D01*
X488971Y-57143D02*
X497971D01*
X493471Y-61643D02*
Y-52643D01*
X488971Y-82543D02*
X497971D01*
X493471Y-87043D02*
Y-78043D01*
X701242Y685712D02*
X709242D01*
X705242Y681712D02*
Y689712D01*
X701242Y711112D02*
X709242D01*
X705242Y707112D02*
Y715112D01*
X701242Y736512D02*
X709242D01*
X705242Y732512D02*
Y740512D01*
X701242Y761912D02*
X709242D01*
X705242Y757912D02*
Y765912D01*
X701242Y787312D02*
X709242D01*
X705242Y783312D02*
Y791312D01*
X701242Y812712D02*
X709242D01*
X705242Y808712D02*
Y816712D01*
X701242Y838112D02*
X709242D01*
X705242Y834112D02*
Y842112D01*
X701242Y863512D02*
X709242D01*
X705242Y859512D02*
Y867512D01*
X625042Y685712D02*
X633042D01*
X629042Y681712D02*
Y689712D01*
X625042Y711112D02*
X633042D01*
X629042Y707112D02*
Y715112D01*
X625042Y736512D02*
X633042D01*
X629042Y732512D02*
Y740512D01*
X625042Y761912D02*
X633042D01*
X629042Y757912D02*
Y765912D01*
X625042Y787312D02*
X633042D01*
X629042Y783312D02*
Y791312D01*
X625042Y812712D02*
X633042D01*
X629042Y808712D02*
Y816712D01*
X625042Y838112D02*
X633042D01*
X629042Y834112D02*
Y842112D01*
X625042Y863512D02*
X633042D01*
X629042Y859512D02*
Y867512D01*
X74113Y671969D02*
X82113D01*
X78113Y667969D02*
Y675969D01*
X74113Y706969D02*
X82113D01*
X78113Y702969D02*
Y710968D01*
X1279332Y109199D02*
X1286732D01*
X1283032Y105499D02*
Y112899D01*
X1304732Y134599D02*
X1312132D01*
X1308432Y130899D02*
Y138299D01*
X1330132Y109199D02*
X1337532D01*
X1333832Y105499D02*
Y112899D01*
X1148977Y129383D02*
X1157977D01*
X1153477Y124883D02*
Y133883D01*
X1148977Y103983D02*
X1157977D01*
X1153477Y99483D02*
Y108483D01*
X1148977Y78583D02*
X1157977D01*
X1153477Y74083D02*
Y83083D01*
X1148977Y53183D02*
X1157977D01*
X1153477Y48683D02*
Y57683D01*
X1148977Y27783D02*
X1157977D01*
X1153477Y23283D02*
Y32283D01*
X1148977Y2383D02*
X1157977D01*
X1153477Y-2117D02*
Y6883D01*
X1148977Y-23017D02*
X1157977D01*
X1153477Y-27517D02*
Y-18517D01*
X1225177Y129383D02*
X1234177D01*
X1229677Y124883D02*
Y133883D01*
X1225177Y103983D02*
X1234177D01*
X1229677Y99483D02*
Y108483D01*
X1225177Y78583D02*
X1234177D01*
X1229677Y74083D02*
Y83083D01*
X1225177Y53183D02*
X1234177D01*
X1229677Y48683D02*
Y57683D01*
X1225177Y27783D02*
X1234177D01*
X1229677Y23283D02*
Y32283D01*
X1225177Y2383D02*
X1234177D01*
X1229677Y-2117D02*
Y6883D01*
X1225177Y-23017D02*
X1234177D01*
X1229677Y-27517D02*
Y-18517D01*
X631989Y-32908D02*
X639989D01*
X635989Y-36908D02*
Y-28908D01*
X631989Y2092D02*
X639989D01*
X635989Y-1909D02*
Y6091D01*
X797608Y946475D02*
X805008D01*
X801308Y942775D02*
Y950175D01*
X772208Y921075D02*
X779608D01*
X775908Y917375D02*
Y924775D01*
X746808Y946475D02*
X754208D01*
X750508Y942775D02*
Y950175D01*
X1280859Y899749D02*
X1288259D01*
X1284559Y896049D02*
Y903449D01*
X1306259Y874349D02*
X1313659D01*
X1309959Y870649D02*
Y878049D01*
X1280859Y848949D02*
X1288259D01*
X1284559Y845249D02*
Y852649D01*
X1164984Y683269D02*
X1172384D01*
X1168684Y679569D02*
Y686969D01*
X1190384Y657869D02*
X1197784D01*
X1194084Y654169D02*
Y661569D01*
X1164984Y632469D02*
X1172384D01*
X1168684Y628769D02*
Y636169D01*
X443106Y689755D02*
X453106D01*
X448106Y684755D02*
Y694755D01*
X443106Y714756D02*
X453106D01*
X448106Y709756D02*
Y719756D01*
X797793Y728478D02*
X807793D01*
X802793Y723478D02*
Y733478D01*
X797793Y703477D02*
X807793D01*
X802793Y698477D02*
Y708477D01*
X167267Y311897D02*
X189767D01*
X178517Y300647D02*
Y323147D01*
X167267Y487429D02*
X189767D01*
X178517Y476179D02*
Y498679D01*
X1179903Y313230D02*
X1202403D01*
X1191153Y301980D02*
Y324480D01*
X1179903Y488762D02*
X1202403D01*
X1191153Y477512D02*
Y500012D01*
X189636Y176484D02*
X196748D01*
X193192Y172928D02*
Y180040D01*
X900976Y922835D02*
X908088D01*
X904532Y919279D02*
Y926391D01*
X1112406Y777576D02*
X1119518D01*
X1115962Y774020D02*
Y781132D01*
X758703Y-148487D02*
X765815D01*
X762259Y-152043D02*
Y-144931D01*
X769780Y36009D02*
X776892D01*
X773336Y32453D02*
Y39565D01*
X77306Y97778D02*
X84418D01*
X80862Y94222D02*
Y101334D01*
X58047Y95628D02*
X65159D01*
X61603Y92072D02*
Y99184D01*
X698635Y32493D02*
X705747D01*
X702191Y28937D02*
Y36049D01*
X1094625Y772128D02*
X1101737D01*
X1098181Y768572D02*
Y775684D01*
X356497Y832765D02*
X363609D01*
X360053Y829209D02*
Y836320D01*
X483802Y1274332D02*
X490914D01*
X487358Y1270776D02*
Y1277888D01*
X869069Y-109528D02*
X876181D01*
X872625Y-113084D02*
Y-105972D01*
X473845Y-137955D02*
X480957D01*
X477401Y-141511D02*
Y-134399D01*
X467241Y933168D02*
X474353D01*
X470797Y929612D02*
Y936724D01*
X780169Y53201D02*
X787281D01*
X783725Y49645D02*
Y56757D01*
X1265309Y-11266D02*
X1272421D01*
X1268865Y-14822D02*
Y-7710D01*
X77925Y69778D02*
X85037D01*
X81481Y66223D02*
Y73334D01*
X689491Y578085D02*
X696603D01*
X693047Y574529D02*
Y581641D01*
X172347Y29699D02*
X179459D01*
X175903Y26143D02*
Y33255D01*
X208675Y-71647D02*
X215787D01*
X212231Y-75203D02*
Y-68091D01*
X258199Y920323D02*
X265311D01*
X261755Y916767D02*
Y923879D01*
X414155Y1042143D02*
X421267D01*
X417711Y1038587D02*
Y1045699D01*
X465463Y1101579D02*
X472575D01*
X469019Y1098023D02*
Y1105135D01*
X51443Y1032745D02*
X58555D01*
X54999Y1029189D02*
Y1036301D01*
X604147Y-114065D02*
X611259D01*
X607703Y-117621D02*
Y-110509D01*
X897682Y-128035D02*
X904794D01*
X901238Y-131591D02*
Y-124479D01*
X334272Y-42691D02*
X341384D01*
X337828Y-46247D02*
Y-39135D01*
X538615Y1166857D02*
X545727D01*
X542171Y1163301D02*
Y1170413D01*
X260739Y15475D02*
X267851D01*
X264295Y11919D02*
Y19031D01*
X250579Y-40913D02*
X257691D01*
X254135Y-44469D02*
Y-37357D01*
X511737Y1030413D02*
X518849D01*
X515293Y1026857D02*
Y1033969D01*
X796425Y1013441D02*
X803537D01*
X799981Y1009885D02*
Y1016997D01*
X248039Y884790D02*
X255151D01*
X251595Y881234D02*
Y888346D01*
X538234Y96291D02*
X545346D01*
X541790Y92734D02*
Y99846D01*
X520581Y181845D02*
X527693D01*
X524137Y178289D02*
Y185401D01*
X107577Y951465D02*
X114689D01*
X111133Y947909D02*
Y955021D01*
X1003689Y964165D02*
X1010801D01*
X1007245Y960609D02*
Y967721D01*
X1028073Y821671D02*
X1035185D01*
X1031629Y818115D02*
Y825227D01*
X762643Y832085D02*
X769755D01*
X766199Y828529D02*
Y835641D01*
X264549Y-164611D02*
X271661D01*
X268105Y-168167D02*
Y-161055D01*
X891675Y-61536D02*
X898787D01*
X895231Y-65092D02*
Y-57979D01*
X345321Y139427D02*
X352433D01*
X348877Y135871D02*
Y142983D01*
X493403Y743947D02*
X500515D01*
X496959Y740391D02*
Y747503D01*
X388755Y613645D02*
X395867D01*
X392311Y610089D02*
Y617201D01*
X1099193Y871470D02*
X1106305D01*
X1102749Y867914D02*
Y875026D01*
X977527Y1116311D02*
X984639D01*
X981083Y1112755D02*
Y1119867D01*
X331859Y-2305D02*
X338971D01*
X335415Y-5861D02*
Y1251D01*
X892691Y1122661D02*
X899803D01*
X896247Y1119105D02*
Y1126217D01*
X506357Y93199D02*
X513469D01*
X509913Y89643D02*
Y96755D01*
X518295Y1325353D02*
X525407D01*
X521851Y1321797D02*
Y1328909D01*
M02*
