G04*
G04 #@! TF.GenerationSoftware,Altium Limited,Altium Designer,24.1.2 (44)*
G04*
G04 Layer_Color=16711935*
%FSLAX44Y44*%
%MOMM*%
G71*
G04*
G04 #@! TF.SameCoordinates,85EAEC8C-3496-431A-917F-130F63ABBC40*
G04*
G04*
G04 #@! TF.FilePolarity,Negative*
G04*
G01*
G75*
%ADD37C,1.3432*%
%ADD38R,1.3432X1.3432*%
%ADD39C,1.5700*%
%ADD40R,1.5700X1.5700*%
%ADD41C,1.3000*%
%ADD42R,1.3000X1.3000*%
%ADD43R,1.3000X1.3000*%
%ADD44R,1.7032X1.7032*%
%ADD45C,1.7032*%
%ADD46R,1.4000X1.4000*%
%ADD47C,1.4000*%
%ADD48R,1.3432X1.3432*%
%ADD49R,1.6032X1.6032*%
%ADD50C,1.6032*%
%ADD51R,1.5500X1.5500*%
%ADD52C,1.5500*%
%ADD53C,0.2032*%
%ADD54C,1.4732*%
D37*
X1280749Y723219D02*
D03*
X1306149Y748619D02*
D03*
X582780Y958568D02*
D03*
X557379Y933168D02*
D03*
X200135Y981551D02*
D03*
X174735Y956151D02*
D03*
X632434Y-176595D02*
D03*
X607034Y-151195D02*
D03*
X679344Y1072097D02*
D03*
X704744Y1046697D02*
D03*
X887270Y134871D02*
D03*
X912670Y109471D02*
D03*
X1114439Y1081594D02*
D03*
X1089039Y1056194D02*
D03*
X1307419Y1005159D02*
D03*
X1282019Y979759D02*
D03*
X897267Y961178D02*
D03*
X922667Y986578D02*
D03*
X910869Y815461D02*
D03*
X885469Y790061D02*
D03*
X1308432Y134599D02*
D03*
X1333832Y109199D02*
D03*
X775908Y921075D02*
D03*
X750508Y946475D02*
D03*
X1309959Y874349D02*
D03*
X1284559Y848949D02*
D03*
X1194084Y657869D02*
D03*
X1168684Y632469D02*
D03*
D38*
X1280749Y774019D02*
D03*
X557379Y983968D02*
D03*
X174735Y1006951D02*
D03*
X1089039Y1106994D02*
D03*
X1282019Y1030559D02*
D03*
X922667Y935778D02*
D03*
X885469Y840861D02*
D03*
X1284559Y899749D02*
D03*
X1168684Y683269D02*
D03*
D39*
X644337Y601959D02*
D03*
X618937D02*
D03*
X593537D02*
D03*
X568137D02*
D03*
X542737D02*
D03*
X891681Y597503D02*
D03*
X866281D02*
D03*
X840881D02*
D03*
X815481D02*
D03*
X790081D02*
D03*
D40*
X517337Y601959D02*
D03*
X764681Y597503D02*
D03*
D41*
X327573Y597056D02*
D03*
X347573D02*
D03*
X549408Y788017D02*
D03*
X1179678Y957562D02*
D03*
X811457Y1065196D02*
D03*
X78113Y706969D02*
D03*
X635989Y2092D02*
D03*
D42*
X367573Y597056D02*
D03*
D43*
X549408Y753017D02*
D03*
X1179678Y992561D02*
D03*
X811457Y1100196D02*
D03*
X78113Y671969D02*
D03*
X635989Y-32908D02*
D03*
D44*
X299055Y1059224D02*
D03*
X136031Y134298D02*
D03*
X714498Y1198132D02*
D03*
X840245Y10492D02*
D03*
X995683Y939959D02*
D03*
X417271Y69857D02*
D03*
X1153477Y129383D02*
D03*
D45*
X299055Y1033824D02*
D03*
Y1008424D02*
D03*
Y983024D02*
D03*
Y957624D02*
D03*
Y932224D02*
D03*
Y906824D02*
D03*
X375255Y1059224D02*
D03*
Y1033824D02*
D03*
Y1008424D02*
D03*
Y983024D02*
D03*
Y957624D02*
D03*
Y932224D02*
D03*
Y906824D02*
D03*
X136031Y108898D02*
D03*
Y83498D02*
D03*
Y58098D02*
D03*
Y32698D02*
D03*
Y7298D02*
D03*
Y-18102D02*
D03*
X212231Y134298D02*
D03*
Y108898D02*
D03*
Y83498D02*
D03*
Y58098D02*
D03*
Y32698D02*
D03*
Y7298D02*
D03*
Y-18102D02*
D03*
X714498Y1223532D02*
D03*
Y1248932D02*
D03*
Y1274332D02*
D03*
Y1299732D02*
D03*
Y1325132D02*
D03*
Y1350532D02*
D03*
X638298Y1198132D02*
D03*
Y1223532D02*
D03*
Y1248932D02*
D03*
Y1274332D02*
D03*
Y1299732D02*
D03*
Y1325132D02*
D03*
Y1350532D02*
D03*
X840245Y-14908D02*
D03*
Y-40308D02*
D03*
Y-65708D02*
D03*
Y-91108D02*
D03*
Y-116508D02*
D03*
Y-141908D02*
D03*
X916445Y10492D02*
D03*
Y-14908D02*
D03*
Y-40308D02*
D03*
Y-65708D02*
D03*
Y-91108D02*
D03*
Y-116508D02*
D03*
Y-141908D02*
D03*
X995683Y914559D02*
D03*
Y889159D02*
D03*
Y863759D02*
D03*
Y838359D02*
D03*
Y812959D02*
D03*
Y787559D02*
D03*
X1071883Y939959D02*
D03*
Y914559D02*
D03*
Y889159D02*
D03*
Y863759D02*
D03*
Y838359D02*
D03*
Y812959D02*
D03*
Y787559D02*
D03*
X417271Y44457D02*
D03*
Y19057D02*
D03*
Y-6343D02*
D03*
Y-31743D02*
D03*
Y-57143D02*
D03*
Y-82543D02*
D03*
X493471Y69857D02*
D03*
Y44457D02*
D03*
Y19057D02*
D03*
Y-6343D02*
D03*
Y-31743D02*
D03*
Y-57143D02*
D03*
Y-82543D02*
D03*
X1153477Y103983D02*
D03*
Y78583D02*
D03*
Y53183D02*
D03*
Y27783D02*
D03*
Y2383D02*
D03*
Y-23017D02*
D03*
X1229677Y129383D02*
D03*
Y103983D02*
D03*
Y78583D02*
D03*
Y53183D02*
D03*
Y27783D02*
D03*
Y2383D02*
D03*
Y-23017D02*
D03*
D46*
X193109Y665820D02*
D03*
X899414Y1318937D02*
D03*
X439158Y1257021D02*
D03*
D47*
X193109Y690821D02*
D03*
Y715821D02*
D03*
X899414Y1293937D02*
D03*
Y1268936D02*
D03*
X439158Y1282020D02*
D03*
Y1307021D02*
D03*
D48*
X657833Y-151195D02*
D03*
X653944Y1046697D02*
D03*
X861870Y109471D02*
D03*
X1283032Y109199D02*
D03*
X801308Y946475D02*
D03*
D49*
X705242Y685712D02*
D03*
D50*
Y711112D02*
D03*
Y736512D02*
D03*
Y761912D02*
D03*
Y787312D02*
D03*
Y812712D02*
D03*
Y838112D02*
D03*
Y863512D02*
D03*
X629042Y685712D02*
D03*
Y711112D02*
D03*
Y736512D02*
D03*
Y761912D02*
D03*
Y787312D02*
D03*
Y812712D02*
D03*
Y838112D02*
D03*
Y863512D02*
D03*
D51*
X448106Y689755D02*
D03*
X802793Y728478D02*
D03*
D52*
X448106Y714756D02*
D03*
X802793Y703477D02*
D03*
D53*
X178517Y311897D02*
D03*
Y487429D02*
D03*
X1191153Y313230D02*
D03*
Y488762D02*
D03*
D54*
X193192Y176484D02*
D03*
X904532Y922835D02*
D03*
X1115962Y777576D02*
D03*
X762259Y-148487D02*
D03*
X773336Y36009D02*
D03*
X80862Y97778D02*
D03*
X61603Y95628D02*
D03*
X702191Y32493D02*
D03*
X1098181Y772128D02*
D03*
X360053Y832765D02*
D03*
X487358Y1274332D02*
D03*
X872625Y-109528D02*
D03*
X477401Y-137955D02*
D03*
X470797Y933168D02*
D03*
X783725Y53201D02*
D03*
X1268865Y-11266D02*
D03*
X81481Y69778D02*
D03*
X693047Y578085D02*
D03*
X175903Y29699D02*
D03*
X212231Y-71647D02*
D03*
X261755Y920323D02*
D03*
X417711Y1042143D02*
D03*
X469019Y1101579D02*
D03*
X54999Y1032745D02*
D03*
X607703Y-114065D02*
D03*
X901238Y-128035D02*
D03*
X337828Y-42691D02*
D03*
X542171Y1166857D02*
D03*
X264295Y15475D02*
D03*
X254135Y-40913D02*
D03*
X515293Y1030413D02*
D03*
X799981Y1013441D02*
D03*
X251595Y884790D02*
D03*
X541790Y96291D02*
D03*
X524137Y181845D02*
D03*
X111133Y951465D02*
D03*
X1007245Y964165D02*
D03*
X1031629Y821671D02*
D03*
X766199Y832085D02*
D03*
X268105Y-164611D02*
D03*
X895231Y-61536D02*
D03*
X348877Y139427D02*
D03*
X496959Y743947D02*
D03*
X392311Y613645D02*
D03*
X1102749Y871470D02*
D03*
X981083Y1116311D02*
D03*
X335415Y-2305D02*
D03*
X896247Y1122661D02*
D03*
X509913Y93199D02*
D03*
X521851Y1325353D02*
D03*
M02*
