G04*
G04 #@! TF.GenerationSoftware,Altium Limited,Altium Designer,24.1.2 (44)*
G04*
G04 Layer_Color=8421504*
%FSLAX44Y44*%
%MOMM*%
G71*
G04*
G04 #@! TF.SameCoordinates,85EAEC8C-3496-431A-917F-130F63ABBC40*
G04*
G04*
G04 #@! TF.FilePolarity,Positive*
G04*
G01*
G75*
%ADD16R,1.6500X1.1000*%
%ADD17R,1.1000X1.6500*%
%ADD18R,1.6000X0.9000*%
%ADD19R,1.7000X0.9500*%
%ADD20R,1.5042X0.9985*%
G04:AMPARAMS|DCode=21|XSize=1.5042mm|YSize=0.9985mm|CornerRadius=0.4993mm|HoleSize=0mm|Usage=FLASHONLY|Rotation=0.000|XOffset=0mm|YOffset=0mm|HoleType=Round|Shape=RoundedRectangle|*
%AMROUNDEDRECTD21*
21,1,1.5042,0.0000,0,0,0.0*
21,1,0.5057,0.9985,0,0,0.0*
1,1,0.9985,0.2528,0.0000*
1,1,0.9985,-0.2528,0.0000*
1,1,0.9985,-0.2528,0.0000*
1,1,0.9985,0.2528,0.0000*
%
%ADD21ROUNDEDRECTD21*%
G04:AMPARAMS|DCode=22|XSize=1.5042mm|YSize=3.3082mm|CornerRadius=0.4964mm|HoleSize=0mm|Usage=FLASHONLY|Rotation=0.000|XOffset=0mm|YOffset=0mm|HoleType=Round|Shape=RoundedRectangle|*
%AMROUNDEDRECTD22*
21,1,1.5042,2.3155,0,0,0.0*
21,1,0.5114,3.3082,0,0,0.0*
1,1,0.9927,0.2557,-1.1577*
1,1,0.9927,-0.2557,-1.1577*
1,1,0.9927,-0.2557,1.1577*
1,1,0.9927,0.2557,1.1577*
%
%ADD22ROUNDEDRECTD22*%
%ADD23R,1.5500X0.9000*%
%ADD24R,0.9000X1.6000*%
%ADD25R,0.9500X1.7000*%
%ADD26R,1.3561X1.8582*%
%ADD27R,1.1000X1.7000*%
%ADD28R,1.7000X1.1000*%
%ADD29R,1.8582X1.3561*%
D16*
X730918Y-6571D02*
D03*
Y21929D02*
D03*
X433157Y1042318D02*
D03*
Y1070818D02*
D03*
X261648Y805892D02*
D03*
Y834393D02*
D03*
X194183Y811233D02*
D03*
Y839734D02*
D03*
X332202Y791369D02*
D03*
Y819869D02*
D03*
X435452Y928867D02*
D03*
Y957368D02*
D03*
X126695Y822201D02*
D03*
Y850701D02*
D03*
X56675Y826509D02*
D03*
Y855010D02*
D03*
X383955Y1139332D02*
D03*
Y1167832D02*
D03*
X100742Y1011787D02*
D03*
Y1040288D02*
D03*
X1199595Y846153D02*
D03*
Y874654D02*
D03*
X1136255Y871470D02*
D03*
Y899970D02*
D03*
X1021666Y665751D02*
D03*
Y694251D02*
D03*
X1002932Y1022977D02*
D03*
Y1051477D02*
D03*
X976658Y106913D02*
D03*
Y78412D02*
D03*
X681716Y62940D02*
D03*
Y91440D02*
D03*
X722871Y-203422D02*
D03*
Y-174922D02*
D03*
X983517Y-161204D02*
D03*
Y-189704D02*
D03*
X1038283Y-114488D02*
D03*
Y-85988D02*
D03*
X971271Y-89855D02*
D03*
Y-61355D02*
D03*
X351316Y-54710D02*
D03*
Y-26209D02*
D03*
D17*
X541790Y131226D02*
D03*
X513290D02*
D03*
D18*
X539540Y1067531D02*
D03*
Y1094531D02*
D03*
X507099Y862565D02*
D03*
Y889565D02*
D03*
X348758Y51095D02*
D03*
Y78094D02*
D03*
X275408Y-152896D02*
D03*
Y-125897D02*
D03*
X197793Y-130721D02*
D03*
Y-103721D02*
D03*
X266026Y83065D02*
D03*
Y56066D02*
D03*
X277113Y-40313D02*
D03*
Y-13314D02*
D03*
X1102465Y144309D02*
D03*
Y117310D02*
D03*
X1109071Y60594D02*
D03*
Y33594D02*
D03*
X1191577Y-129508D02*
D03*
Y-102509D02*
D03*
X562825Y74903D02*
D03*
Y47903D02*
D03*
X474987Y-181895D02*
D03*
Y-154895D02*
D03*
X547522Y-147541D02*
D03*
Y-120541D02*
D03*
X555966Y-32119D02*
D03*
Y-5120D02*
D03*
X1108125Y-180952D02*
D03*
Y-153952D02*
D03*
X1052048Y-185853D02*
D03*
Y-158853D02*
D03*
X1096693Y-73274D02*
D03*
Y-46274D02*
D03*
D19*
X427863Y833076D02*
D03*
Y805076D02*
D03*
X49926Y992860D02*
D03*
Y1020860D02*
D03*
X50770Y935996D02*
D03*
Y907996D02*
D03*
X67554Y-13374D02*
D03*
Y14626D02*
D03*
X34417Y97778D02*
D03*
Y69778D02*
D03*
X941622Y700247D02*
D03*
Y672247D02*
D03*
X965543Y1191239D02*
D03*
Y1163239D02*
D03*
X1194084Y779336D02*
D03*
Y751336D02*
D03*
X978945Y16883D02*
D03*
Y-11118D02*
D03*
X761740Y65476D02*
D03*
Y93476D02*
D03*
X1045249Y22599D02*
D03*
Y-5401D02*
D03*
X1040677Y104344D02*
D03*
Y132344D02*
D03*
X781173Y-171743D02*
D03*
Y-199743D02*
D03*
X1300670Y16734D02*
D03*
Y-11266D02*
D03*
X407608Y-177277D02*
D03*
Y-149277D02*
D03*
X342787Y-136484D02*
D03*
Y-164484D02*
D03*
D20*
X301076Y722969D02*
D03*
D21*
Y699969D02*
D03*
Y676969D02*
D03*
D22*
X370076Y699969D02*
D03*
D23*
X106448Y929843D02*
D03*
Y903344D02*
D03*
D24*
X83607Y153755D02*
D03*
X56607D02*
D03*
X580508Y1432185D02*
D03*
X553508D02*
D03*
D25*
X374626D02*
D03*
X402626D02*
D03*
X487358Y1432185D02*
D03*
X459357D02*
D03*
X1292477Y1113426D02*
D03*
X1320477D02*
D03*
X897160Y1106994D02*
D03*
X925160D02*
D03*
X849575Y1181771D02*
D03*
X877574D02*
D03*
D26*
X642425Y1435157D02*
D03*
X672947D02*
D03*
X755401Y1436644D02*
D03*
X785923D02*
D03*
X772074Y1313728D02*
D03*
X802595D02*
D03*
X874323Y1430698D02*
D03*
X904844D02*
D03*
X532685Y1279580D02*
D03*
X563206D02*
D03*
X466642Y1132123D02*
D03*
X497163D02*
D03*
X532286Y1198674D02*
D03*
X562808D02*
D03*
D27*
X555668Y1357876D02*
D03*
X526668D02*
D03*
X636771Y129776D02*
D03*
X607771D02*
D03*
D28*
X772074Y1220436D02*
D03*
Y1249436D02*
D03*
X1084557Y662964D02*
D03*
Y691965D02*
D03*
X1138972Y775636D02*
D03*
Y804637D02*
D03*
D29*
X710296Y-66452D02*
D03*
Y-96973D02*
D03*
X775458Y-95830D02*
D03*
Y-65309D02*
D03*
M02*
