G04*
G04 #@! TF.GenerationSoftware,Altium Limited,Altium Designer,24.1.2 (44)*
G04*
G04 Layer_Color=8388736*
%FSLAX44Y44*%
%MOMM*%
G71*
G04*
G04 #@! TF.SameCoordinates,85EAEC8C-3496-431A-917F-130F63ABBC40*
G04*
G04*
G04 #@! TF.FilePolarity,Negative*
G04*
G01*
G75*
%ADD19R,1.7000X0.9500*%
%ADD20R,1.5042X0.9985*%
G04:AMPARAMS|DCode=21|XSize=1.5042mm|YSize=0.9985mm|CornerRadius=0.4993mm|HoleSize=0mm|Usage=FLASHONLY|Rotation=0.000|XOffset=0mm|YOffset=0mm|HoleType=Round|Shape=RoundedRectangle|*
%AMROUNDEDRECTD21*
21,1,1.5042,0.0000,0,0,0.0*
21,1,0.5057,0.9985,0,0,0.0*
1,1,0.9985,0.2528,0.0000*
1,1,0.9985,-0.2528,0.0000*
1,1,0.9985,-0.2528,0.0000*
1,1,0.9985,0.2528,0.0000*
%
%ADD21ROUNDEDRECTD21*%
G04:AMPARAMS|DCode=22|XSize=1.5042mm|YSize=3.3082mm|CornerRadius=0.4964mm|HoleSize=0mm|Usage=FLASHONLY|Rotation=0.000|XOffset=0mm|YOffset=0mm|HoleType=Round|Shape=RoundedRectangle|*
%AMROUNDEDRECTD22*
21,1,1.5042,2.3155,0,0,0.0*
21,1,0.5114,3.3082,0,0,0.0*
1,1,0.9927,0.2557,-1.1577*
1,1,0.9927,-0.2557,-1.1577*
1,1,0.9927,-0.2557,1.1577*
1,1,0.9927,0.2557,1.1577*
%
%ADD22ROUNDEDRECTD22*%
%ADD25R,0.9500X1.7000*%
%ADD26R,1.3561X1.8582*%
%ADD29R,1.8582X1.3561*%
%ADD30R,1.8532X1.3032*%
%ADD31R,1.3032X1.8532*%
%ADD32R,1.8032X1.1032*%
%ADD33R,1.7532X1.1032*%
%ADD34R,1.1032X1.8032*%
%ADD35R,1.3032X1.9032*%
%ADD36R,1.9032X1.3032*%
%ADD37C,1.3432*%
%ADD38R,1.3432X1.3432*%
%ADD39C,1.5700*%
%ADD40R,1.5700X1.5700*%
%ADD41C,1.3000*%
%ADD42R,1.3000X1.3000*%
%ADD43R,1.3000X1.3000*%
%ADD44R,1.7032X1.7032*%
%ADD45C,1.7032*%
%ADD46R,1.4000X1.4000*%
%ADD47C,1.4000*%
%ADD48R,1.3432X1.3432*%
%ADD49R,1.6032X1.6032*%
%ADD50C,1.6032*%
%ADD51R,1.5500X1.5500*%
%ADD52C,1.5500*%
%ADD53C,0.2032*%
%ADD54C,1.4732*%
D19*
X427863Y833076D02*
D03*
Y805076D02*
D03*
X49926Y992860D02*
D03*
Y1020860D02*
D03*
X50770Y935996D02*
D03*
Y907996D02*
D03*
X67554Y-13374D02*
D03*
Y14626D02*
D03*
X34417Y97778D02*
D03*
Y69778D02*
D03*
X941622Y700247D02*
D03*
Y672247D02*
D03*
X965543Y1191239D02*
D03*
Y1163239D02*
D03*
X1194084Y779336D02*
D03*
Y751336D02*
D03*
X978945Y16883D02*
D03*
Y-11118D02*
D03*
X761740Y65476D02*
D03*
Y93476D02*
D03*
X1045249Y22599D02*
D03*
Y-5401D02*
D03*
X1040677Y104344D02*
D03*
Y132344D02*
D03*
X781173Y-171743D02*
D03*
Y-199743D02*
D03*
X1300670Y16734D02*
D03*
Y-11266D02*
D03*
X407608Y-177277D02*
D03*
Y-149277D02*
D03*
X342787Y-136484D02*
D03*
Y-164484D02*
D03*
D20*
X301076Y722969D02*
D03*
D21*
Y699969D02*
D03*
Y676969D02*
D03*
D22*
X370076Y699969D02*
D03*
D25*
X374626Y1432185D02*
D03*
X402626D02*
D03*
X487358Y1432185D02*
D03*
X459357D02*
D03*
X1292477Y1113426D02*
D03*
X1320477D02*
D03*
X897160Y1106994D02*
D03*
X925160D02*
D03*
X849575Y1181771D02*
D03*
X877574D02*
D03*
D26*
X642425Y1435157D02*
D03*
X672947D02*
D03*
X755401Y1436644D02*
D03*
X785923D02*
D03*
X772074Y1313728D02*
D03*
X802595D02*
D03*
X874323Y1430698D02*
D03*
X904844D02*
D03*
X532685Y1279580D02*
D03*
X563206D02*
D03*
X466642Y1132123D02*
D03*
X497163D02*
D03*
X532286Y1198674D02*
D03*
X562808D02*
D03*
D29*
X710296Y-66452D02*
D03*
Y-96973D02*
D03*
X775458Y-95830D02*
D03*
Y-65309D02*
D03*
D30*
X730918Y-6571D02*
D03*
Y21929D02*
D03*
X433157Y1042318D02*
D03*
Y1070818D02*
D03*
X261648Y805892D02*
D03*
Y834393D02*
D03*
X194183Y811233D02*
D03*
Y839734D02*
D03*
X332202Y791369D02*
D03*
Y819869D02*
D03*
X435452Y928867D02*
D03*
Y957368D02*
D03*
X126695Y822201D02*
D03*
Y850701D02*
D03*
X56675Y826509D02*
D03*
Y855010D02*
D03*
X383955Y1139332D02*
D03*
Y1167832D02*
D03*
X100742Y1011787D02*
D03*
Y1040288D02*
D03*
X1199595Y846153D02*
D03*
Y874654D02*
D03*
X1136255Y871470D02*
D03*
Y899970D02*
D03*
X1021666Y665751D02*
D03*
Y694251D02*
D03*
X1002932Y1022977D02*
D03*
Y1051477D02*
D03*
X976658Y106913D02*
D03*
Y78412D02*
D03*
X681716Y62940D02*
D03*
Y91440D02*
D03*
X722871Y-203422D02*
D03*
Y-174922D02*
D03*
X983517Y-161204D02*
D03*
Y-189704D02*
D03*
X1038283Y-114488D02*
D03*
Y-85988D02*
D03*
X971271Y-89855D02*
D03*
Y-61355D02*
D03*
X351316Y-54710D02*
D03*
Y-26209D02*
D03*
D31*
X541790Y131226D02*
D03*
X513290D02*
D03*
D32*
X539540Y1067531D02*
D03*
Y1094531D02*
D03*
X507099Y862565D02*
D03*
Y889565D02*
D03*
X348758Y51095D02*
D03*
Y78094D02*
D03*
X275408Y-152896D02*
D03*
Y-125897D02*
D03*
X197793Y-130721D02*
D03*
Y-103721D02*
D03*
X266026Y83065D02*
D03*
Y56066D02*
D03*
X277113Y-40313D02*
D03*
Y-13314D02*
D03*
X1102465Y144309D02*
D03*
Y117310D02*
D03*
X1109071Y60594D02*
D03*
Y33594D02*
D03*
X1191577Y-129508D02*
D03*
Y-102509D02*
D03*
X562825Y74903D02*
D03*
Y47903D02*
D03*
X474987Y-181895D02*
D03*
Y-154895D02*
D03*
X547522Y-147541D02*
D03*
Y-120541D02*
D03*
X555966Y-32119D02*
D03*
Y-5120D02*
D03*
X1108125Y-180952D02*
D03*
Y-153952D02*
D03*
X1052048Y-185853D02*
D03*
Y-158853D02*
D03*
X1096693Y-73274D02*
D03*
Y-46274D02*
D03*
D33*
X106448Y929843D02*
D03*
Y903344D02*
D03*
D34*
X83607Y153755D02*
D03*
X56607D02*
D03*
X580508Y1432185D02*
D03*
X553508D02*
D03*
D35*
X555668Y1357876D02*
D03*
X526668D02*
D03*
X636771Y129776D02*
D03*
X607771D02*
D03*
D36*
X772074Y1220436D02*
D03*
Y1249436D02*
D03*
X1084557Y662964D02*
D03*
Y691965D02*
D03*
X1138972Y775636D02*
D03*
Y804637D02*
D03*
D37*
X1280749Y723219D02*
D03*
X1306149Y748619D02*
D03*
X582780Y958568D02*
D03*
X557379Y933168D02*
D03*
X200135Y981551D02*
D03*
X174735Y956151D02*
D03*
X632434Y-176595D02*
D03*
X607034Y-151195D02*
D03*
X679344Y1072097D02*
D03*
X704744Y1046697D02*
D03*
X887270Y134871D02*
D03*
X912670Y109471D02*
D03*
X1114439Y1081594D02*
D03*
X1089039Y1056194D02*
D03*
X1307419Y1005159D02*
D03*
X1282019Y979759D02*
D03*
X897267Y961178D02*
D03*
X922667Y986578D02*
D03*
X910869Y815461D02*
D03*
X885469Y790061D02*
D03*
X1308432Y134599D02*
D03*
X1333832Y109199D02*
D03*
X775908Y921075D02*
D03*
X750508Y946475D02*
D03*
X1309959Y874349D02*
D03*
X1284559Y848949D02*
D03*
X1194084Y657869D02*
D03*
X1168684Y632469D02*
D03*
D38*
X1280749Y774019D02*
D03*
X557379Y983968D02*
D03*
X174735Y1006951D02*
D03*
X1089039Y1106994D02*
D03*
X1282019Y1030559D02*
D03*
X922667Y935778D02*
D03*
X885469Y840861D02*
D03*
X1284559Y899749D02*
D03*
X1168684Y683269D02*
D03*
D39*
X644337Y601959D02*
D03*
X618937D02*
D03*
X593537D02*
D03*
X568137D02*
D03*
X542737D02*
D03*
X891681Y597503D02*
D03*
X866281D02*
D03*
X840881D02*
D03*
X815481D02*
D03*
X790081D02*
D03*
D40*
X517337Y601959D02*
D03*
X764681Y597503D02*
D03*
D41*
X327573Y597056D02*
D03*
X347573D02*
D03*
X549408Y788017D02*
D03*
X1179678Y957562D02*
D03*
X811457Y1065196D02*
D03*
X78113Y706969D02*
D03*
X635989Y2092D02*
D03*
D42*
X367573Y597056D02*
D03*
D43*
X549408Y753017D02*
D03*
X1179678Y992561D02*
D03*
X811457Y1100196D02*
D03*
X78113Y671969D02*
D03*
X635989Y-32908D02*
D03*
D44*
X299055Y1059224D02*
D03*
X136031Y134298D02*
D03*
X714498Y1198132D02*
D03*
X840245Y10492D02*
D03*
X995683Y939959D02*
D03*
X417271Y69857D02*
D03*
X1153477Y129383D02*
D03*
D45*
X299055Y1033824D02*
D03*
Y1008424D02*
D03*
Y983024D02*
D03*
Y957624D02*
D03*
Y932224D02*
D03*
Y906824D02*
D03*
X375255Y1059224D02*
D03*
Y1033824D02*
D03*
Y1008424D02*
D03*
Y983024D02*
D03*
Y957624D02*
D03*
Y932224D02*
D03*
Y906824D02*
D03*
X136031Y108898D02*
D03*
Y83498D02*
D03*
Y58098D02*
D03*
Y32698D02*
D03*
Y7298D02*
D03*
Y-18102D02*
D03*
X212231Y134298D02*
D03*
Y108898D02*
D03*
Y83498D02*
D03*
Y58098D02*
D03*
Y32698D02*
D03*
Y7298D02*
D03*
Y-18102D02*
D03*
X714498Y1223532D02*
D03*
Y1248932D02*
D03*
Y1274332D02*
D03*
Y1299732D02*
D03*
Y1325132D02*
D03*
Y1350532D02*
D03*
X638298Y1198132D02*
D03*
Y1223532D02*
D03*
Y1248932D02*
D03*
Y1274332D02*
D03*
Y1299732D02*
D03*
Y1325132D02*
D03*
Y1350532D02*
D03*
X840245Y-14908D02*
D03*
Y-40308D02*
D03*
Y-65708D02*
D03*
Y-91108D02*
D03*
Y-116508D02*
D03*
Y-141908D02*
D03*
X916445Y10492D02*
D03*
Y-14908D02*
D03*
Y-40308D02*
D03*
Y-65708D02*
D03*
Y-91108D02*
D03*
Y-116508D02*
D03*
Y-141908D02*
D03*
X995683Y914559D02*
D03*
Y889159D02*
D03*
Y863759D02*
D03*
Y838359D02*
D03*
Y812959D02*
D03*
Y787559D02*
D03*
X1071883Y939959D02*
D03*
Y914559D02*
D03*
Y889159D02*
D03*
Y863759D02*
D03*
Y838359D02*
D03*
Y812959D02*
D03*
Y787559D02*
D03*
X417271Y44457D02*
D03*
Y19057D02*
D03*
Y-6343D02*
D03*
Y-31743D02*
D03*
Y-57143D02*
D03*
Y-82543D02*
D03*
X493471Y69857D02*
D03*
Y44457D02*
D03*
Y19057D02*
D03*
Y-6343D02*
D03*
Y-31743D02*
D03*
Y-57143D02*
D03*
Y-82543D02*
D03*
X1153477Y103983D02*
D03*
Y78583D02*
D03*
Y53183D02*
D03*
Y27783D02*
D03*
Y2383D02*
D03*
Y-23017D02*
D03*
X1229677Y129383D02*
D03*
Y103983D02*
D03*
Y78583D02*
D03*
Y53183D02*
D03*
Y27783D02*
D03*
Y2383D02*
D03*
Y-23017D02*
D03*
D46*
X193109Y665820D02*
D03*
X899414Y1318937D02*
D03*
X439158Y1257021D02*
D03*
D47*
X193109Y690821D02*
D03*
Y715821D02*
D03*
X899414Y1293937D02*
D03*
Y1268936D02*
D03*
X439158Y1282020D02*
D03*
Y1307021D02*
D03*
D48*
X657833Y-151195D02*
D03*
X653944Y1046697D02*
D03*
X861870Y109471D02*
D03*
X1283032Y109199D02*
D03*
X801308Y946475D02*
D03*
D49*
X705242Y685712D02*
D03*
D50*
Y711112D02*
D03*
Y736512D02*
D03*
Y761912D02*
D03*
Y787312D02*
D03*
Y812712D02*
D03*
Y838112D02*
D03*
Y863512D02*
D03*
X629042Y685712D02*
D03*
Y711112D02*
D03*
Y736512D02*
D03*
Y761912D02*
D03*
Y787312D02*
D03*
Y812712D02*
D03*
Y838112D02*
D03*
Y863512D02*
D03*
D51*
X448106Y689755D02*
D03*
X802793Y728478D02*
D03*
D52*
X448106Y714756D02*
D03*
X802793Y703477D02*
D03*
D53*
X178517Y311897D02*
D03*
Y487429D02*
D03*
X1191153Y313230D02*
D03*
Y488762D02*
D03*
D54*
X193192Y176484D02*
D03*
X904532Y922835D02*
D03*
X1115962Y777576D02*
D03*
X762259Y-148487D02*
D03*
X773336Y36009D02*
D03*
X80862Y97778D02*
D03*
X61603Y95628D02*
D03*
X702191Y32493D02*
D03*
X1098181Y772128D02*
D03*
X360053Y832765D02*
D03*
X487358Y1274332D02*
D03*
X872625Y-109528D02*
D03*
X477401Y-137955D02*
D03*
X470797Y933168D02*
D03*
X783725Y53201D02*
D03*
X1268865Y-11266D02*
D03*
X81481Y69778D02*
D03*
X693047Y578085D02*
D03*
X175903Y29699D02*
D03*
X212231Y-71647D02*
D03*
X261755Y920323D02*
D03*
X417711Y1042143D02*
D03*
X469019Y1101579D02*
D03*
X54999Y1032745D02*
D03*
X607703Y-114065D02*
D03*
X901238Y-128035D02*
D03*
X337828Y-42691D02*
D03*
X542171Y1166857D02*
D03*
X264295Y15475D02*
D03*
X254135Y-40913D02*
D03*
X515293Y1030413D02*
D03*
X799981Y1013441D02*
D03*
X251595Y884790D02*
D03*
X541790Y96291D02*
D03*
X524137Y181845D02*
D03*
X111133Y951465D02*
D03*
X1007245Y964165D02*
D03*
X1031629Y821671D02*
D03*
X766199Y832085D02*
D03*
X268105Y-164611D02*
D03*
X895231Y-61536D02*
D03*
X348877Y139427D02*
D03*
X496959Y743947D02*
D03*
X392311Y613645D02*
D03*
X1102749Y871470D02*
D03*
X981083Y1116311D02*
D03*
X335415Y-2305D02*
D03*
X896247Y1122661D02*
D03*
X509913Y93199D02*
D03*
X521851Y1325353D02*
D03*
M02*
