G04*
G04 #@! TF.GenerationSoftware,Altium Limited,Altium Designer,24.1.2 (44)*
G04*
G04 Layer_Physical_Order=2*
G04 Layer_Color=16711680*
%FSLAX44Y44*%
%MOMM*%
G71*
G04*
G04 #@! TF.SameCoordinates,85EAEC8C-3496-431A-917F-130F63ABBC40*
G04*
G04*
G04 #@! TF.FilePolarity,Positive*
G04*
G01*
G75*
%ADD14C,0.2540*%
%ADD39C,1.5700*%
%ADD40R,1.5700X1.5700*%
%ADD41C,1.3000*%
%ADD42R,1.3000X1.3000*%
%ADD43R,1.3000X1.3000*%
%ADD46R,1.4000X1.4000*%
%ADD47C,1.4000*%
%ADD51R,1.5500X1.5500*%
%ADD52C,1.5500*%
%ADD55C,0.5000*%
%ADD56C,1.5000*%
%ADD57C,1.0000*%
%ADD58C,1.1400*%
%ADD59R,1.1400X1.1400*%
%ADD60R,1.5000X1.5000*%
%ADD61C,1.5000*%
%ADD62R,1.1400X1.1400*%
%ADD63R,1.4000X1.4000*%
%ADD64C,1.2700*%
D14*
X906476Y924780D02*
X914473D01*
X904532Y922835D02*
X906476Y924780D01*
X915962Y926268D02*
X1058192D01*
X894240Y928708D02*
X896036D01*
X892396Y930552D02*
X894240Y928708D01*
X901909Y922835D02*
X904532D01*
X896036Y928708D02*
X901909Y922835D01*
X914473Y924780D02*
X915962Y926268D01*
X879569Y930552D02*
X892396D01*
X838843Y971277D02*
X879569Y930552D01*
X808871Y1013441D02*
X886534Y935778D01*
X922667D01*
X1103871Y789667D02*
X1115962Y777576D01*
X1158674Y874349D02*
X1233151D01*
X1060022Y723219D02*
X1099801D01*
X702085Y1312145D02*
X714498Y1299732D01*
X444283Y1312145D02*
X702085D01*
X439158Y1307021D02*
X444283Y1312145D01*
X734503Y1268936D02*
X899414D01*
X714498Y1248932D02*
X734503Y1268936D01*
X261755Y920323D02*
X299055Y957624D01*
Y1008424D02*
X310366Y997114D01*
X382841D01*
X417711Y1031983D01*
Y1042143D01*
X299055Y1059224D02*
X341411Y1101579D01*
X469019D01*
X81477Y1059224D02*
X299055D01*
X54999Y1032745D02*
X81477Y1059224D01*
X607703Y-114065D02*
X766489D01*
X840245Y-40308D01*
Y-141908D02*
X865742Y-167405D01*
X924822D01*
X927997Y-164230D01*
Y-132480D01*
X924822Y-129305D02*
X927997Y-132480D01*
X901238Y-129305D02*
X924822D01*
X493471Y19057D02*
X504833Y7694D01*
Y-12719D02*
Y7694D01*
X499753Y-17799D02*
X504833Y-12719D01*
X471178Y-17799D02*
X499753D01*
X422918Y30461D02*
X471178Y-17799D01*
X409075Y30461D02*
X422918D01*
X337828Y-40786D02*
X409075Y30461D01*
X337828Y-42691D02*
Y-40786D01*
X657824Y1166857D02*
X714498Y1223532D01*
X542171Y1166857D02*
X657824D01*
X219408Y-29412D02*
X264295Y15475D01*
X172741Y-29412D02*
X219408D01*
X136031Y7298D02*
X172741Y-29412D01*
X158841Y-40913D02*
X254135D01*
X136031Y-18102D02*
X158841Y-40913D01*
X1071883Y787559D02*
X1158674Y874349D01*
X1194084Y657869D02*
X1235237D01*
X1306149Y728780D01*
Y748619D01*
X1140073Y1005159D02*
X1307419D01*
X1089039Y1056194D02*
X1140073Y1005159D01*
X1099801Y723219D02*
X1280749D01*
X956699Y580117D02*
X1099801Y723219D01*
X832867Y580117D02*
X956699D01*
X815481Y597503D02*
X832867Y580117D01*
X878832Y1030413D02*
X922667Y986578D01*
X515293Y1030413D02*
X878832D01*
X799981Y1013441D02*
X808871D01*
X251595Y883227D02*
Y884790D01*
Y883227D02*
X251849Y882973D01*
X317360D01*
X328702Y894315D01*
X566428D01*
X569857Y897744D01*
Y966070D01*
X575064Y971277D01*
X838843D01*
X1058192Y926268D02*
X1071883Y939959D01*
X524137Y-51877D02*
Y181845D01*
X493471Y-82543D02*
X524137Y-51877D01*
X1111252Y575037D02*
X1168684Y632469D01*
X812547Y575037D02*
X1111252D01*
X790081Y597503D02*
X812547Y575037D01*
X1060122Y900919D02*
X1071883Y889159D01*
X956191Y900919D02*
X1060122D01*
X946082Y911028D02*
X956191Y900919D01*
X882187Y911028D02*
X946082D01*
X834647Y958568D02*
X882187Y911028D01*
X582780Y958568D02*
X834647D01*
X1096864Y789667D02*
X1103871D01*
X1083445Y776248D02*
X1096864Y789667D01*
X1063844Y776248D02*
X1083445D01*
X1059569Y780523D02*
X1063844Y776248D01*
X1059569Y780523D02*
Y848595D01*
X1032137Y876027D02*
X1059569Y848595D01*
X960509Y876027D02*
X1032137D01*
X930588Y905948D02*
X960509Y876027D01*
X841835Y905948D02*
X930588D01*
X801308Y946475D02*
X841835Y905948D01*
X111133Y951465D02*
X153218Y909380D01*
X296499D01*
X299055Y906824D01*
X948394Y838359D02*
X995683D01*
X911233Y875519D02*
X948394Y838359D01*
X821464Y875519D02*
X911233D01*
X775908Y921075D02*
X821464Y875519D01*
X1173075Y964165D02*
X1179678Y957562D01*
X1007245Y964165D02*
X1173075D01*
X897267Y961178D02*
X916374D01*
X932315Y977119D01*
Y1161523D01*
X857385Y1236453D02*
X932315Y1161523D01*
X650777Y1236453D02*
X857385D01*
X638298Y1248932D02*
X650777Y1236453D01*
X1016135Y821671D02*
X1031629D01*
X1012071Y825735D02*
X1016135Y821671D01*
X772549Y825735D02*
X1012071D01*
X766199Y832085D02*
X772549Y825735D01*
X840881Y597503D02*
X853187Y585197D01*
X939427D01*
X984131Y629901D01*
Y794620D01*
X988576Y799065D01*
X1006991D01*
X1052711Y753345D01*
X1112147D01*
X1233151Y874349D01*
X1309959D01*
X995683Y787559D02*
X1060022Y723219D01*
X268105Y-164611D02*
X280090Y-176595D01*
X632434D01*
X864878Y-61536D02*
X895231D01*
X861146Y-65267D02*
X864878Y-61536D01*
X861146Y-95607D02*
Y-65267D01*
X840245Y-116508D02*
X861146Y-95607D01*
X348877Y139427D02*
X468511D01*
X493471Y114468D01*
Y69857D02*
Y114468D01*
X392311Y613645D02*
X531051D01*
X542737Y601959D01*
X1097938Y876281D02*
X1102749Y871470D01*
X1051441Y876281D02*
X1097938D01*
X1038564Y889159D02*
X1051441Y876281D01*
X995683Y889159D02*
X1038564D01*
X1041201Y1056194D02*
X1089039D01*
X981083Y1116311D02*
X1041201Y1056194D01*
X509913Y-15301D02*
Y93199D01*
X493471Y-31743D02*
X509913Y-15301D01*
X1309959Y874349D02*
Y951819D01*
X1282019Y979759D02*
X1309959Y951819D01*
X522072Y1325132D02*
X638298D01*
X521851Y1325353D02*
X522072Y1325132D01*
X417271Y-57143D02*
X489272Y-129145D01*
X864846D01*
X877608Y-141908D01*
X916445D01*
X653944Y1046697D02*
X663868Y1056621D01*
X802883D01*
X811457Y1065196D01*
D39*
X644337Y601959D02*
D03*
X618937D02*
D03*
X593537D02*
D03*
X568137D02*
D03*
X542737D02*
D03*
X891681Y597503D02*
D03*
X866281D02*
D03*
X840881D02*
D03*
X815481D02*
D03*
X790081D02*
D03*
D40*
X517337Y601959D02*
D03*
X764681Y597503D02*
D03*
D41*
X327573Y597056D02*
D03*
X347573D02*
D03*
X549408Y788017D02*
D03*
X1179678Y957562D02*
D03*
X811457Y1065196D02*
D03*
X78113Y706969D02*
D03*
X635989Y2092D02*
D03*
D42*
X367573Y597056D02*
D03*
D43*
X549408Y753017D02*
D03*
X1179678Y992561D02*
D03*
X811457Y1100196D02*
D03*
X78113Y671969D02*
D03*
X635989Y-32908D02*
D03*
D46*
X193109Y665820D02*
D03*
X899414Y1318937D02*
D03*
X439158Y1257021D02*
D03*
D47*
X193109Y690821D02*
D03*
Y715821D02*
D03*
X899414Y1293937D02*
D03*
Y1268936D02*
D03*
X439158Y1282020D02*
D03*
Y1307021D02*
D03*
X705242Y711112D02*
D03*
Y736512D02*
D03*
Y761912D02*
D03*
Y787312D02*
D03*
Y812712D02*
D03*
Y838112D02*
D03*
Y863512D02*
D03*
X629042Y685712D02*
D03*
Y711112D02*
D03*
Y736512D02*
D03*
Y761912D02*
D03*
Y787312D02*
D03*
Y812712D02*
D03*
Y838112D02*
D03*
Y863512D02*
D03*
D51*
X448106Y689755D02*
D03*
X802793Y728478D02*
D03*
D52*
X448106Y714756D02*
D03*
X802793Y703477D02*
D03*
D55*
X193348Y176328D02*
X285387Y268366D01*
Y624183D01*
X320445D01*
X347573Y597056D01*
Y646377D01*
X693047Y578085D02*
X1129165Y141967D01*
X1250264D01*
X1283032Y109199D01*
X175903Y18226D02*
X212231Y-18102D01*
X175903Y18226D02*
Y29699D01*
X644164Y-164865D02*
X657833Y-151195D01*
X305449Y-164865D02*
X644164D01*
X212231Y-71647D02*
X305449Y-164865D01*
X367573Y597056D02*
Y613240D01*
X384488Y630155D01*
X526677D01*
X595003Y698481D01*
X692612D01*
X705242Y711112D01*
X347573Y646377D02*
X539307Y838112D01*
X629042D01*
D56*
X327573Y587340D02*
Y597056D01*
Y587340D02*
X366545Y548367D01*
X869244Y1293937D02*
X899414D01*
X794647Y1368533D02*
X869244Y1293937D01*
X456192Y1368533D02*
X794647D01*
X422029Y1334370D02*
X456192Y1368533D01*
X422029Y1299150D02*
Y1334370D01*
Y1299150D02*
X439158Y1282020D01*
X470797Y933168D02*
X557379D01*
X96964Y690821D02*
X193109D01*
X78113Y671969D02*
X96964Y690821D01*
X558302Y761912D02*
X629042D01*
X549408Y753017D02*
X558302Y761912D01*
X635989Y2092D02*
X687099Y53201D01*
X783725D01*
X1229677Y27783D02*
X1268727Y-11266D01*
X1268865D01*
X98950Y69778D02*
X136031Y32698D01*
X81481Y69778D02*
X98950D01*
X541790Y96291D02*
X635989Y2092D01*
X644337Y601959D02*
X657802Y615423D01*
X873761D01*
X891681Y597503D01*
X300412Y32698D02*
X335415Y-2305D01*
X212231Y32698D02*
X300412D01*
X136031D02*
X149449Y46117D01*
X198812D01*
X212231Y32698D01*
X590746Y548367D02*
X644337Y601959D01*
X366545Y548367D02*
X590746D01*
X629042Y787312D02*
X705242D01*
X1153477Y27783D02*
X1229677D01*
D57*
X740460Y-148487D02*
X762259D01*
X729928Y-137955D02*
X740460Y-148487D01*
X773336Y36811D02*
X877451D01*
X880753D01*
X487358Y1274332D02*
X627180D01*
X514893Y1106653D02*
X530901Y1122661D01*
X80862Y97778D02*
X96350D01*
X136031Y58098D01*
X367033Y-56581D02*
X417271Y-6343D01*
X107497Y-56581D02*
X367033D01*
X61603Y-10687D02*
X107497Y-56581D01*
X61603Y-10687D02*
Y95628D01*
X880753Y36811D02*
X897125Y53183D01*
X840245Y-65708D02*
X877451Y-28502D01*
Y36811D01*
X897125Y53183D02*
X1153477D01*
X417271Y-6343D02*
X471139Y-60212D01*
Y-94937D02*
Y-60212D01*
Y-94937D02*
X474353Y-98151D01*
X623871D01*
X702191Y-19831D01*
Y32493D01*
X1093491Y767438D02*
X1098181Y772128D01*
X1056779Y767438D02*
X1093491D01*
X1047882Y776335D02*
X1056779Y767438D01*
X1047882Y776335D02*
Y832765D01*
X1016888Y863759D02*
X1047882Y832765D01*
X995683Y863759D02*
X1016888D01*
X86965Y715821D02*
X193109D01*
X78113Y706969D02*
X86965Y715821D01*
X193109D02*
Y856054D01*
X237625Y900570D01*
X275321D01*
X284107Y891783D01*
X309642D01*
X314333Y896474D01*
Y967746D01*
X299055Y983024D02*
X314333Y967746D01*
X193109Y665820D02*
X360053Y832765D01*
X872625Y-109528D02*
X916445Y-65708D01*
X1229677Y53183D02*
X1290328Y-7467D01*
Y-13817D02*
Y-7467D01*
X1238437Y-65708D02*
X1290328Y-13817D01*
X916445Y-65708D02*
X1238437D01*
X477401Y-137955D02*
X729928D01*
X455303Y31824D02*
X493471Y-6343D01*
X455303Y31824D02*
Y121774D01*
X279082Y124949D02*
X455303Y121774D01*
X212231Y58098D02*
X279082Y124949D01*
X738276Y703477D02*
X802793D01*
X705242Y736512D02*
X738276Y703477D01*
X705242Y812712D02*
X789476Y728478D01*
X802793D01*
X448106Y714756D02*
X546062Y812712D01*
X629042D01*
X517384Y736512D02*
X629042D01*
X470628Y689755D02*
X517384Y736512D01*
X448106Y689755D02*
X470628D01*
X627180Y1274332D02*
X638298D01*
X514893Y1162045D02*
X627180Y1274332D01*
X514893Y1106653D02*
Y1162045D01*
X391264Y983024D02*
X514893Y1106653D01*
X275128Y1006951D02*
X299055Y983024D01*
X174735Y1006951D02*
X275128D01*
X947632Y863759D02*
X995683D01*
X917075Y894315D02*
X947632Y863759D01*
X829445Y894315D02*
X917075D01*
X789313Y934447D02*
X829445Y894315D01*
X770517Y934447D02*
X789313D01*
X762643Y926573D02*
X770517Y934447D01*
X762643Y920913D02*
Y926573D01*
X705242Y863512D02*
X762643Y920913D01*
X496959Y743947D02*
X497467Y744455D01*
Y744582D01*
X540901Y788017D01*
X549408D01*
X530901Y1122661D02*
X896247D01*
X375255Y983024D02*
X391264D01*
X406789Y1289390D02*
X439158Y1257021D01*
X406789Y1289390D02*
Y1378947D01*
X413647Y1385805D01*
X832546D01*
X899414Y1318937D01*
X193109Y715821D02*
X355347Y878059D01*
X690695D01*
X705242Y863512D01*
X629042Y685712D02*
X705242D01*
D58*
X1280749Y723219D02*
D03*
X1306149Y748619D02*
D03*
X582780Y958568D02*
D03*
X557379Y933168D02*
D03*
X200135Y981551D02*
D03*
X174735Y956151D02*
D03*
X632434Y-176595D02*
D03*
X607034Y-151195D02*
D03*
X679344Y1072097D02*
D03*
X704744Y1046697D02*
D03*
X887270Y134871D02*
D03*
X912670Y109471D02*
D03*
X1114439Y1081594D02*
D03*
X1089039Y1056194D02*
D03*
X1307419Y1005159D02*
D03*
X1282019Y979759D02*
D03*
X897267Y961178D02*
D03*
X922667Y986578D02*
D03*
X910869Y815461D02*
D03*
X885469Y790061D02*
D03*
X1308432Y134599D02*
D03*
X1333832Y109199D02*
D03*
X775908Y921075D02*
D03*
X750508Y946475D02*
D03*
X1309959Y874349D02*
D03*
X1284559Y848949D02*
D03*
X1194084Y657869D02*
D03*
X1168684Y632469D02*
D03*
D59*
X1280749Y774019D02*
D03*
X557379Y983968D02*
D03*
X174735Y1006951D02*
D03*
X1089039Y1106994D02*
D03*
X1282019Y1030559D02*
D03*
X922667Y935778D02*
D03*
X885469Y840861D02*
D03*
X1284559Y899749D02*
D03*
X1168684Y683269D02*
D03*
D60*
X299055Y1059224D02*
D03*
X136031Y134298D02*
D03*
X714498Y1198132D02*
D03*
X840245Y10492D02*
D03*
X995683Y939959D02*
D03*
X417271Y69857D02*
D03*
X1153477Y129383D02*
D03*
D61*
X299055Y1033824D02*
D03*
Y1008424D02*
D03*
Y983024D02*
D03*
Y957624D02*
D03*
Y932224D02*
D03*
Y906824D02*
D03*
X375255Y1059224D02*
D03*
Y1033824D02*
D03*
Y1008424D02*
D03*
Y983024D02*
D03*
Y957624D02*
D03*
Y932224D02*
D03*
Y906824D02*
D03*
X136031Y108898D02*
D03*
Y83498D02*
D03*
Y58098D02*
D03*
Y32698D02*
D03*
Y7298D02*
D03*
Y-18102D02*
D03*
X212231Y134298D02*
D03*
Y108898D02*
D03*
Y83498D02*
D03*
Y58098D02*
D03*
Y32698D02*
D03*
Y7298D02*
D03*
Y-18102D02*
D03*
X714498Y1223532D02*
D03*
Y1248932D02*
D03*
Y1274332D02*
D03*
Y1299732D02*
D03*
Y1325132D02*
D03*
Y1350532D02*
D03*
X638298Y1198132D02*
D03*
Y1223532D02*
D03*
Y1248932D02*
D03*
Y1274332D02*
D03*
Y1299732D02*
D03*
Y1325132D02*
D03*
Y1350532D02*
D03*
X840245Y-14908D02*
D03*
Y-40308D02*
D03*
Y-65708D02*
D03*
Y-91108D02*
D03*
Y-116508D02*
D03*
Y-141908D02*
D03*
X916445Y10492D02*
D03*
Y-14908D02*
D03*
Y-40308D02*
D03*
Y-65708D02*
D03*
Y-91108D02*
D03*
Y-116508D02*
D03*
Y-141908D02*
D03*
X995683Y914559D02*
D03*
Y889159D02*
D03*
Y863759D02*
D03*
Y838359D02*
D03*
Y812959D02*
D03*
Y787559D02*
D03*
X1071883Y939959D02*
D03*
Y914559D02*
D03*
Y889159D02*
D03*
Y863759D02*
D03*
Y838359D02*
D03*
Y812959D02*
D03*
Y787559D02*
D03*
X417271Y44457D02*
D03*
Y19057D02*
D03*
Y-6343D02*
D03*
Y-31743D02*
D03*
Y-57143D02*
D03*
Y-82543D02*
D03*
X493471Y69857D02*
D03*
Y44457D02*
D03*
Y19057D02*
D03*
Y-6343D02*
D03*
Y-31743D02*
D03*
Y-57143D02*
D03*
Y-82543D02*
D03*
X1153477Y103983D02*
D03*
Y78583D02*
D03*
Y53183D02*
D03*
Y27783D02*
D03*
Y2383D02*
D03*
Y-23017D02*
D03*
X1229677Y129383D02*
D03*
Y103983D02*
D03*
Y78583D02*
D03*
Y53183D02*
D03*
Y27783D02*
D03*
Y2383D02*
D03*
Y-23017D02*
D03*
D62*
X657833Y-151195D02*
D03*
X653944Y1046697D02*
D03*
X861870Y109471D02*
D03*
X1283032Y109199D02*
D03*
X801308Y946475D02*
D03*
D63*
X705242Y685712D02*
D03*
D64*
X193192Y176484D02*
D03*
X904532Y922835D02*
D03*
X1115962Y777576D02*
D03*
X762259Y-148487D02*
D03*
X773336Y36009D02*
D03*
X80862Y97778D02*
D03*
X61603Y95628D02*
D03*
X702191Y32493D02*
D03*
X1098181Y772128D02*
D03*
X360053Y832765D02*
D03*
X487358Y1274332D02*
D03*
X872625Y-109528D02*
D03*
X477401Y-137955D02*
D03*
X470797Y933168D02*
D03*
X783725Y53201D02*
D03*
X1268865Y-11266D02*
D03*
X81481Y69778D02*
D03*
X693047Y578085D02*
D03*
X175903Y29699D02*
D03*
X212231Y-71647D02*
D03*
X261755Y920323D02*
D03*
X417711Y1042143D02*
D03*
X469019Y1101579D02*
D03*
X54999Y1032745D02*
D03*
X607703Y-114065D02*
D03*
X901238Y-128035D02*
D03*
X337828Y-42691D02*
D03*
X542171Y1166857D02*
D03*
X264295Y15475D02*
D03*
X254135Y-40913D02*
D03*
X515293Y1030413D02*
D03*
X799981Y1013441D02*
D03*
X251595Y884790D02*
D03*
X541790Y96291D02*
D03*
X524137Y181845D02*
D03*
X111133Y951465D02*
D03*
X1007245Y964165D02*
D03*
X1031629Y821671D02*
D03*
X766199Y832085D02*
D03*
X268105Y-164611D02*
D03*
X895231Y-61536D02*
D03*
X348877Y139427D02*
D03*
X496959Y743947D02*
D03*
X392311Y613645D02*
D03*
X1102749Y871470D02*
D03*
X981083Y1116311D02*
D03*
X335415Y-2305D02*
D03*
X896247Y1122661D02*
D03*
X509913Y93199D02*
D03*
X521851Y1325353D02*
D03*
M02*
