G04*
G04 #@! TF.GenerationSoftware,Altium Limited,Altium Designer,24.1.2 (44)*
G04*
G04 Layer_Color=16711935*
%FSLAX44Y44*%
%MOMM*%
G71*
G04*
G04 #@! TF.SameCoordinates,85EAEC8C-3496-431A-917F-130F63ABBC40*
G04*
G04*
G04 #@! TF.FilePolarity,Positive*
G04*
G01*
G75*
%ADD12C,0.1500*%
%ADD14C,0.2540*%
D12*
X306675Y989940D02*
Y979943D01*
X308675Y977944D01*
X312673D01*
X314673Y979943D01*
Y989940D01*
X318671Y987940D02*
X320671Y989940D01*
X324669D01*
X326669Y987940D01*
Y985941D01*
X324669Y983942D01*
X322670D01*
X324669D01*
X326669Y981942D01*
Y979943D01*
X324669Y977944D01*
X320671D01*
X318671Y979943D01*
X143650Y65014D02*
Y55017D01*
X145649Y53018D01*
X149648D01*
X151647Y55017D01*
Y65014D01*
X155646D02*
X163644D01*
Y63015D01*
X155646Y55017D01*
Y53018D01*
X706878Y1267416D02*
Y1277412D01*
X704879Y1279412D01*
X700880D01*
X698881Y1277412D01*
Y1267416D01*
X694882Y1279412D02*
X690883D01*
X692883D01*
Y1267416D01*
X694882Y1269415D01*
X847865Y-58792D02*
Y-68789D01*
X849864Y-70788D01*
X853863D01*
X855862Y-68789D01*
Y-58792D01*
X865859Y-70788D02*
Y-58792D01*
X859861Y-64790D01*
X867858D01*
X1003303Y870675D02*
Y860678D01*
X1005302Y858679D01*
X1009301D01*
X1011300Y860678D01*
Y870675D01*
X1023296Y858679D02*
X1015299D01*
X1023296Y866676D01*
Y868676D01*
X1021297Y870675D01*
X1017298D01*
X1015299Y868676D01*
X424891Y573D02*
Y-9424D01*
X426890Y-11423D01*
X430889D01*
X432888Y-9424D01*
Y573D01*
X444884D02*
X436887D01*
Y-5425D01*
X440885Y-3426D01*
X442885D01*
X444884Y-5425D01*
Y-9424D01*
X442885Y-11423D01*
X438886D01*
X436887Y-9424D01*
X1161097Y60099D02*
Y50102D01*
X1163097Y48103D01*
X1167095D01*
X1169095Y50102D01*
Y60099D01*
X1181091D02*
X1177092Y58100D01*
X1173093Y54101D01*
Y50102D01*
X1175093Y48103D01*
X1179091D01*
X1181091Y50102D01*
Y52101D01*
X1179091Y54101D01*
X1173093D01*
D14*
X493253Y1488880D02*
G03*
X309Y1059414I-32047J-460852D01*
G01*
X1370365Y1059847D02*
G03*
X878382Y1489379I-460897J-31385D01*
G01*
X70Y480D02*
X253405Y-252855D01*
X70Y480D02*
Y2971D01*
Y199028D01*
X493290Y1489414D02*
X878380D01*
X253838Y-252422D02*
X1117269D01*
X99920Y199028D02*
Y599251D01*
X1270754Y199461D02*
Y599683D01*
X-172Y599251D02*
Y604048D01*
Y599251D02*
X99920D01*
X70Y199028D02*
X99920D01*
X-172Y604048D02*
X-172Y1059414D01*
X1117269Y-252422D02*
X1370604Y913D01*
Y3404D01*
X1370846Y604482D02*
Y1059847D01*
X1370604Y3404D02*
Y199461D01*
X1270754D02*
X1370604D01*
X1270754Y599683D02*
X1370846D01*
Y604482D01*
M02*
