G04*
G04 #@! TF.GenerationSoftware,Altium Limited,Altium Designer,24.1.2 (44)*
G04*
G04 Layer_Color=2752767*
%FSLAX44Y44*%
%MOMM*%
G71*
G04*
G04 #@! TF.SameCoordinates,85EAEC8C-3496-431A-917F-130F63ABBC40*
G04*
G04*
G04 #@! TF.FilePolarity,Positive*
G04*
G01*
G75*
%ADD15C,0.1270*%
%ADD65C,0.1693*%
D15*
X1275669Y718139D02*
X1278209Y723219D01*
X1275669Y728299D01*
X1280749Y725759D01*
X1285829Y728299D01*
X1283289Y723219D01*
X1285829Y718139D01*
X1280749Y720679D01*
X1275669Y718139D01*
X1301069Y743539D02*
X1303609Y748619D01*
X1301069Y753699D01*
X1306149Y751159D01*
X1311229Y753699D01*
X1308689Y748619D01*
X1311229Y743539D01*
X1306149Y746079D01*
X1301069Y743539D01*
X1275669Y768939D02*
X1278209Y774019D01*
X1275669Y779099D01*
X1280749Y776559D01*
X1285829Y779099D01*
X1283289Y774019D01*
X1285829Y768939D01*
X1280749Y771479D01*
X1275669Y768939D01*
X641797Y599419D02*
Y596879D01*
X646877D01*
Y599419D01*
X649417D01*
Y604499D01*
X646877D01*
Y607039D01*
X641797D01*
Y604499D01*
X639257D01*
Y599419D01*
X641797D01*
X616397D02*
Y596879D01*
X621477D01*
Y599419D01*
X624017D01*
Y604499D01*
X621477D01*
Y607039D01*
X616397D01*
Y604499D01*
X613857D01*
Y599419D01*
X616397D01*
X590997D02*
Y596879D01*
X596077D01*
Y599419D01*
X598617D01*
Y604499D01*
X596077D01*
Y607039D01*
X590997D01*
Y604499D01*
X588457D01*
Y599419D01*
X590997D01*
X565597D02*
Y596879D01*
X570677D01*
Y599419D01*
X573217D01*
Y604499D01*
X570677D01*
Y607039D01*
X565597D01*
Y604499D01*
X563057D01*
Y599419D01*
X565597D01*
X540197D02*
Y596879D01*
X545277D01*
Y599419D01*
X547817D01*
Y604499D01*
X545277D01*
Y607039D01*
X540197D01*
Y604499D01*
X537657D01*
Y599419D01*
X540197D01*
X514797D02*
Y596879D01*
X519877D01*
Y599419D01*
X522417D01*
Y604499D01*
X519877D01*
Y607039D01*
X514797D01*
Y604499D01*
X512257D01*
Y599419D01*
X514797D01*
X889141Y594963D02*
Y592423D01*
X894221D01*
Y594963D01*
X896761D01*
Y600043D01*
X894221D01*
Y602583D01*
X889141D01*
Y600043D01*
X886601D01*
Y594963D01*
X889141D01*
X863741D02*
Y592423D01*
X868821D01*
Y594963D01*
X871361D01*
Y600043D01*
X868821D01*
Y602583D01*
X863741D01*
Y600043D01*
X861201D01*
Y594963D01*
X863741D01*
X838341D02*
Y592423D01*
X843421D01*
Y594963D01*
X845961D01*
Y600043D01*
X843421D01*
Y602583D01*
X838341D01*
Y600043D01*
X835801D01*
Y594963D01*
X838341D01*
X812941D02*
Y592423D01*
X818021D01*
Y594963D01*
X820561D01*
Y600043D01*
X818021D01*
Y602583D01*
X812941D01*
Y600043D01*
X810401D01*
Y594963D01*
X812941D01*
X787541D02*
Y592423D01*
X792621D01*
Y594963D01*
X795161D01*
Y600043D01*
X792621D01*
Y602583D01*
X787541D01*
Y600043D01*
X785001D01*
Y594963D01*
X787541D01*
X762141D02*
Y592423D01*
X767221D01*
Y594963D01*
X769761D01*
Y600043D01*
X767221D01*
Y602583D01*
X762141D01*
Y600043D01*
X759601D01*
Y594963D01*
X762141D01*
X322493Y591976D02*
Y602136D01*
X332653D01*
Y591976D01*
X322493D01*
X342493D02*
Y602136D01*
X352653D01*
Y591976D01*
X342493D01*
X362493D02*
Y602136D01*
X372653D01*
Y591976D01*
X362493D01*
X552299Y978888D02*
X554840Y983968D01*
X552299Y989048D01*
X557379Y986508D01*
X562459Y989048D01*
X559920Y983968D01*
X562459Y978888D01*
X557379Y981428D01*
X552299Y978888D01*
X577700Y953488D02*
X580239Y958568D01*
X577700Y963648D01*
X582780Y961108D01*
X587859Y963648D01*
X585320Y958568D01*
X587859Y953488D01*
X582780Y956028D01*
X577700Y953488D01*
X552299Y928088D02*
X554840Y933168D01*
X552299Y938248D01*
X557379Y935708D01*
X562459Y938248D01*
X559920Y933168D01*
X562459Y928088D01*
X557379Y930628D01*
X552299Y928088D01*
X169655Y1001871D02*
X172195Y1006951D01*
X169655Y1012031D01*
X174735Y1009491D01*
X179815Y1012031D01*
X177275Y1006951D01*
X179815Y1001871D01*
X174735Y1004411D01*
X169655Y1001871D01*
X195055Y976471D02*
X197595Y981551D01*
X195055Y986631D01*
X200135Y984091D01*
X205215Y986631D01*
X202675Y981551D01*
X205215Y976471D01*
X200135Y979011D01*
X195055Y976471D01*
X169655Y951071D02*
X172195Y956151D01*
X169655Y961231D01*
X174735Y958691D01*
X179815Y961231D01*
X177275Y956151D01*
X179815Y951071D01*
X174735Y953611D01*
X169655Y951071D01*
X544328Y747937D02*
Y758097D01*
X554487D01*
Y747937D01*
X544328D01*
Y782937D02*
Y793097D01*
X554487D01*
Y782937D01*
X544328D01*
X652754Y-156275D02*
X655294Y-151195D01*
X652754Y-146115D01*
X657833Y-148655D01*
X662914Y-146115D01*
X660374Y-151195D01*
X662914Y-156275D01*
X657833Y-153735D01*
X652754Y-156275D01*
X627354Y-181675D02*
X629893Y-176595D01*
X627354Y-171515D01*
X632434Y-174055D01*
X637514Y-171515D01*
X634973Y-176595D01*
X637514Y-181675D01*
X632434Y-179135D01*
X627354Y-181675D01*
X601954Y-156275D02*
X604493Y-151195D01*
X601954Y-146115D01*
X607034Y-148655D01*
X612113Y-146115D01*
X609574Y-151195D01*
X612113Y-156275D01*
X607034Y-153735D01*
X601954Y-156275D01*
X648864Y1041617D02*
X651404Y1046697D01*
X648864Y1051777D01*
X653944Y1049237D01*
X659024Y1051777D01*
X656484Y1046697D01*
X659024Y1041617D01*
X653944Y1044157D01*
X648864Y1041617D01*
X674264Y1067017D02*
X676804Y1072097D01*
X674264Y1077177D01*
X679344Y1074637D01*
X684424Y1077177D01*
X681884Y1072097D01*
X684424Y1067017D01*
X679344Y1069557D01*
X674264Y1067017D01*
X699664Y1041617D02*
X702204Y1046697D01*
X699664Y1051777D01*
X704744Y1049237D01*
X709824Y1051777D01*
X707284Y1046697D01*
X709824Y1041617D01*
X704744Y1044157D01*
X699664Y1041617D01*
X856790Y104391D02*
X859330Y109471D01*
X856790Y114551D01*
X861870Y112011D01*
X866950Y114551D01*
X864410Y109471D01*
X866950Y104391D01*
X861870Y106931D01*
X856790Y104391D01*
X882190Y129791D02*
X884730Y134871D01*
X882190Y139951D01*
X887270Y137411D01*
X892350Y139951D01*
X889810Y134871D01*
X892350Y129791D01*
X887270Y132331D01*
X882190Y129791D01*
X907590Y104391D02*
X910130Y109471D01*
X907590Y114551D01*
X912670Y112011D01*
X917750Y114551D01*
X915210Y109471D01*
X917750Y104391D01*
X912670Y106931D01*
X907590Y104391D01*
X1083959Y1101914D02*
X1086499Y1106994D01*
X1083959Y1112074D01*
X1089039Y1109534D01*
X1094119Y1112074D01*
X1091579Y1106994D01*
X1094119Y1101914D01*
X1089039Y1104454D01*
X1083959Y1101914D01*
X1109359Y1076514D02*
X1111899Y1081594D01*
X1109359Y1086674D01*
X1114439Y1084134D01*
X1119519Y1086674D01*
X1116979Y1081594D01*
X1119519Y1076514D01*
X1114439Y1079054D01*
X1109359Y1076514D01*
X1083959Y1051114D02*
X1086499Y1056194D01*
X1083959Y1061274D01*
X1089039Y1058734D01*
X1094119Y1061274D01*
X1091579Y1056194D01*
X1094119Y1051114D01*
X1089039Y1053654D01*
X1083959Y1051114D01*
X1276939Y1025479D02*
X1279479Y1030559D01*
X1276939Y1035639D01*
X1282019Y1033099D01*
X1287099Y1035639D01*
X1284559Y1030559D01*
X1287099Y1025479D01*
X1282019Y1028019D01*
X1276939Y1025479D01*
X1302339Y1000079D02*
X1304879Y1005159D01*
X1302339Y1010239D01*
X1307419Y1007699D01*
X1312499Y1010239D01*
X1309959Y1005159D01*
X1312499Y1000079D01*
X1307419Y1002619D01*
X1302339Y1000079D01*
X1276939Y974679D02*
X1279479Y979759D01*
X1276939Y984839D01*
X1282019Y982299D01*
X1287099Y984839D01*
X1284559Y979759D01*
X1287099Y974679D01*
X1282019Y977219D01*
X1276939Y974679D01*
X1174598Y987482D02*
Y997642D01*
X1184759D01*
Y987482D01*
X1174598D01*
Y952482D02*
Y962642D01*
X1184759D01*
Y952482D01*
X1174598D01*
X806377Y1095116D02*
Y1105276D01*
X816537D01*
Y1095116D01*
X806377D01*
Y1060116D02*
Y1070276D01*
X816537D01*
Y1060116D01*
X806377D01*
X917587Y930698D02*
X920127Y935778D01*
X917587Y940858D01*
X922667Y938318D01*
X927747Y940858D01*
X925207Y935778D01*
X927747Y930698D01*
X922667Y933238D01*
X917587Y930698D01*
X892187Y956098D02*
X894727Y961178D01*
X892187Y966258D01*
X897267Y963718D01*
X902347Y966258D01*
X899807Y961178D01*
X902347Y956098D01*
X897267Y958638D01*
X892187Y956098D01*
X917587Y981498D02*
X920127Y986578D01*
X917587Y991658D01*
X922667Y989118D01*
X927747Y991658D01*
X925207Y986578D01*
X927747Y981498D01*
X922667Y984038D01*
X917587Y981498D01*
X880389Y835780D02*
X882929Y840861D01*
X880389Y845940D01*
X885469Y843400D01*
X890549Y845940D01*
X888009Y840861D01*
X890549Y835780D01*
X885469Y838320D01*
X880389Y835780D01*
X905789Y810380D02*
X908329Y815461D01*
X905789Y820540D01*
X910869Y818000D01*
X915949Y820540D01*
X913409Y815461D01*
X915949Y810380D01*
X910869Y812921D01*
X905789Y810380D01*
X880389Y784980D02*
X882929Y790061D01*
X880389Y795141D01*
X885469Y792600D01*
X890549Y795141D01*
X888009Y790061D01*
X890549Y784980D01*
X885469Y787521D01*
X880389Y784980D01*
X700162Y680632D02*
Y690792D01*
X710322D01*
Y680632D01*
X700162D01*
Y706032D02*
Y716192D01*
X710322D01*
Y706032D01*
X700162D01*
Y731432D02*
Y741592D01*
X710322D01*
Y731432D01*
X700162D01*
Y756832D02*
Y766992D01*
X710322D01*
Y756832D01*
X700162D01*
Y782232D02*
Y792392D01*
X710322D01*
Y782232D01*
X700162D01*
Y807632D02*
Y817792D01*
X710322D01*
Y807632D01*
X700162D01*
Y833032D02*
Y843192D01*
X710322D01*
Y833032D01*
X700162D01*
Y858432D02*
Y868592D01*
X710322D01*
Y858432D01*
X700162D01*
X623962Y680632D02*
Y690792D01*
X634122D01*
Y680632D01*
X623962D01*
Y706032D02*
Y716192D01*
X634122D01*
Y706032D01*
X623962D01*
Y731432D02*
Y741592D01*
X634122D01*
Y731432D01*
X623962D01*
Y756832D02*
Y766992D01*
X634122D01*
Y756832D01*
X623962D01*
Y782232D02*
Y792392D01*
X634122D01*
Y782232D01*
X623962D01*
Y807632D02*
Y817792D01*
X634122D01*
Y807632D01*
X623962D01*
Y833032D02*
Y843192D01*
X634122D01*
Y833032D01*
X623962D01*
Y858432D02*
Y868592D01*
X634122D01*
Y858432D01*
X623962D01*
X73032Y666889D02*
Y677049D01*
X83193D01*
Y666889D01*
X73032D01*
Y701889D02*
Y712048D01*
X83193D01*
Y701889D01*
X73032D01*
X1277952Y104119D02*
X1280492Y109199D01*
X1277952Y114279D01*
X1283032Y111739D01*
X1288112Y114279D01*
X1285572Y109199D01*
X1288112Y104119D01*
X1283032Y106659D01*
X1277952Y104119D01*
X1303352Y129519D02*
X1305892Y134599D01*
X1303352Y139679D01*
X1308432Y137139D01*
X1313512Y139679D01*
X1310972Y134599D01*
X1313512Y129519D01*
X1308432Y132059D01*
X1303352Y129519D01*
X1328752Y104119D02*
X1331292Y109199D01*
X1328752Y114279D01*
X1333832Y111739D01*
X1338912Y114279D01*
X1336372Y109199D01*
X1338912Y104119D01*
X1333832Y106659D01*
X1328752Y104119D01*
X630909Y-37988D02*
Y-27828D01*
X641069D01*
Y-37988D01*
X630909D01*
Y-2988D02*
Y7171D01*
X641069D01*
Y-2988D01*
X630909D01*
X796228Y941395D02*
X798768Y946475D01*
X796228Y951555D01*
X801308Y949015D01*
X806388Y951555D01*
X803848Y946475D01*
X806388Y941395D01*
X801308Y943935D01*
X796228Y941395D01*
X770828Y915995D02*
X773368Y921075D01*
X770828Y926155D01*
X775908Y923615D01*
X780988Y926155D01*
X778448Y921075D01*
X780988Y915995D01*
X775908Y918535D01*
X770828Y915995D01*
X745428Y941395D02*
X747968Y946475D01*
X745428Y951555D01*
X750508Y949015D01*
X755588Y951555D01*
X753048Y946475D01*
X755588Y941395D01*
X750508Y943935D01*
X745428Y941395D01*
X1279479Y894669D02*
X1282019Y899749D01*
X1279479Y904829D01*
X1284559Y902289D01*
X1289639Y904829D01*
X1287099Y899749D01*
X1289639Y894669D01*
X1284559Y897209D01*
X1279479Y894669D01*
X1304879Y869269D02*
X1307419Y874349D01*
X1304879Y879429D01*
X1309959Y876889D01*
X1315039Y879429D01*
X1312499Y874349D01*
X1315039Y869269D01*
X1309959Y871809D01*
X1304879Y869269D01*
X1279479Y843869D02*
X1282019Y848949D01*
X1279479Y854029D01*
X1284559Y851489D01*
X1289639Y854029D01*
X1287099Y848949D01*
X1289639Y843869D01*
X1284559Y846409D01*
X1279479Y843869D01*
X1163604Y678189D02*
X1166144Y683269D01*
X1163604Y688349D01*
X1168684Y685809D01*
X1173764Y688349D01*
X1171224Y683269D01*
X1173764Y678189D01*
X1168684Y680729D01*
X1163604Y678189D01*
X1189004Y652789D02*
X1191544Y657869D01*
X1189004Y662949D01*
X1194084Y660409D01*
X1199164Y662949D01*
X1196624Y657869D01*
X1199164Y652789D01*
X1194084Y655329D01*
X1189004Y652789D01*
X1163604Y627389D02*
X1166144Y632469D01*
X1163604Y637549D01*
X1168684Y635009D01*
X1173764Y637549D01*
X1171224Y632469D01*
X1173764Y627389D01*
X1168684Y629929D01*
X1163604Y627389D01*
X448106Y684675D02*
X450646Y687215D01*
X453186D01*
X450646Y689755D01*
X453186Y692295D01*
X450646D01*
X448106Y694835D01*
X445566Y692295D01*
X443026D01*
X445566Y689755D01*
X443026Y687215D01*
X445566D01*
X448106Y684675D01*
Y709676D02*
X450646Y712216D01*
X453186D01*
X450646Y714756D01*
X453186Y717296D01*
X450646D01*
X448106Y719836D01*
X445566Y717296D01*
X443026D01*
X445566Y714756D01*
X443026Y712216D01*
X445566D01*
X448106Y709676D01*
X802793Y723398D02*
X805333Y725938D01*
X807873D01*
X805333Y728478D01*
X807873Y731018D01*
X805333D01*
X802793Y733558D01*
X800253Y731018D01*
X797713D01*
X800253Y728478D01*
X797713Y725938D01*
X800253D01*
X802793Y723398D01*
Y698398D02*
X805333Y700938D01*
X807873D01*
X805333Y703477D01*
X807873Y706018D01*
X805333D01*
X802793Y708558D01*
X800253Y706018D01*
X797713D01*
X800253Y703477D01*
X797713Y700938D01*
X800253D01*
X802793Y698398D01*
X178517Y306817D02*
X173437Y316977D01*
X183597D01*
X178517Y306817D01*
Y482349D02*
X173437Y492509D01*
X183597D01*
X178517Y482349D01*
X1191153Y308150D02*
X1186073Y318310D01*
X1196233D01*
X1191153Y308150D01*
Y483682D02*
X1186073Y493842D01*
X1196233D01*
X1191153Y483682D01*
X188112Y171404D02*
X190652D01*
X193192Y173944D01*
X195732Y171404D01*
X198272D01*
Y173944D01*
X195732Y176484D01*
X198272Y179024D01*
Y181564D01*
X195732D01*
X193192Y179024D01*
X190652Y181564D01*
X188112D01*
Y179024D01*
X190652Y176484D01*
X188112Y173944D01*
Y171404D01*
X899452Y917755D02*
X901992D01*
X904532Y920295D01*
X907072Y917755D01*
X909612D01*
Y920295D01*
X907072Y922835D01*
X909612Y925375D01*
Y927915D01*
X907072D01*
X904532Y925375D01*
X901992Y927915D01*
X899452D01*
Y925375D01*
X901992Y922835D01*
X899452Y920295D01*
Y917755D01*
X1110882Y772496D02*
X1113422D01*
X1115962Y775036D01*
X1118502Y772496D01*
X1121042D01*
Y775036D01*
X1118502Y777576D01*
X1121042Y780116D01*
Y782656D01*
X1118502D01*
X1115962Y780116D01*
X1113422Y782656D01*
X1110882D01*
Y780116D01*
X1113422Y777576D01*
X1110882Y775036D01*
Y772496D01*
X757179Y-153567D02*
X759719D01*
X762259Y-151027D01*
X764799Y-153567D01*
X767339D01*
Y-151027D01*
X764799Y-148487D01*
X767339Y-145947D01*
Y-143407D01*
X764799D01*
X762259Y-145947D01*
X759719Y-143407D01*
X757179D01*
Y-145947D01*
X759719Y-148487D01*
X757179Y-151027D01*
Y-153567D01*
X768256Y30929D02*
X770796D01*
X773336Y33469D01*
X775876Y30929D01*
X778416D01*
Y33469D01*
X775876Y36009D01*
X778416Y38549D01*
Y41089D01*
X775876D01*
X773336Y38549D01*
X770796Y41089D01*
X768256D01*
Y38549D01*
X770796Y36009D01*
X768256Y33469D01*
Y30929D01*
X75782Y92698D02*
X78322D01*
X80862Y95238D01*
X83402Y92698D01*
X85942D01*
Y95238D01*
X83402Y97778D01*
X85942Y100318D01*
Y102858D01*
X83402D01*
X80862Y100318D01*
X78322Y102858D01*
X75782D01*
Y100318D01*
X78322Y97778D01*
X75782Y95238D01*
Y92698D01*
X56523Y90548D02*
X59063D01*
X61603Y93088D01*
X64143Y90548D01*
X66683D01*
Y93088D01*
X64143Y95628D01*
X66683Y98168D01*
Y100708D01*
X64143D01*
X61603Y98168D01*
X59063Y100708D01*
X56523D01*
Y98168D01*
X59063Y95628D01*
X56523Y93088D01*
Y90548D01*
X697111Y27413D02*
X699651D01*
X702191Y29953D01*
X704731Y27413D01*
X707271D01*
Y29953D01*
X704731Y32493D01*
X707271Y35033D01*
Y37573D01*
X704731D01*
X702191Y35033D01*
X699651Y37573D01*
X697111D01*
Y35033D01*
X699651Y32493D01*
X697111Y29953D01*
Y27413D01*
X1093101Y767048D02*
X1095641D01*
X1098181Y769588D01*
X1100721Y767048D01*
X1103261D01*
Y769588D01*
X1100721Y772128D01*
X1103261Y774668D01*
Y777208D01*
X1100721D01*
X1098181Y774668D01*
X1095641Y777208D01*
X1093101D01*
Y774668D01*
X1095641Y772128D01*
X1093101Y769588D01*
Y767048D01*
X354973Y827684D02*
X357513D01*
X360053Y830225D01*
X362593Y827684D01*
X365133D01*
Y830225D01*
X362593Y832765D01*
X365133Y835304D01*
Y837844D01*
X362593D01*
X360053Y835304D01*
X357513Y837844D01*
X354973D01*
Y835304D01*
X357513Y832765D01*
X354973Y830225D01*
Y827684D01*
X482278Y1269252D02*
X484818D01*
X487358Y1271792D01*
X489898Y1269252D01*
X492438D01*
Y1271792D01*
X489898Y1274332D01*
X492438Y1276872D01*
Y1279412D01*
X489898D01*
X487358Y1276872D01*
X484818Y1279412D01*
X482278D01*
Y1276872D01*
X484818Y1274332D01*
X482278Y1271792D01*
Y1269252D01*
X867545Y-114608D02*
X870085D01*
X872625Y-112068D01*
X875165Y-114608D01*
X877705D01*
Y-112068D01*
X875165Y-109528D01*
X877705Y-106988D01*
Y-104448D01*
X875165D01*
X872625Y-106988D01*
X870085Y-104448D01*
X867545D01*
Y-106988D01*
X870085Y-109528D01*
X867545Y-112068D01*
Y-114608D01*
X472321Y-143035D02*
X474861D01*
X477401Y-140495D01*
X479941Y-143035D01*
X482481D01*
Y-140495D01*
X479941Y-137955D01*
X482481Y-135415D01*
Y-132875D01*
X479941D01*
X477401Y-135415D01*
X474861Y-132875D01*
X472321D01*
Y-135415D01*
X474861Y-137955D01*
X472321Y-140495D01*
Y-143035D01*
X465717Y928088D02*
X468257D01*
X470797Y930628D01*
X473337Y928088D01*
X475877D01*
Y930628D01*
X473337Y933168D01*
X475877Y935708D01*
Y938248D01*
X473337D01*
X470797Y935708D01*
X468257Y938248D01*
X465717D01*
Y935708D01*
X468257Y933168D01*
X465717Y930628D01*
Y928088D01*
X778645Y48121D02*
X781185D01*
X783725Y50661D01*
X786265Y48121D01*
X788805D01*
Y50661D01*
X786265Y53201D01*
X788805Y55741D01*
Y58281D01*
X786265D01*
X783725Y55741D01*
X781185Y58281D01*
X778645D01*
Y55741D01*
X781185Y53201D01*
X778645Y50661D01*
Y48121D01*
X1263785Y-16346D02*
X1266325D01*
X1268865Y-13806D01*
X1271405Y-16346D01*
X1273945D01*
Y-13806D01*
X1271405Y-11266D01*
X1273945Y-8726D01*
Y-6186D01*
X1271405D01*
X1268865Y-8726D01*
X1266325Y-6186D01*
X1263785D01*
Y-8726D01*
X1266325Y-11266D01*
X1263785Y-13806D01*
Y-16346D01*
X76401Y64699D02*
X78941D01*
X81481Y67238D01*
X84021Y64699D01*
X86561D01*
Y67238D01*
X84021Y69778D01*
X86561Y72319D01*
Y74858D01*
X84021D01*
X81481Y72319D01*
X78941Y74858D01*
X76401D01*
Y72319D01*
X78941Y69778D01*
X76401Y67238D01*
Y64699D01*
X687967Y573005D02*
X690507D01*
X693047Y575545D01*
X695587Y573005D01*
X698127D01*
Y575545D01*
X695587Y578085D01*
X698127Y580625D01*
Y583165D01*
X695587D01*
X693047Y580625D01*
X690507Y583165D01*
X687967D01*
Y580625D01*
X690507Y578085D01*
X687967Y575545D01*
Y573005D01*
X170823Y24619D02*
X173363D01*
X175903Y27159D01*
X178443Y24619D01*
X180983D01*
Y27159D01*
X178443Y29699D01*
X180983Y32239D01*
Y34779D01*
X178443D01*
X175903Y32239D01*
X173363Y34779D01*
X170823D01*
Y32239D01*
X173363Y29699D01*
X170823Y27159D01*
Y24619D01*
X207151Y-76727D02*
X209691D01*
X212231Y-74187D01*
X214771Y-76727D01*
X217311D01*
Y-74187D01*
X214771Y-71647D01*
X217311Y-69107D01*
Y-66567D01*
X214771D01*
X212231Y-69107D01*
X209691Y-66567D01*
X207151D01*
Y-69107D01*
X209691Y-71647D01*
X207151Y-74187D01*
Y-76727D01*
X256675Y915243D02*
X259215D01*
X261755Y917783D01*
X264295Y915243D01*
X266835D01*
Y917783D01*
X264295Y920323D01*
X266835Y922863D01*
Y925403D01*
X264295D01*
X261755Y922863D01*
X259215Y925403D01*
X256675D01*
Y922863D01*
X259215Y920323D01*
X256675Y917783D01*
Y915243D01*
X412631Y1037063D02*
X415171D01*
X417711Y1039603D01*
X420251Y1037063D01*
X422791D01*
Y1039603D01*
X420251Y1042143D01*
X422791Y1044683D01*
Y1047223D01*
X420251D01*
X417711Y1044683D01*
X415171Y1047223D01*
X412631D01*
Y1044683D01*
X415171Y1042143D01*
X412631Y1039603D01*
Y1037063D01*
X463939Y1096499D02*
X466479D01*
X469019Y1099039D01*
X471559Y1096499D01*
X474099D01*
Y1099039D01*
X471559Y1101579D01*
X474099Y1104119D01*
Y1106659D01*
X471559D01*
X469019Y1104119D01*
X466479Y1106659D01*
X463939D01*
Y1104119D01*
X466479Y1101579D01*
X463939Y1099039D01*
Y1096499D01*
X49919Y1027665D02*
X52459D01*
X54999Y1030205D01*
X57539Y1027665D01*
X60079D01*
Y1030205D01*
X57539Y1032745D01*
X60079Y1035285D01*
Y1037825D01*
X57539D01*
X54999Y1035285D01*
X52459Y1037825D01*
X49919D01*
Y1035285D01*
X52459Y1032745D01*
X49919Y1030205D01*
Y1027665D01*
X602623Y-119145D02*
X605163D01*
X607703Y-116605D01*
X610243Y-119145D01*
X612783D01*
Y-116605D01*
X610243Y-114065D01*
X612783Y-111525D01*
Y-108985D01*
X610243D01*
X607703Y-111525D01*
X605163Y-108985D01*
X602623D01*
Y-111525D01*
X605163Y-114065D01*
X602623Y-116605D01*
Y-119145D01*
X896158Y-133115D02*
X898698D01*
X901238Y-130575D01*
X903778Y-133115D01*
X906318D01*
Y-130575D01*
X903778Y-128035D01*
X906318Y-125495D01*
Y-122955D01*
X903778D01*
X901238Y-125495D01*
X898698Y-122955D01*
X896158D01*
Y-125495D01*
X898698Y-128035D01*
X896158Y-130575D01*
Y-133115D01*
X332748Y-47771D02*
X335288D01*
X337828Y-45231D01*
X340368Y-47771D01*
X342908D01*
Y-45231D01*
X340368Y-42691D01*
X342908Y-40151D01*
Y-37611D01*
X340368D01*
X337828Y-40151D01*
X335288Y-37611D01*
X332748D01*
Y-40151D01*
X335288Y-42691D01*
X332748Y-45231D01*
Y-47771D01*
X537091Y1161777D02*
X539631D01*
X542171Y1164317D01*
X544711Y1161777D01*
X547251D01*
Y1164317D01*
X544711Y1166857D01*
X547251Y1169397D01*
Y1171937D01*
X544711D01*
X542171Y1169397D01*
X539631Y1171937D01*
X537091D01*
Y1169397D01*
X539631Y1166857D01*
X537091Y1164317D01*
Y1161777D01*
X259215Y10395D02*
X261755D01*
X264295Y12935D01*
X266835Y10395D01*
X269375D01*
Y12935D01*
X266835Y15475D01*
X269375Y18015D01*
Y20555D01*
X266835D01*
X264295Y18015D01*
X261755Y20555D01*
X259215D01*
Y18015D01*
X261755Y15475D01*
X259215Y12935D01*
Y10395D01*
X249055Y-45993D02*
X251595D01*
X254135Y-43453D01*
X256675Y-45993D01*
X259215D01*
Y-43453D01*
X256675Y-40913D01*
X259215Y-38373D01*
Y-35833D01*
X256675D01*
X254135Y-38373D01*
X251595Y-35833D01*
X249055D01*
Y-38373D01*
X251595Y-40913D01*
X249055Y-43453D01*
Y-45993D01*
X510213Y1025333D02*
X512753D01*
X515293Y1027873D01*
X517833Y1025333D01*
X520373D01*
Y1027873D01*
X517833Y1030413D01*
X520373Y1032953D01*
Y1035493D01*
X517833D01*
X515293Y1032953D01*
X512753Y1035493D01*
X510213D01*
Y1032953D01*
X512753Y1030413D01*
X510213Y1027873D01*
Y1025333D01*
X794901Y1008361D02*
X797441D01*
X799981Y1010901D01*
X802521Y1008361D01*
X805061D01*
Y1010901D01*
X802521Y1013441D01*
X805061Y1015981D01*
Y1018521D01*
X802521D01*
X799981Y1015981D01*
X797441Y1018521D01*
X794901D01*
Y1015981D01*
X797441Y1013441D01*
X794901Y1010901D01*
Y1008361D01*
X246515Y879710D02*
X249055D01*
X251595Y882250D01*
X254135Y879710D01*
X256675D01*
Y882250D01*
X254135Y884790D01*
X256675Y887330D01*
Y889870D01*
X254135D01*
X251595Y887330D01*
X249055Y889870D01*
X246515D01*
Y887330D01*
X249055Y884790D01*
X246515Y882250D01*
Y879710D01*
X536710Y91210D02*
X539250D01*
X541790Y93750D01*
X544330Y91210D01*
X546870D01*
Y93750D01*
X544330Y96291D01*
X546870Y98830D01*
Y101370D01*
X544330D01*
X541790Y98830D01*
X539250Y101370D01*
X536710D01*
Y98830D01*
X539250Y96291D01*
X536710Y93750D01*
Y91210D01*
X519057Y176765D02*
X521597D01*
X524137Y179305D01*
X526677Y176765D01*
X529217D01*
Y179305D01*
X526677Y181845D01*
X529217Y184385D01*
Y186925D01*
X526677D01*
X524137Y184385D01*
X521597Y186925D01*
X519057D01*
Y184385D01*
X521597Y181845D01*
X519057Y179305D01*
Y176765D01*
X106053Y946385D02*
X108593D01*
X111133Y948925D01*
X113673Y946385D01*
X116213D01*
Y948925D01*
X113673Y951465D01*
X116213Y954005D01*
Y956545D01*
X113673D01*
X111133Y954005D01*
X108593Y956545D01*
X106053D01*
Y954005D01*
X108593Y951465D01*
X106053Y948925D01*
Y946385D01*
X1002165Y959085D02*
X1004705D01*
X1007245Y961625D01*
X1009785Y959085D01*
X1012325D01*
Y961625D01*
X1009785Y964165D01*
X1012325Y966705D01*
Y969245D01*
X1009785D01*
X1007245Y966705D01*
X1004705Y969245D01*
X1002165D01*
Y966705D01*
X1004705Y964165D01*
X1002165Y961625D01*
Y959085D01*
X1026549Y816591D02*
X1029089D01*
X1031629Y819131D01*
X1034169Y816591D01*
X1036709D01*
Y819131D01*
X1034169Y821671D01*
X1036709Y824211D01*
Y826751D01*
X1034169D01*
X1031629Y824211D01*
X1029089Y826751D01*
X1026549D01*
Y824211D01*
X1029089Y821671D01*
X1026549Y819131D01*
Y816591D01*
X761119Y827005D02*
X763659D01*
X766199Y829545D01*
X768739Y827005D01*
X771279D01*
Y829545D01*
X768739Y832085D01*
X771279Y834625D01*
Y837165D01*
X768739D01*
X766199Y834625D01*
X763659Y837165D01*
X761119D01*
Y834625D01*
X763659Y832085D01*
X761119Y829545D01*
Y827005D01*
X263025Y-169691D02*
X265565D01*
X268105Y-167151D01*
X270645Y-169691D01*
X273185D01*
Y-167151D01*
X270645Y-164611D01*
X273185Y-162071D01*
Y-159531D01*
X270645D01*
X268105Y-162071D01*
X265565Y-159531D01*
X263025D01*
Y-162071D01*
X265565Y-164611D01*
X263025Y-167151D01*
Y-169691D01*
X890151Y-66616D02*
X892691D01*
X895231Y-64075D01*
X897771Y-66616D01*
X900311D01*
Y-64075D01*
X897771Y-61536D01*
X900311Y-58995D01*
Y-56455D01*
X897771D01*
X895231Y-58995D01*
X892691Y-56455D01*
X890151D01*
Y-58995D01*
X892691Y-61536D01*
X890151Y-64075D01*
Y-66616D01*
X343797Y134347D02*
X346337D01*
X348877Y136887D01*
X351417Y134347D01*
X353957D01*
Y136887D01*
X351417Y139427D01*
X353957Y141967D01*
Y144507D01*
X351417D01*
X348877Y141967D01*
X346337Y144507D01*
X343797D01*
Y141967D01*
X346337Y139427D01*
X343797Y136887D01*
Y134347D01*
X491879Y738867D02*
X494419D01*
X496959Y741407D01*
X499499Y738867D01*
X502039D01*
Y741407D01*
X499499Y743947D01*
X502039Y746487D01*
Y749027D01*
X499499D01*
X496959Y746487D01*
X494419Y749027D01*
X491879D01*
Y746487D01*
X494419Y743947D01*
X491879Y741407D01*
Y738867D01*
X387231Y608565D02*
X389771D01*
X392311Y611105D01*
X394851Y608565D01*
X397391D01*
Y611105D01*
X394851Y613645D01*
X397391Y616185D01*
Y618725D01*
X394851D01*
X392311Y616185D01*
X389771Y618725D01*
X387231D01*
Y616185D01*
X389771Y613645D01*
X387231Y611105D01*
Y608565D01*
X1097669Y866390D02*
X1100209D01*
X1102749Y868930D01*
X1105289Y866390D01*
X1107829D01*
Y868930D01*
X1105289Y871470D01*
X1107829Y874010D01*
Y876550D01*
X1105289D01*
X1102749Y874010D01*
X1100209Y876550D01*
X1097669D01*
Y874010D01*
X1100209Y871470D01*
X1097669Y868930D01*
Y866390D01*
X976003Y1111231D02*
X978543D01*
X981083Y1113771D01*
X983623Y1111231D01*
X986163D01*
Y1113771D01*
X983623Y1116311D01*
X986163Y1118851D01*
Y1121391D01*
X983623D01*
X981083Y1118851D01*
X978543Y1121391D01*
X976003D01*
Y1118851D01*
X978543Y1116311D01*
X976003Y1113771D01*
Y1111231D01*
X330335Y-7385D02*
X332875D01*
X335415Y-4845D01*
X337955Y-7385D01*
X340495D01*
Y-4845D01*
X337955Y-2305D01*
X340495Y235D01*
Y2775D01*
X337955D01*
X335415Y235D01*
X332875Y2775D01*
X330335D01*
Y235D01*
X332875Y-2305D01*
X330335Y-4845D01*
Y-7385D01*
X891167Y1117581D02*
X893707D01*
X896247Y1120121D01*
X898787Y1117581D01*
X901327D01*
Y1120121D01*
X898787Y1122661D01*
X901327Y1125201D01*
Y1127741D01*
X898787D01*
X896247Y1125201D01*
X893707Y1127741D01*
X891167D01*
Y1125201D01*
X893707Y1122661D01*
X891167Y1120121D01*
Y1117581D01*
X504833Y88119D02*
X507373D01*
X509913Y90659D01*
X512453Y88119D01*
X514993D01*
Y90659D01*
X512453Y93199D01*
X514993Y95739D01*
Y98279D01*
X512453D01*
X509913Y95739D01*
X507373Y98279D01*
X504833D01*
Y95739D01*
X507373Y93199D01*
X504833Y90659D01*
Y88119D01*
X516771Y1320273D02*
X519311D01*
X521851Y1322813D01*
X524391Y1320273D01*
X526931D01*
Y1322813D01*
X524391Y1325353D01*
X526931Y1327893D01*
Y1330433D01*
X524391D01*
X521851Y1327893D01*
X519311Y1330433D01*
X516771D01*
Y1327893D01*
X519311Y1325353D01*
X516771Y1322813D01*
Y1320273D01*
D65*
X304135Y1059224D02*
G03*
X304135Y1059224I-5080J0D01*
G01*
Y1033824D02*
G03*
X304135Y1033824I-5080J0D01*
G01*
Y1008424D02*
G03*
X304135Y1008424I-5080J0D01*
G01*
Y983024D02*
G03*
X304135Y983024I-5080J0D01*
G01*
Y957624D02*
G03*
X304135Y957624I-5080J0D01*
G01*
Y932224D02*
G03*
X304135Y932224I-5080J0D01*
G01*
Y906824D02*
G03*
X304135Y906824I-5080J0D01*
G01*
X380335Y1059224D02*
G03*
X380335Y1059224I-5080J0D01*
G01*
Y1033824D02*
G03*
X380335Y1033824I-5080J0D01*
G01*
Y1008424D02*
G03*
X380335Y1008424I-5080J0D01*
G01*
Y983024D02*
G03*
X380335Y983024I-5080J0D01*
G01*
Y957624D02*
G03*
X380335Y957624I-5080J0D01*
G01*
Y932224D02*
G03*
X380335Y932224I-5080J0D01*
G01*
Y906824D02*
G03*
X380335Y906824I-5080J0D01*
G01*
X198189Y665820D02*
G03*
X198189Y665820I-5080J0D01*
G01*
Y690821D02*
G03*
X198189Y690821I-5080J0D01*
G01*
Y715821D02*
G03*
X198189Y715821I-5080J0D01*
G01*
X141111Y134298D02*
G03*
X141111Y134298I-5080J0D01*
G01*
Y108898D02*
G03*
X141111Y108898I-5080J0D01*
G01*
Y83498D02*
G03*
X141111Y83498I-5080J0D01*
G01*
Y58098D02*
G03*
X141111Y58098I-5080J0D01*
G01*
Y32698D02*
G03*
X141111Y32698I-5080J0D01*
G01*
Y7298D02*
G03*
X141111Y7298I-5080J0D01*
G01*
Y-18102D02*
G03*
X141111Y-18102I-5080J0D01*
G01*
X217311Y134298D02*
G03*
X217311Y134298I-5080J0D01*
G01*
Y108898D02*
G03*
X217311Y108898I-5080J0D01*
G01*
Y83498D02*
G03*
X217311Y83498I-5080J0D01*
G01*
Y58098D02*
G03*
X217311Y58098I-5080J0D01*
G01*
Y32698D02*
G03*
X217311Y32698I-5080J0D01*
G01*
Y7298D02*
G03*
X217311Y7298I-5080J0D01*
G01*
Y-18102D02*
G03*
X217311Y-18102I-5080J0D01*
G01*
X904494Y1318937D02*
G03*
X904494Y1318937I-5080J0D01*
G01*
Y1293937D02*
G03*
X904494Y1293937I-5080J0D01*
G01*
Y1268936D02*
G03*
X904494Y1268936I-5080J0D01*
G01*
X719578Y1198132D02*
G03*
X719578Y1198132I-5080J0D01*
G01*
Y1223532D02*
G03*
X719578Y1223532I-5080J0D01*
G01*
Y1248932D02*
G03*
X719578Y1248932I-5080J0D01*
G01*
Y1274332D02*
G03*
X719578Y1274332I-5080J0D01*
G01*
Y1299732D02*
G03*
X719578Y1299732I-5080J0D01*
G01*
Y1325132D02*
G03*
X719578Y1325132I-5080J0D01*
G01*
Y1350532D02*
G03*
X719578Y1350532I-5080J0D01*
G01*
X643378Y1198132D02*
G03*
X643378Y1198132I-5080J0D01*
G01*
Y1223532D02*
G03*
X643378Y1223532I-5080J0D01*
G01*
Y1248932D02*
G03*
X643378Y1248932I-5080J0D01*
G01*
Y1274332D02*
G03*
X643378Y1274332I-5080J0D01*
G01*
Y1299732D02*
G03*
X643378Y1299732I-5080J0D01*
G01*
Y1325132D02*
G03*
X643378Y1325132I-5080J0D01*
G01*
Y1350532D02*
G03*
X643378Y1350532I-5080J0D01*
G01*
X444238Y1257021D02*
G03*
X444238Y1257021I-5080J0D01*
G01*
Y1282020D02*
G03*
X444238Y1282020I-5080J0D01*
G01*
Y1307021D02*
G03*
X444238Y1307021I-5080J0D01*
G01*
X845325Y10492D02*
G03*
X845325Y10492I-5080J0D01*
G01*
Y-14908D02*
G03*
X845325Y-14908I-5080J0D01*
G01*
Y-40308D02*
G03*
X845325Y-40308I-5080J0D01*
G01*
Y-65708D02*
G03*
X845325Y-65708I-5080J0D01*
G01*
Y-91108D02*
G03*
X845325Y-91108I-5080J0D01*
G01*
Y-116508D02*
G03*
X845325Y-116508I-5080J0D01*
G01*
Y-141908D02*
G03*
X845325Y-141908I-5080J0D01*
G01*
X921525Y10492D02*
G03*
X921525Y10492I-5080J0D01*
G01*
Y-14908D02*
G03*
X921525Y-14908I-5080J0D01*
G01*
Y-40308D02*
G03*
X921525Y-40308I-5080J0D01*
G01*
Y-65708D02*
G03*
X921525Y-65708I-5080J0D01*
G01*
Y-91108D02*
G03*
X921525Y-91108I-5080J0D01*
G01*
Y-116508D02*
G03*
X921525Y-116508I-5080J0D01*
G01*
Y-141908D02*
G03*
X921525Y-141908I-5080J0D01*
G01*
X1000763Y939959D02*
G03*
X1000763Y939959I-5080J0D01*
G01*
Y914559D02*
G03*
X1000763Y914559I-5080J0D01*
G01*
Y889159D02*
G03*
X1000763Y889159I-5080J0D01*
G01*
Y863759D02*
G03*
X1000763Y863759I-5080J0D01*
G01*
Y838359D02*
G03*
X1000763Y838359I-5080J0D01*
G01*
Y812959D02*
G03*
X1000763Y812959I-5080J0D01*
G01*
Y787559D02*
G03*
X1000763Y787559I-5080J0D01*
G01*
X1076963Y939959D02*
G03*
X1076963Y939959I-5080J0D01*
G01*
Y914559D02*
G03*
X1076963Y914559I-5080J0D01*
G01*
Y889159D02*
G03*
X1076963Y889159I-5080J0D01*
G01*
Y863759D02*
G03*
X1076963Y863759I-5080J0D01*
G01*
Y838359D02*
G03*
X1076963Y838359I-5080J0D01*
G01*
Y812959D02*
G03*
X1076963Y812959I-5080J0D01*
G01*
Y787559D02*
G03*
X1076963Y787559I-5080J0D01*
G01*
X422351Y69857D02*
G03*
X422351Y69857I-5080J0D01*
G01*
Y44457D02*
G03*
X422351Y44457I-5080J0D01*
G01*
Y19057D02*
G03*
X422351Y19057I-5080J0D01*
G01*
Y-6343D02*
G03*
X422351Y-6343I-5080J0D01*
G01*
Y-31743D02*
G03*
X422351Y-31743I-5080J0D01*
G01*
Y-57143D02*
G03*
X422351Y-57143I-5080J0D01*
G01*
Y-82543D02*
G03*
X422351Y-82543I-5080J0D01*
G01*
X498551Y69857D02*
G03*
X498551Y69857I-5080J0D01*
G01*
Y44457D02*
G03*
X498551Y44457I-5080J0D01*
G01*
Y19057D02*
G03*
X498551Y19057I-5080J0D01*
G01*
Y-6343D02*
G03*
X498551Y-6343I-5080J0D01*
G01*
Y-31743D02*
G03*
X498551Y-31743I-5080J0D01*
G01*
Y-57143D02*
G03*
X498551Y-57143I-5080J0D01*
G01*
Y-82543D02*
G03*
X498551Y-82543I-5080J0D01*
G01*
X1158557Y129383D02*
G03*
X1158557Y129383I-5080J0D01*
G01*
Y103983D02*
G03*
X1158557Y103983I-5080J0D01*
G01*
Y78583D02*
G03*
X1158557Y78583I-5080J0D01*
G01*
Y53183D02*
G03*
X1158557Y53183I-5080J0D01*
G01*
Y27783D02*
G03*
X1158557Y27783I-5080J0D01*
G01*
Y2383D02*
G03*
X1158557Y2383I-5080J0D01*
G01*
Y-23017D02*
G03*
X1158557Y-23017I-5080J0D01*
G01*
X1234757Y129383D02*
G03*
X1234757Y129383I-5080J0D01*
G01*
Y103983D02*
G03*
X1234757Y103983I-5080J0D01*
G01*
Y78583D02*
G03*
X1234757Y78583I-5080J0D01*
G01*
Y53183D02*
G03*
X1234757Y53183I-5080J0D01*
G01*
Y27783D02*
G03*
X1234757Y27783I-5080J0D01*
G01*
Y2383D02*
G03*
X1234757Y2383I-5080J0D01*
G01*
Y-23017D02*
G03*
X1234757Y-23017I-5080J0D01*
G01*
M02*
